M48
; DRILL file {KiCad 7.0.9} date Wed Jan 17 08:58:39 2024
; FORMAT={-:-/ absolute / inch / decimal}
; #@! TF.CreationDate,2024-01-17T08:58:39+01:00
; #@! TF.GenerationSoftware,Kicad,Pcbnew,7.0.9
; #@! TF.FileFunction,Plated,1,2,PTH
FMAT,2
INCH
; #@! TA.AperFunction,Plated,PTH,ViaDrill
T1C0.0157
; #@! TA.AperFunction,Plated,PTH,ComponentDrill
T2C0.0217
; #@! TA.AperFunction,Plated,PTH,ComponentDrill
T3C0.0276
; #@! TA.AperFunction,Plated,PTH,ComponentDrill
T4C0.0295
; #@! TA.AperFunction,Plated,PTH,ComponentDrill
T5C0.0315
; #@! TA.AperFunction,Plated,PTH,ComponentDrill
T6C0.0354
; #@! TA.AperFunction,Plated,PTH,ComponentDrill
T7C0.0394
; #@! TA.AperFunction,Plated,PTH,ComponentDrill
T8C0.0433
; #@! TA.AperFunction,Plated,PTH,ComponentDrill
T9C0.0492
; #@! TA.AperFunction,Plated,PTH,ComponentDrill
T10C0.0512
; #@! TA.AperFunction,Plated,PTH,ComponentDrill
T11C0.1020
%
G90
G05
T1
X2.8Y-3.1
X2.95Y-4.2746
X3.45Y-4.725
X3.75Y-3.9
X3.85Y-4.2
X4.05Y-4.85
X4.3465Y-4.725
X4.425Y-4.575
X4.4285Y-4.9
X4.4528Y-4.5472
X4.4535Y-4.85
X4.475Y-4.5
X4.4821Y-4.8
X4.5099Y-4.75
X4.575Y-3.4
X4.6Y-3.675
X4.6Y-4.7
X4.6Y-5.1
X4.625Y-3.9
X4.65Y-3.15
X4.65Y-3.975
X4.8Y-3.025
X4.8Y-4.825
X4.9Y-3.75
X4.95Y-3.9
X5.0Y-3.25
X5.05Y-3.85
X5.125Y-4.1606
X5.15Y-3.7
X5.225Y-4.132
X5.325Y-4.1035
X5.375Y-5.1
X5.6Y-3.475
X5.875Y-3.725
X6.05Y-4.1606
X6.1Y-2.95
X6.15Y-4.1035
X6.45Y-3.85
X6.75Y-3.5
X6.9Y-3.45
X6.95Y-3.125
X7.05Y-3.0
X7.1Y-3.25
X7.1Y-3.45
X7.15Y-4.282
X7.25Y-4.2535
X7.35Y-4.3106
X7.5Y-2.85
X7.5Y-3.5
X7.525Y-5.1
X7.9Y-3.0
X7.9Y-3.9
X8.4Y-4.282
T2
X3.4Y-3.75
X3.46Y-3.75
T3
X2.95Y-4.1
X2.95Y-4.4
X4.375Y-4.375
X4.375Y-4.675
X4.4Y-3.75
X4.5Y-3.25
X4.65Y-2.55
X4.65Y-2.85
X4.7Y-3.75
X4.8Y-3.25
X4.8Y-4.4
X4.8Y-4.7
X4.9Y-4.525
X4.9Y-4.825
X4.925Y-3.15
X4.95Y-2.55
X4.95Y-2.85
X5.0Y-4.4
X5.0Y-4.7
X5.1Y-4.525
X5.1Y-4.825
X5.225Y-3.15
X5.4Y-3.05
X5.4004Y-3.1496
X5.4004Y-3.2496
X5.4004Y-3.7496
X5.4004Y-3.8496
X5.65Y-4.4
X5.7Y-3.05
X5.7004Y-3.1496
X5.7004Y-3.2496
X5.7004Y-3.7496
X5.7004Y-3.8496
X5.9Y-3.1
X5.9Y-3.4
X5.95Y-4.4
X6.05Y-3.1
X6.05Y-3.4
X6.2Y-3.1
X6.2Y-3.4
X6.35Y-3.1
X6.35Y-3.4
X6.6498Y-3.9496
X6.65Y-3.05
X6.9498Y-3.9496
X6.95Y-3.05
X7.0498Y-3.95
X7.15Y-3.05
X7.3Y-2.55
X7.3Y-2.85
X7.3498Y-3.95
X7.45Y-3.05
X7.6Y-2.55
X7.6Y-2.85
X7.8Y-4.525
X7.8Y-4.825
X7.9Y-4.525
X7.9Y-4.825
X8.0Y-4.525
X8.0Y-4.825
X8.1Y-4.525
X8.1Y-4.825
T4
X5.825Y-4.55
X5.875Y-4.55
X5.925Y-4.55
T5
X2.6524Y-4.6
X2.7516Y-4.0
X2.8492Y-4.6
X2.9484Y-4.0
X3.0754Y-3.9746
X3.0754Y-4.2746
X3.1Y-4.8508
X3.1Y-5.0476
X3.1754Y-3.9746
X3.1754Y-4.2746
X3.25Y-3.3266
X3.25Y-3.5234
X3.25Y-3.6766
X3.25Y-3.8734
X3.2754Y-3.9746
X3.2754Y-4.2746
X3.3024Y-4.8
X3.3754Y-3.2746
X3.3754Y-3.5746
X3.3754Y-3.9746
X3.3754Y-4.2746
X3.4754Y-3.2746
X3.4754Y-3.5746
X3.4754Y-3.9746
X3.4754Y-4.2746
X3.4992Y-4.8
X3.5754Y-3.2746
X3.5754Y-3.5746
X3.5754Y-3.9746
X3.5754Y-4.2746
X3.6Y-3.6766
X3.6Y-3.8734
X3.675Y-4.3766
X3.675Y-4.5734
X3.6754Y-3.2746
X3.6754Y-3.5746
X3.6754Y-3.9746
X3.6754Y-4.2746
X3.7754Y-3.9746
X3.7754Y-4.2746
X3.7766Y-4.625
X3.8754Y-3.9746
X3.8754Y-4.2746
X3.8793Y-4.45
X3.9734Y-4.625
X3.9754Y-3.9746
X3.9754Y-4.2746
X4.0715Y-4.45
X4.075Y-3.4016
X4.075Y-3.5984
X4.0754Y-3.9746
X4.0754Y-4.2746
X4.0766Y-4.625
X4.1008Y-3.775
X4.1754Y-3.9746
X4.1754Y-4.2746
X4.2004Y-3.3496
X4.2004Y-3.6496
X4.2008Y-3.225
X4.2734Y-4.625
X4.2754Y-3.9746
X4.2754Y-4.2746
X4.2976Y-3.775
X4.3004Y-3.3496
X4.3004Y-3.6496
X4.3754Y-3.9746
X4.3754Y-4.2746
X4.3976Y-3.225
X4.4004Y-3.3496
X4.4004Y-3.6496
X4.5004Y-3.3496
X4.5004Y-3.6496
X4.675Y-4.4016
X4.675Y-4.5984
X4.7002Y-4.0266
X4.7002Y-4.2234
X4.825Y-3.975
X4.825Y-4.275
X4.925Y-3.975
X4.925Y-4.275
X5.025Y-3.975
X5.025Y-4.275
X5.125Y-3.975
X5.125Y-4.275
X5.1516Y-4.4
X5.225Y-3.975
X5.225Y-4.275
X5.275Y-3.4016
X5.275Y-3.5984
X5.325Y-3.975
X5.325Y-4.275
X5.3484Y-4.4
X5.4Y-3.35
X5.4Y-3.65
X5.425Y-3.975
X5.425Y-4.275
X5.5Y-3.35
X5.5Y-3.65
X5.6Y-3.35
X5.6Y-3.65
X5.7Y-3.35
X5.7Y-3.65
X5.725Y-4.0266
X5.725Y-4.2234
X5.8504Y-3.9746
X5.8504Y-4.2746
X5.9504Y-3.9746
X5.9504Y-4.2746
X6.0504Y-3.9746
X6.0504Y-4.2746
X6.0516Y-4.4
X6.1504Y-3.9746
X6.1504Y-4.2746
X6.2484Y-4.4
X6.55Y-4.125
X6.55Y-4.425
X6.575Y-3.4016
X6.575Y-3.5984
X6.65Y-4.125
X6.65Y-4.425
X6.6998Y-3.3496
X6.6998Y-3.6496
X6.75Y-4.125
X6.75Y-4.425
X6.7508Y-3.2
X6.7508Y-3.8
X6.7998Y-3.3496
X6.7998Y-3.6496
X6.85Y-4.125
X6.85Y-4.425
X6.8998Y-3.3496
X6.8998Y-3.6496
X6.9476Y-3.2
X6.9476Y-3.8
X6.95Y-4.125
X6.95Y-4.425
X6.9998Y-3.3496
X6.9998Y-3.6496
X7.05Y-4.125
X7.05Y-4.425
X7.0524Y-3.8
X7.0998Y-3.3496
X7.0998Y-3.6496
X7.15Y-4.125
X7.15Y-4.425
X7.1524Y-3.2
X7.1998Y-3.3496
X7.1998Y-3.6496
X7.2492Y-3.8
X7.25Y-4.125
X7.25Y-4.425
X7.2998Y-3.3496
X7.2998Y-3.6496
X7.3492Y-3.2
X7.35Y-4.125
X7.35Y-4.425
X7.475Y-4.1766
X7.475Y-4.3734
X7.7996Y-4.1254
X7.7996Y-4.4254
X7.8996Y-4.1254
X7.8996Y-4.4254
X7.9996Y-4.1254
X7.9996Y-4.4254
X8.0996Y-4.1254
X8.0996Y-4.4254
X8.1996Y-4.1254
X8.1996Y-4.4254
X8.2996Y-4.1254
X8.2996Y-4.4254
X8.3996Y-4.1254
X8.3996Y-4.4254
X8.4996Y-4.1254
X8.4996Y-4.4254
X8.5996Y-4.1254
X8.5996Y-4.4254
X8.7246Y-4.1766
X8.7246Y-4.3734
T6
X4.175Y-4.775
X4.275Y-4.775
T7
X3.8256Y-5.0
X3.9256Y-5.0
X4.0256Y-5.0
X4.275Y-5.0
X4.375Y-5.0
X4.475Y-5.0
X4.7004Y-4.9996
X4.7248Y-3.55
X4.725Y-3.375
X4.8004Y-4.9996
X4.8248Y-3.55
X4.825Y-3.375
X4.9004Y-4.9996
X5.0004Y-4.9996
X5.1004Y-4.9996
X5.575Y-5.0
X5.675Y-5.0
X5.775Y-5.0
X5.875Y-5.0
X5.975Y-5.0
X6.075Y-5.0
X6.175Y-5.0
X6.275Y-5.0
X6.375Y-5.0
X6.475Y-5.0
X6.575Y-5.0
X6.675Y-5.0
X6.775Y-5.0
X6.875Y-5.0
X6.975Y-5.0
X7.075Y-5.0
X7.8Y-4.9996
X7.9Y-4.9996
X8.0Y-4.9996
X8.1Y-4.9996
X8.2Y-4.9996
X8.3Y-4.9996
X8.4Y-4.9996
X8.5Y-4.9996
T8
X2.75Y-4.2
X2.75Y-4.3
X2.75Y-4.4
X2.847Y-3.6914
X2.847Y-3.8686
X3.103Y-3.6914
X3.103Y-3.8686
X3.3Y-4.9628
X3.4Y-4.9628
X3.5Y-4.9628
X4.7Y-1.9628
X4.7Y-2.35
X4.8Y-1.9628
X4.8Y-2.35
X4.9Y-1.9628
X4.9Y-2.35
X7.35Y-1.9628
X7.35Y-2.35
X7.45Y-1.9628
X7.45Y-2.35
X7.55Y-1.9628
X7.55Y-2.35
T9
X3.7Y-1.4
X3.7Y-2.9
X5.9Y-1.4044
X5.9Y-2.9044
X6.35Y-1.4044
X6.35Y-2.9044
X8.55Y-1.4044
X8.55Y-2.9044
T10
X2.6465Y-1.45
X2.8Y-1.7531
X2.8Y-1.95
X2.8Y-4.8031
X2.8Y-5.0
X2.8276Y-1.45
X3.2724Y-1.45
X3.4535Y-1.45
X7.3281Y-4.875
X7.4266Y-4.9734
X7.525Y-4.875
T11
X4.3Y-2.15
X5.3Y-2.15
X6.95Y-2.15
X7.95Y-2.15
T0
M30
