%TF.GenerationSoftware,KiCad,Pcbnew,7.0.9*%
%TF.CreationDate,2024-01-17T08:58:42+01:00*%
%TF.ProjectId,DC Electronic Load,44432045-6c65-4637-9472-6f6e6963204c,rev?*%
%TF.SameCoordinates,Original*%
%TF.FileFunction,Drillmap*%
%TF.FilePolarity,Positive*%
%FSLAX45Y45*%
G04 Gerber Fmt 4.5, Leading zero omitted, Abs format (unit mm)*
G04 Created by KiCad (PCBNEW 7.0.9) date 2024-01-17 08:58:42*
%MOMM*%
%LPD*%
G01*
G04 APERTURE LIST*
%ADD10C,0.100000*%
%ADD11C,0.200000*%
G04 APERTURE END LIST*
D10*
X6477000Y-3100250D02*
X22542500Y-3100250D01*
X22542500Y-13133250D01*
X6477000Y-13133250D01*
X6477000Y-3100250D01*
D11*
X6732777Y-13449734D02*
X6732777Y-13249734D01*
X6732777Y-13249734D02*
X6780396Y-13249734D01*
X6780396Y-13249734D02*
X6808967Y-13259258D01*
X6808967Y-13259258D02*
X6828015Y-13278305D01*
X6828015Y-13278305D02*
X6837539Y-13297353D01*
X6837539Y-13297353D02*
X6847062Y-13335448D01*
X6847062Y-13335448D02*
X6847062Y-13364019D01*
X6847062Y-13364019D02*
X6837539Y-13402115D01*
X6837539Y-13402115D02*
X6828015Y-13421162D01*
X6828015Y-13421162D02*
X6808967Y-13440210D01*
X6808967Y-13440210D02*
X6780396Y-13449734D01*
X6780396Y-13449734D02*
X6732777Y-13449734D01*
X6932777Y-13449734D02*
X6932777Y-13316400D01*
X6932777Y-13354496D02*
X6942301Y-13335448D01*
X6942301Y-13335448D02*
X6951824Y-13325924D01*
X6951824Y-13325924D02*
X6970872Y-13316400D01*
X6970872Y-13316400D02*
X6989920Y-13316400D01*
X7056586Y-13449734D02*
X7056586Y-13316400D01*
X7056586Y-13249734D02*
X7047062Y-13259258D01*
X7047062Y-13259258D02*
X7056586Y-13268781D01*
X7056586Y-13268781D02*
X7066110Y-13259258D01*
X7066110Y-13259258D02*
X7056586Y-13249734D01*
X7056586Y-13249734D02*
X7056586Y-13268781D01*
X7180396Y-13449734D02*
X7161348Y-13440210D01*
X7161348Y-13440210D02*
X7151824Y-13421162D01*
X7151824Y-13421162D02*
X7151824Y-13249734D01*
X7285158Y-13449734D02*
X7266110Y-13440210D01*
X7266110Y-13440210D02*
X7256586Y-13421162D01*
X7256586Y-13421162D02*
X7256586Y-13249734D01*
X7513729Y-13449734D02*
X7513729Y-13249734D01*
X7513729Y-13249734D02*
X7580396Y-13392591D01*
X7580396Y-13392591D02*
X7647062Y-13249734D01*
X7647062Y-13249734D02*
X7647062Y-13449734D01*
X7828015Y-13449734D02*
X7828015Y-13344972D01*
X7828015Y-13344972D02*
X7818491Y-13325924D01*
X7818491Y-13325924D02*
X7799443Y-13316400D01*
X7799443Y-13316400D02*
X7761348Y-13316400D01*
X7761348Y-13316400D02*
X7742301Y-13325924D01*
X7828015Y-13440210D02*
X7808967Y-13449734D01*
X7808967Y-13449734D02*
X7761348Y-13449734D01*
X7761348Y-13449734D02*
X7742301Y-13440210D01*
X7742301Y-13440210D02*
X7732777Y-13421162D01*
X7732777Y-13421162D02*
X7732777Y-13402115D01*
X7732777Y-13402115D02*
X7742301Y-13383067D01*
X7742301Y-13383067D02*
X7761348Y-13373543D01*
X7761348Y-13373543D02*
X7808967Y-13373543D01*
X7808967Y-13373543D02*
X7828015Y-13364019D01*
X7923253Y-13316400D02*
X7923253Y-13516400D01*
X7923253Y-13325924D02*
X7942301Y-13316400D01*
X7942301Y-13316400D02*
X7980396Y-13316400D01*
X7980396Y-13316400D02*
X7999443Y-13325924D01*
X7999443Y-13325924D02*
X8008967Y-13335448D01*
X8008967Y-13335448D02*
X8018491Y-13354496D01*
X8018491Y-13354496D02*
X8018491Y-13411638D01*
X8018491Y-13411638D02*
X8008967Y-13430686D01*
X8008967Y-13430686D02*
X7999443Y-13440210D01*
X7999443Y-13440210D02*
X7980396Y-13449734D01*
X7980396Y-13449734D02*
X7942301Y-13449734D01*
X7942301Y-13449734D02*
X7923253Y-13440210D01*
X8104205Y-13430686D02*
X8113729Y-13440210D01*
X8113729Y-13440210D02*
X8104205Y-13449734D01*
X8104205Y-13449734D02*
X8094682Y-13440210D01*
X8094682Y-13440210D02*
X8104205Y-13430686D01*
X8104205Y-13430686D02*
X8104205Y-13449734D01*
X8104205Y-13325924D02*
X8113729Y-13335448D01*
X8113729Y-13335448D02*
X8104205Y-13344972D01*
X8104205Y-13344972D02*
X8094682Y-13335448D01*
X8094682Y-13335448D02*
X8104205Y-13325924D01*
X8104205Y-13325924D02*
X8104205Y-13344972D01*
M02*
