%TF.GenerationSoftware,KiCad,Pcbnew,7.0.9*%
%TF.CreationDate,2024-01-17T08:58:42+01:00*%
%TF.ProjectId,DC Electronic Load,44432045-6c65-4637-9472-6f6e6963204c,rev?*%
%TF.SameCoordinates,Original*%
%TF.FileFunction,Drillmap*%
%TF.FilePolarity,Positive*%
%FSLAX45Y45*%
G04 Gerber Fmt 4.5, Leading zero omitted, Abs format (unit mm)*
G04 Created by KiCad (PCBNEW 7.0.9) date 2024-01-17 08:58:42*
%MOMM*%
%LPD*%
G01*
G04 APERTURE LIST*
%ADD10C,0.100000*%
%ADD11C,0.200000*%
%ADD12C,0.110000*%
%ADD13C,0.125000*%
%ADD14C,0.130000*%
%ADD15C,0.259000*%
G04 APERTURE END LIST*
D10*
X6477000Y-3100250D02*
X22542500Y-3100250D01*
X22542500Y-13133250D01*
X6477000Y-13133250D01*
X6477000Y-3100250D01*
D11*
D10*
X7092000Y-7854000D02*
X7132000Y-7894000D01*
X7132000Y-7854000D02*
X7092000Y-7894000D01*
X7473000Y-10837500D02*
X7513000Y-10877500D01*
X7513000Y-10837500D02*
X7473000Y-10877500D01*
X8743000Y-11981500D02*
X8783000Y-12021500D01*
X8783000Y-11981500D02*
X8743000Y-12021500D01*
X9505000Y-9886000D02*
X9545000Y-9926000D01*
X9545000Y-9886000D02*
X9505000Y-9926000D01*
X9759000Y-10648000D02*
X9799000Y-10688000D01*
X9799000Y-10648000D02*
X9759000Y-10688000D01*
X10267000Y-12299000D02*
X10307000Y-12339000D01*
X10307000Y-12299000D02*
X10267000Y-12339000D01*
X11020050Y-11981500D02*
X11060050Y-12021500D01*
X11060050Y-11981500D02*
X11020050Y-12021500D01*
X11219500Y-11600500D02*
X11259500Y-11640500D01*
X11259500Y-11600500D02*
X11219500Y-11640500D01*
X11228450Y-12426000D02*
X11268450Y-12466000D01*
X11268450Y-12426000D02*
X11228450Y-12466000D01*
X11290175Y-11529824D02*
X11330175Y-11569824D01*
X11330175Y-11529824D02*
X11290175Y-11569824D01*
X11291950Y-12299000D02*
X11331950Y-12339000D01*
X11331950Y-12299000D02*
X11291950Y-12339000D01*
X11346500Y-11410000D02*
X11386500Y-11450000D01*
X11386500Y-11410000D02*
X11346500Y-11450000D01*
X11364450Y-12172000D02*
X11404450Y-12212000D01*
X11404450Y-12172000D02*
X11364450Y-12212000D01*
X11435125Y-12045000D02*
X11475125Y-12085000D01*
X11475125Y-12045000D02*
X11435125Y-12085000D01*
X11600500Y-8616000D02*
X11640500Y-8656000D01*
X11640500Y-8616000D02*
X11600500Y-8656000D01*
X11664000Y-9314500D02*
X11704000Y-9354500D01*
X11704000Y-9314500D02*
X11664000Y-9354500D01*
X11664000Y-11918000D02*
X11704000Y-11958000D01*
X11704000Y-11918000D02*
X11664000Y-11958000D01*
X11664000Y-12934000D02*
X11704000Y-12974000D01*
X11704000Y-12934000D02*
X11664000Y-12974000D01*
X11727500Y-9886000D02*
X11767500Y-9926000D01*
X11767500Y-9886000D02*
X11727500Y-9926000D01*
X11791000Y-7981000D02*
X11831000Y-8021000D01*
X11831000Y-7981000D02*
X11791000Y-8021000D01*
X11791000Y-10076500D02*
X11831000Y-10116500D01*
X11831000Y-10076500D02*
X11791000Y-10116500D01*
X12172000Y-7663500D02*
X12212000Y-7703500D01*
X12212000Y-7663500D02*
X12172000Y-7703500D01*
X12172000Y-12235500D02*
X12212000Y-12275500D01*
X12212000Y-12235500D02*
X12172000Y-12275500D01*
X12426000Y-9505000D02*
X12466000Y-9545000D01*
X12466000Y-9505000D02*
X12426000Y-9545000D01*
X12553000Y-9886000D02*
X12593000Y-9926000D01*
X12593000Y-9886000D02*
X12553000Y-9926000D01*
X12680000Y-8235000D02*
X12720000Y-8275000D01*
X12720000Y-8235000D02*
X12680000Y-8275000D01*
X12807000Y-9759000D02*
X12847000Y-9799000D01*
X12847000Y-9759000D02*
X12807000Y-9799000D01*
X12997500Y-10547850D02*
X13037500Y-10587850D01*
X13037500Y-10547850D02*
X12997500Y-10587850D01*
X13061000Y-9378000D02*
X13101000Y-9418000D01*
X13101000Y-9378000D02*
X13061000Y-9418000D01*
X13251500Y-10475400D02*
X13291500Y-10515400D01*
X13291500Y-10475400D02*
X13251500Y-10515400D01*
X13505500Y-10402950D02*
X13545500Y-10442950D01*
X13545500Y-10402950D02*
X13505500Y-10442950D01*
X13632500Y-12934000D02*
X13672500Y-12974000D01*
X13672500Y-12934000D02*
X13632500Y-12974000D01*
X14204000Y-8806500D02*
X14244000Y-8846500D01*
X14244000Y-8806500D02*
X14204000Y-8846500D01*
X14902500Y-9441500D02*
X14942500Y-9481500D01*
X14942500Y-9441500D02*
X14902500Y-9481500D01*
X15347000Y-10547850D02*
X15387000Y-10587850D01*
X15387000Y-10547850D02*
X15347000Y-10587850D01*
X15474000Y-7473000D02*
X15514000Y-7513000D01*
X15514000Y-7473000D02*
X15474000Y-7513000D01*
X15601000Y-10402950D02*
X15641000Y-10442950D01*
X15641000Y-10402950D02*
X15601000Y-10442950D01*
X16363000Y-9759000D02*
X16403000Y-9799000D01*
X16403000Y-9759000D02*
X16363000Y-9799000D01*
X17125000Y-8870000D02*
X17165000Y-8910000D01*
X17165000Y-8870000D02*
X17125000Y-8910000D01*
X17506000Y-8743000D02*
X17546000Y-8783000D01*
X17546000Y-8743000D02*
X17506000Y-8783000D01*
X17633000Y-7917500D02*
X17673000Y-7957500D01*
X17673000Y-7917500D02*
X17633000Y-7957500D01*
X17887000Y-7600000D02*
X17927000Y-7640000D01*
X17927000Y-7600000D02*
X17887000Y-7640000D01*
X18014000Y-8235000D02*
X18054000Y-8275000D01*
X18054000Y-8235000D02*
X18014000Y-8275000D01*
X18014000Y-8743000D02*
X18054000Y-8783000D01*
X18054000Y-8743000D02*
X18014000Y-8783000D01*
X18141000Y-10856400D02*
X18181000Y-10896400D01*
X18181000Y-10856400D02*
X18141000Y-10896400D01*
X18395000Y-10783950D02*
X18435000Y-10823950D01*
X18435000Y-10783950D02*
X18395000Y-10823950D01*
X18649000Y-10928850D02*
X18689000Y-10968850D01*
X18689000Y-10928850D02*
X18649000Y-10968850D01*
X19030000Y-7219000D02*
X19070000Y-7259000D01*
X19070000Y-7219000D02*
X19030000Y-7259000D01*
X19030000Y-8870000D02*
X19070000Y-8910000D01*
X19070000Y-8870000D02*
X19030000Y-8910000D01*
X19093500Y-12934000D02*
X19133500Y-12974000D01*
X19133500Y-12934000D02*
X19093500Y-12974000D01*
X20046000Y-7600000D02*
X20086000Y-7640000D01*
X20086000Y-7600000D02*
X20046000Y-7640000D01*
X20046000Y-9886000D02*
X20086000Y-9926000D01*
X20086000Y-9886000D02*
X20046000Y-9926000D01*
X21316000Y-10856400D02*
X21356000Y-10896400D01*
X21356000Y-10856400D02*
X21316000Y-10896400D01*
X8663500Y-9525000D02*
G75*
G03*
X8663500Y-9525000I-27500J0D01*
G01*
X8815900Y-9525000D02*
G75*
G03*
X8815900Y-9525000I-27500J0D01*
G01*
X7493000Y-10379000D02*
X7493000Y-10449000D01*
X7458000Y-10414000D02*
X7528000Y-10414000D01*
X7493000Y-11141000D02*
X7493000Y-11211000D01*
X7458000Y-11176000D02*
X7528000Y-11176000D01*
X11112500Y-11077500D02*
X11112500Y-11147500D01*
X11077500Y-11112500D02*
X11147500Y-11112500D01*
X11112500Y-11839500D02*
X11112500Y-11909500D01*
X11077500Y-11874500D02*
X11147500Y-11874500D01*
X11176000Y-9490000D02*
X11176000Y-9560000D01*
X11141000Y-9525000D02*
X11211000Y-9525000D01*
X11430000Y-8220000D02*
X11430000Y-8290000D01*
X11395000Y-8255000D02*
X11465000Y-8255000D01*
X11811000Y-6442000D02*
X11811000Y-6512000D01*
X11776000Y-6477000D02*
X11846000Y-6477000D01*
X11811000Y-7204000D02*
X11811000Y-7274000D01*
X11776000Y-7239000D02*
X11846000Y-7239000D01*
X11938000Y-9490000D02*
X11938000Y-9560000D01*
X11903000Y-9525000D02*
X11973000Y-9525000D01*
X12192000Y-8220000D02*
X12192000Y-8290000D01*
X12157000Y-8255000D02*
X12227000Y-8255000D01*
X12192000Y-11141000D02*
X12192000Y-11211000D01*
X12157000Y-11176000D02*
X12227000Y-11176000D01*
X12192000Y-11903000D02*
X12192000Y-11973000D01*
X12157000Y-11938000D02*
X12227000Y-11938000D01*
X12446000Y-11458500D02*
X12446000Y-11528500D01*
X12411000Y-11493500D02*
X12481000Y-11493500D01*
X12446000Y-12220500D02*
X12446000Y-12290500D01*
X12411000Y-12255500D02*
X12481000Y-12255500D01*
X12509500Y-7966000D02*
X12509500Y-8036000D01*
X12474500Y-8001000D02*
X12544500Y-8001000D01*
X12573000Y-6442000D02*
X12573000Y-6512000D01*
X12538000Y-6477000D02*
X12608000Y-6477000D01*
X12573000Y-7204000D02*
X12573000Y-7274000D01*
X12538000Y-7239000D02*
X12608000Y-7239000D01*
X12700000Y-11141000D02*
X12700000Y-11211000D01*
X12665000Y-11176000D02*
X12735000Y-11176000D01*
X12700000Y-11903000D02*
X12700000Y-11973000D01*
X12665000Y-11938000D02*
X12735000Y-11938000D01*
X12954000Y-11458500D02*
X12954000Y-11528500D01*
X12919000Y-11493500D02*
X12989000Y-11493500D01*
X12954000Y-12220500D02*
X12954000Y-12290500D01*
X12919000Y-12255500D02*
X12989000Y-12255500D01*
X13271500Y-7966000D02*
X13271500Y-8036000D01*
X13236500Y-8001000D02*
X13306500Y-8001000D01*
X13716000Y-7712000D02*
X13716000Y-7782000D01*
X13681000Y-7747000D02*
X13751000Y-7747000D01*
X13717000Y-7965000D02*
X13717000Y-8035000D01*
X13682000Y-8000000D02*
X13752000Y-8000000D01*
X13717000Y-8219000D02*
X13717000Y-8289000D01*
X13682000Y-8254000D02*
X13752000Y-8254000D01*
X13717000Y-9489000D02*
X13717000Y-9559000D01*
X13682000Y-9524000D02*
X13752000Y-9524000D01*
X13717000Y-9743000D02*
X13717000Y-9813000D01*
X13682000Y-9778000D02*
X13752000Y-9778000D01*
X14351000Y-11141000D02*
X14351000Y-11211000D01*
X14316000Y-11176000D02*
X14386000Y-11176000D01*
X14478000Y-7712000D02*
X14478000Y-7782000D01*
X14443000Y-7747000D02*
X14513000Y-7747000D01*
X14479000Y-7965000D02*
X14479000Y-8035000D01*
X14444000Y-8000000D02*
X14514000Y-8000000D01*
X14479000Y-8219000D02*
X14479000Y-8289000D01*
X14444000Y-8254000D02*
X14514000Y-8254000D01*
X14479000Y-9489000D02*
X14479000Y-9559000D01*
X14444000Y-9524000D02*
X14514000Y-9524000D01*
X14479000Y-9743000D02*
X14479000Y-9813000D01*
X14444000Y-9778000D02*
X14514000Y-9778000D01*
X14986000Y-7839000D02*
X14986000Y-7909000D01*
X14951000Y-7874000D02*
X15021000Y-7874000D01*
X14986000Y-8601000D02*
X14986000Y-8671000D01*
X14951000Y-8636000D02*
X15021000Y-8636000D01*
X15113000Y-11141000D02*
X15113000Y-11211000D01*
X15078000Y-11176000D02*
X15148000Y-11176000D01*
X15367000Y-7839000D02*
X15367000Y-7909000D01*
X15332000Y-7874000D02*
X15402000Y-7874000D01*
X15367000Y-8601000D02*
X15367000Y-8671000D01*
X15332000Y-8636000D02*
X15402000Y-8636000D01*
X15748000Y-7839000D02*
X15748000Y-7909000D01*
X15713000Y-7874000D02*
X15783000Y-7874000D01*
X15748000Y-8601000D02*
X15748000Y-8671000D01*
X15713000Y-8636000D02*
X15783000Y-8636000D01*
X16129000Y-7839000D02*
X16129000Y-7909000D01*
X16094000Y-7874000D02*
X16164000Y-7874000D01*
X16129000Y-8601000D02*
X16129000Y-8671000D01*
X16094000Y-8636000D02*
X16164000Y-8636000D01*
X16890500Y-9997000D02*
X16890500Y-10067000D01*
X16855500Y-10032000D02*
X16925500Y-10032000D01*
X16891000Y-7712000D02*
X16891000Y-7782000D01*
X16856000Y-7747000D02*
X16926000Y-7747000D01*
X17652500Y-9997000D02*
X17652500Y-10067000D01*
X17617500Y-10032000D02*
X17687500Y-10032000D01*
X17653000Y-7712000D02*
X17653000Y-7782000D01*
X17618000Y-7747000D02*
X17688000Y-7747000D01*
X17906500Y-9998000D02*
X17906500Y-10068000D01*
X17871500Y-10033000D02*
X17941500Y-10033000D01*
X18161000Y-7712000D02*
X18161000Y-7782000D01*
X18126000Y-7747000D02*
X18196000Y-7747000D01*
X18542000Y-6442000D02*
X18542000Y-6512000D01*
X18507000Y-6477000D02*
X18577000Y-6477000D01*
X18542000Y-7204000D02*
X18542000Y-7274000D01*
X18507000Y-7239000D02*
X18577000Y-7239000D01*
X18668500Y-9998000D02*
X18668500Y-10068000D01*
X18633500Y-10033000D02*
X18703500Y-10033000D01*
X18923000Y-7712000D02*
X18923000Y-7782000D01*
X18888000Y-7747000D02*
X18958000Y-7747000D01*
X19304000Y-6442000D02*
X19304000Y-6512000D01*
X19269000Y-6477000D02*
X19339000Y-6477000D01*
X19304000Y-7204000D02*
X19304000Y-7274000D01*
X19269000Y-7239000D02*
X19339000Y-7239000D01*
X19812000Y-11458500D02*
X19812000Y-11528500D01*
X19777000Y-11493500D02*
X19847000Y-11493500D01*
X19812000Y-12220500D02*
X19812000Y-12290500D01*
X19777000Y-12255500D02*
X19847000Y-12255500D01*
X20066000Y-11458500D02*
X20066000Y-11528500D01*
X20031000Y-11493500D02*
X20101000Y-11493500D01*
X20066000Y-12220500D02*
X20066000Y-12290500D01*
X20031000Y-12255500D02*
X20101000Y-12255500D01*
X20320000Y-11458500D02*
X20320000Y-11528500D01*
X20285000Y-11493500D02*
X20355000Y-11493500D01*
X20320000Y-12220500D02*
X20320000Y-12290500D01*
X20285000Y-12255500D02*
X20355000Y-12255500D01*
X20574000Y-11458500D02*
X20574000Y-11528500D01*
X20539000Y-11493500D02*
X20609000Y-11493500D01*
X20574000Y-12220500D02*
X20574000Y-12290500D01*
X20539000Y-12255500D02*
X20609000Y-12255500D01*
X14822017Y-11583517D02*
X14822017Y-11530483D01*
X14768983Y-11530483D01*
X14768983Y-11583517D01*
X14822017Y-11583517D01*
X14949017Y-11583517D02*
X14949017Y-11530483D01*
X14895983Y-11530483D01*
X14895983Y-11583517D01*
X14949017Y-11583517D01*
X15076017Y-11583517D02*
X15076017Y-11530483D01*
X15022983Y-11530483D01*
X15022983Y-11583517D01*
X15076017Y-11583517D01*
X6737000Y-11724000D02*
X6777000Y-11684000D01*
X6737000Y-11644000D01*
X6697000Y-11684000D01*
X6737000Y-11724000D01*
X6989000Y-10200000D02*
X7029000Y-10160000D01*
X6989000Y-10120000D01*
X6949000Y-10160000D01*
X6989000Y-10200000D01*
X7237000Y-11724000D02*
X7277000Y-11684000D01*
X7237000Y-11644000D01*
X7197000Y-11684000D01*
X7237000Y-11724000D01*
X7489000Y-10200000D02*
X7529000Y-10160000D01*
X7489000Y-10120000D01*
X7449000Y-10160000D01*
X7489000Y-10200000D01*
X7811500Y-10135500D02*
X7851500Y-10095500D01*
X7811500Y-10055500D01*
X7771500Y-10095500D01*
X7811500Y-10135500D01*
X7811500Y-10897500D02*
X7851500Y-10857500D01*
X7811500Y-10817500D01*
X7771500Y-10857500D01*
X7811500Y-10897500D01*
X7874000Y-12361000D02*
X7914000Y-12321000D01*
X7874000Y-12281000D01*
X7834000Y-12321000D01*
X7874000Y-12361000D01*
X7874000Y-12861000D02*
X7914000Y-12821000D01*
X7874000Y-12781000D01*
X7834000Y-12821000D01*
X7874000Y-12861000D01*
X8065500Y-10135500D02*
X8105500Y-10095500D01*
X8065500Y-10055500D01*
X8025500Y-10095500D01*
X8065500Y-10135500D01*
X8065500Y-10897500D02*
X8105500Y-10857500D01*
X8065500Y-10817500D01*
X8025500Y-10857500D01*
X8065500Y-10897500D01*
X8255000Y-8489500D02*
X8295000Y-8449500D01*
X8255000Y-8409500D01*
X8215000Y-8449500D01*
X8255000Y-8489500D01*
X8255000Y-8989500D02*
X8295000Y-8949500D01*
X8255000Y-8909500D01*
X8215000Y-8949500D01*
X8255000Y-8989500D01*
X8255000Y-9378500D02*
X8295000Y-9338500D01*
X8255000Y-9298500D01*
X8215000Y-9338500D01*
X8255000Y-9378500D01*
X8255000Y-9878500D02*
X8295000Y-9838500D01*
X8255000Y-9798500D01*
X8215000Y-9838500D01*
X8255000Y-9878500D01*
X8319500Y-10135500D02*
X8359500Y-10095500D01*
X8319500Y-10055500D01*
X8279500Y-10095500D01*
X8319500Y-10135500D01*
X8319500Y-10897500D02*
X8359500Y-10857500D01*
X8319500Y-10817500D01*
X8279500Y-10857500D01*
X8319500Y-10897500D01*
X8388000Y-12232000D02*
X8428000Y-12192000D01*
X8388000Y-12152000D01*
X8348000Y-12192000D01*
X8388000Y-12232000D01*
X8573500Y-8357500D02*
X8613500Y-8317500D01*
X8573500Y-8277500D01*
X8533500Y-8317500D01*
X8573500Y-8357500D01*
X8573500Y-9119500D02*
X8613500Y-9079500D01*
X8573500Y-9039500D01*
X8533500Y-9079500D01*
X8573500Y-9119500D01*
X8573500Y-10135500D02*
X8613500Y-10095500D01*
X8573500Y-10055500D01*
X8533500Y-10095500D01*
X8573500Y-10135500D01*
X8573500Y-10897500D02*
X8613500Y-10857500D01*
X8573500Y-10817500D01*
X8533500Y-10857500D01*
X8573500Y-10897500D01*
X8827500Y-8357500D02*
X8867500Y-8317500D01*
X8827500Y-8277500D01*
X8787500Y-8317500D01*
X8827500Y-8357500D01*
X8827500Y-9119500D02*
X8867500Y-9079500D01*
X8827500Y-9039500D01*
X8787500Y-9079500D01*
X8827500Y-9119500D01*
X8827500Y-10135500D02*
X8867500Y-10095500D01*
X8827500Y-10055500D01*
X8787500Y-10095500D01*
X8827500Y-10135500D01*
X8827500Y-10897500D02*
X8867500Y-10857500D01*
X8827500Y-10817500D01*
X8787500Y-10857500D01*
X8827500Y-10897500D01*
X8888000Y-12232000D02*
X8928000Y-12192000D01*
X8888000Y-12152000D01*
X8848000Y-12192000D01*
X8888000Y-12232000D01*
X9081500Y-8357500D02*
X9121500Y-8317500D01*
X9081500Y-8277500D01*
X9041500Y-8317500D01*
X9081500Y-8357500D01*
X9081500Y-9119500D02*
X9121500Y-9079500D01*
X9081500Y-9039500D01*
X9041500Y-9079500D01*
X9081500Y-9119500D01*
X9081500Y-10135500D02*
X9121500Y-10095500D01*
X9081500Y-10055500D01*
X9041500Y-10095500D01*
X9081500Y-10135500D01*
X9081500Y-10897500D02*
X9121500Y-10857500D01*
X9081500Y-10817500D01*
X9041500Y-10857500D01*
X9081500Y-10897500D01*
X9144000Y-9378500D02*
X9184000Y-9338500D01*
X9144000Y-9298500D01*
X9104000Y-9338500D01*
X9144000Y-9378500D01*
X9144000Y-9878500D02*
X9184000Y-9838500D01*
X9144000Y-9798500D01*
X9104000Y-9838500D01*
X9144000Y-9878500D01*
X9334500Y-11156500D02*
X9374500Y-11116500D01*
X9334500Y-11076500D01*
X9294500Y-11116500D01*
X9334500Y-11156500D01*
X9334500Y-11656500D02*
X9374500Y-11616500D01*
X9334500Y-11576500D01*
X9294500Y-11616500D01*
X9334500Y-11656500D01*
X9335500Y-8357500D02*
X9375500Y-8317500D01*
X9335500Y-8277500D01*
X9295500Y-8317500D01*
X9335500Y-8357500D01*
X9335500Y-9119500D02*
X9375500Y-9079500D01*
X9335500Y-9039500D01*
X9295500Y-9079500D01*
X9335500Y-9119500D01*
X9335500Y-10135500D02*
X9375500Y-10095500D01*
X9335500Y-10055500D01*
X9295500Y-10095500D01*
X9335500Y-10135500D01*
X9335500Y-10897500D02*
X9375500Y-10857500D01*
X9335500Y-10817500D01*
X9295500Y-10857500D01*
X9335500Y-10897500D01*
X9589500Y-10135500D02*
X9629500Y-10095500D01*
X9589500Y-10055500D01*
X9549500Y-10095500D01*
X9589500Y-10135500D01*
X9589500Y-10897500D02*
X9629500Y-10857500D01*
X9589500Y-10817500D01*
X9549500Y-10857500D01*
X9589500Y-10897500D01*
X9592500Y-11787500D02*
X9632500Y-11747500D01*
X9592500Y-11707500D01*
X9552500Y-11747500D01*
X9592500Y-11787500D01*
X9843500Y-10135500D02*
X9883500Y-10095500D01*
X9843500Y-10055500D01*
X9803500Y-10095500D01*
X9843500Y-10135500D01*
X9843500Y-10897500D02*
X9883500Y-10857500D01*
X9843500Y-10817500D01*
X9803500Y-10857500D01*
X9843500Y-10897500D01*
X9853500Y-11343000D02*
X9893500Y-11303000D01*
X9853500Y-11263000D01*
X9813500Y-11303000D01*
X9853500Y-11343000D01*
X10092500Y-11787500D02*
X10132500Y-11747500D01*
X10092500Y-11707500D01*
X10052500Y-11747500D01*
X10092500Y-11787500D01*
X10097500Y-10135500D02*
X10137500Y-10095500D01*
X10097500Y-10055500D01*
X10057500Y-10095500D01*
X10097500Y-10135500D01*
X10097500Y-10897500D02*
X10137500Y-10857500D01*
X10097500Y-10817500D01*
X10057500Y-10857500D01*
X10097500Y-10897500D01*
X10341500Y-11343000D02*
X10381500Y-11303000D01*
X10341500Y-11263000D01*
X10301500Y-11303000D01*
X10341500Y-11343000D01*
X10350500Y-8680000D02*
X10390500Y-8640000D01*
X10350500Y-8600000D01*
X10310500Y-8640000D01*
X10350500Y-8680000D01*
X10350500Y-9180000D02*
X10390500Y-9140000D01*
X10350500Y-9100000D01*
X10310500Y-9140000D01*
X10350500Y-9180000D01*
X10351500Y-10135500D02*
X10391500Y-10095500D01*
X10351500Y-10055500D01*
X10311500Y-10095500D01*
X10351500Y-10135500D01*
X10351500Y-10897500D02*
X10391500Y-10857500D01*
X10351500Y-10817500D01*
X10311500Y-10857500D01*
X10351500Y-10897500D01*
X10354500Y-11787500D02*
X10394500Y-11747500D01*
X10354500Y-11707500D01*
X10314500Y-11747500D01*
X10354500Y-11787500D01*
X10416000Y-9628500D02*
X10456000Y-9588500D01*
X10416000Y-9548500D01*
X10376000Y-9588500D01*
X10416000Y-9628500D01*
X10605500Y-10135500D02*
X10645500Y-10095500D01*
X10605500Y-10055500D01*
X10565500Y-10095500D01*
X10605500Y-10135500D01*
X10605500Y-10897500D02*
X10645500Y-10857500D01*
X10605500Y-10817500D01*
X10565500Y-10857500D01*
X10605500Y-10897500D01*
X10669000Y-8548000D02*
X10709000Y-8508000D01*
X10669000Y-8468000D01*
X10629000Y-8508000D01*
X10669000Y-8548000D01*
X10669000Y-9310000D02*
X10709000Y-9270000D01*
X10669000Y-9230000D01*
X10629000Y-9270000D01*
X10669000Y-9310000D01*
X10670000Y-8231500D02*
X10710000Y-8191500D01*
X10670000Y-8151500D01*
X10630000Y-8191500D01*
X10670000Y-8231500D01*
X10854500Y-11787500D02*
X10894500Y-11747500D01*
X10854500Y-11707500D01*
X10814500Y-11747500D01*
X10854500Y-11787500D01*
X10859500Y-10135500D02*
X10899500Y-10095500D01*
X10859500Y-10055500D01*
X10819500Y-10095500D01*
X10859500Y-10135500D01*
X10859500Y-10897500D02*
X10899500Y-10857500D01*
X10859500Y-10817500D01*
X10819500Y-10857500D01*
X10859500Y-10897500D01*
X10916000Y-9628500D02*
X10956000Y-9588500D01*
X10916000Y-9548500D01*
X10876000Y-9588500D01*
X10916000Y-9628500D01*
X10923000Y-8548000D02*
X10963000Y-8508000D01*
X10923000Y-8468000D01*
X10883000Y-8508000D01*
X10923000Y-8548000D01*
X10923000Y-9310000D02*
X10963000Y-9270000D01*
X10923000Y-9230000D01*
X10883000Y-9270000D01*
X10923000Y-9310000D01*
X11113500Y-10135500D02*
X11153500Y-10095500D01*
X11113500Y-10055500D01*
X11073500Y-10095500D01*
X11113500Y-10135500D01*
X11113500Y-10897500D02*
X11153500Y-10857500D01*
X11113500Y-10817500D01*
X11073500Y-10857500D01*
X11113500Y-10897500D01*
X11170000Y-8231500D02*
X11210000Y-8191500D01*
X11170000Y-8151500D01*
X11130000Y-8191500D01*
X11170000Y-8231500D01*
X11177000Y-8548000D02*
X11217000Y-8508000D01*
X11177000Y-8468000D01*
X11137000Y-8508000D01*
X11177000Y-8548000D01*
X11177000Y-9310000D02*
X11217000Y-9270000D01*
X11177000Y-9230000D01*
X11137000Y-9270000D01*
X11177000Y-9310000D01*
X11431000Y-8548000D02*
X11471000Y-8508000D01*
X11431000Y-8468000D01*
X11391000Y-8508000D01*
X11431000Y-8548000D01*
X11431000Y-9310000D02*
X11471000Y-9270000D01*
X11431000Y-9230000D01*
X11391000Y-9270000D01*
X11431000Y-9310000D01*
X11874500Y-11220000D02*
X11914500Y-11180000D01*
X11874500Y-11140000D01*
X11834500Y-11180000D01*
X11874500Y-11220000D01*
X11874500Y-11720000D02*
X11914500Y-11680000D01*
X11874500Y-11640000D01*
X11834500Y-11680000D01*
X11874500Y-11720000D01*
X11938500Y-10267500D02*
X11978500Y-10227500D01*
X11938500Y-10187500D01*
X11898500Y-10227500D01*
X11938500Y-10267500D01*
X11938500Y-10767500D02*
X11978500Y-10727500D01*
X11938500Y-10687500D01*
X11898500Y-10727500D01*
X11938500Y-10767500D01*
X12255500Y-10136500D02*
X12295500Y-10096500D01*
X12255500Y-10056500D01*
X12215500Y-10096500D01*
X12255500Y-10136500D01*
X12255500Y-10898500D02*
X12295500Y-10858500D01*
X12255500Y-10818500D01*
X12215500Y-10858500D01*
X12255500Y-10898500D01*
X12509500Y-10136500D02*
X12549500Y-10096500D01*
X12509500Y-10056500D01*
X12469500Y-10096500D01*
X12509500Y-10136500D01*
X12509500Y-10898500D02*
X12549500Y-10858500D01*
X12509500Y-10818500D01*
X12469500Y-10858500D01*
X12509500Y-10898500D01*
X12763500Y-10136500D02*
X12803500Y-10096500D01*
X12763500Y-10056500D01*
X12723500Y-10096500D01*
X12763500Y-10136500D01*
X12763500Y-10898500D02*
X12803500Y-10858500D01*
X12763500Y-10818500D01*
X12723500Y-10858500D01*
X12763500Y-10898500D01*
X13017500Y-10136500D02*
X13057500Y-10096500D01*
X13017500Y-10056500D01*
X12977500Y-10096500D01*
X13017500Y-10136500D01*
X13017500Y-10898500D02*
X13057500Y-10858500D01*
X13017500Y-10818500D01*
X12977500Y-10858500D01*
X13017500Y-10898500D01*
X13085000Y-11216000D02*
X13125000Y-11176000D01*
X13085000Y-11136000D01*
X13045000Y-11176000D01*
X13085000Y-11216000D01*
X13271500Y-10136500D02*
X13311500Y-10096500D01*
X13271500Y-10056500D01*
X13231500Y-10096500D01*
X13271500Y-10136500D01*
X13271500Y-10898500D02*
X13311500Y-10858500D01*
X13271500Y-10818500D01*
X13231500Y-10858500D01*
X13271500Y-10898500D01*
X13398500Y-8680000D02*
X13438500Y-8640000D01*
X13398500Y-8600000D01*
X13358500Y-8640000D01*
X13398500Y-8680000D01*
X13398500Y-9180000D02*
X13438500Y-9140000D01*
X13398500Y-9100000D01*
X13358500Y-9140000D01*
X13398500Y-9180000D01*
X13525500Y-10136500D02*
X13565500Y-10096500D01*
X13525500Y-10056500D01*
X13485500Y-10096500D01*
X13525500Y-10136500D01*
X13525500Y-10898500D02*
X13565500Y-10858500D01*
X13525500Y-10818500D01*
X13485500Y-10858500D01*
X13525500Y-10898500D01*
X13585000Y-11216000D02*
X13625000Y-11176000D01*
X13585000Y-11136000D01*
X13545000Y-11176000D01*
X13585000Y-11216000D01*
X13716000Y-8549000D02*
X13756000Y-8509000D01*
X13716000Y-8469000D01*
X13676000Y-8509000D01*
X13716000Y-8549000D01*
X13716000Y-9311000D02*
X13756000Y-9271000D01*
X13716000Y-9231000D01*
X13676000Y-9271000D01*
X13716000Y-9311000D01*
X13779500Y-10136500D02*
X13819500Y-10096500D01*
X13779500Y-10056500D01*
X13739500Y-10096500D01*
X13779500Y-10136500D01*
X13779500Y-10898500D02*
X13819500Y-10858500D01*
X13779500Y-10818500D01*
X13739500Y-10858500D01*
X13779500Y-10898500D01*
X13970000Y-8549000D02*
X14010000Y-8509000D01*
X13970000Y-8469000D01*
X13930000Y-8509000D01*
X13970000Y-8549000D01*
X13970000Y-9311000D02*
X14010000Y-9271000D01*
X13970000Y-9231000D01*
X13930000Y-9271000D01*
X13970000Y-9311000D01*
X14224000Y-8549000D02*
X14264000Y-8509000D01*
X14224000Y-8469000D01*
X14184000Y-8509000D01*
X14224000Y-8549000D01*
X14224000Y-9311000D02*
X14264000Y-9271000D01*
X14224000Y-9231000D01*
X14184000Y-9271000D01*
X14224000Y-9311000D01*
X14478000Y-8549000D02*
X14518000Y-8509000D01*
X14478000Y-8469000D01*
X14438000Y-8509000D01*
X14478000Y-8549000D01*
X14478000Y-9311000D02*
X14518000Y-9271000D01*
X14478000Y-9231000D01*
X14438000Y-9271000D01*
X14478000Y-9311000D01*
X14541500Y-10267500D02*
X14581500Y-10227500D01*
X14541500Y-10187500D01*
X14501500Y-10227500D01*
X14541500Y-10267500D01*
X14541500Y-10767500D02*
X14581500Y-10727500D01*
X14541500Y-10687500D01*
X14501500Y-10727500D01*
X14541500Y-10767500D01*
X14860000Y-10135500D02*
X14900000Y-10095500D01*
X14860000Y-10055500D01*
X14820000Y-10095500D01*
X14860000Y-10135500D01*
X14860000Y-10897500D02*
X14900000Y-10857500D01*
X14860000Y-10817500D01*
X14820000Y-10857500D01*
X14860000Y-10897500D01*
X15114000Y-10135500D02*
X15154000Y-10095500D01*
X15114000Y-10055500D01*
X15074000Y-10095500D01*
X15114000Y-10135500D01*
X15114000Y-10897500D02*
X15154000Y-10857500D01*
X15114000Y-10817500D01*
X15074000Y-10857500D01*
X15114000Y-10897500D01*
X15368000Y-10135500D02*
X15408000Y-10095500D01*
X15368000Y-10055500D01*
X15328000Y-10095500D01*
X15368000Y-10135500D01*
X15368000Y-10897500D02*
X15408000Y-10857500D01*
X15368000Y-10817500D01*
X15328000Y-10857500D01*
X15368000Y-10897500D01*
X15371000Y-11216000D02*
X15411000Y-11176000D01*
X15371000Y-11136000D01*
X15331000Y-11176000D01*
X15371000Y-11216000D01*
X15622000Y-10135500D02*
X15662000Y-10095500D01*
X15622000Y-10055500D01*
X15582000Y-10095500D01*
X15622000Y-10135500D01*
X15622000Y-10897500D02*
X15662000Y-10857500D01*
X15622000Y-10817500D01*
X15582000Y-10857500D01*
X15622000Y-10897500D01*
X15871000Y-11216000D02*
X15911000Y-11176000D01*
X15871000Y-11136000D01*
X15831000Y-11176000D01*
X15871000Y-11216000D01*
X16637000Y-10517500D02*
X16677000Y-10477500D01*
X16637000Y-10437500D01*
X16597000Y-10477500D01*
X16637000Y-10517500D01*
X16637000Y-11279500D02*
X16677000Y-11239500D01*
X16637000Y-11199500D01*
X16597000Y-11239500D01*
X16637000Y-11279500D01*
X16700500Y-8680000D02*
X16740500Y-8640000D01*
X16700500Y-8600000D01*
X16660500Y-8640000D01*
X16700500Y-8680000D01*
X16700500Y-9180000D02*
X16740500Y-9140000D01*
X16700500Y-9100000D01*
X16660500Y-9140000D01*
X16700500Y-9180000D01*
X16891000Y-10517500D02*
X16931000Y-10477500D01*
X16891000Y-10437500D01*
X16851000Y-10477500D01*
X16891000Y-10517500D01*
X16891000Y-11279500D02*
X16931000Y-11239500D01*
X16891000Y-11199500D01*
X16851000Y-11239500D01*
X16891000Y-11279500D01*
X17017500Y-8548000D02*
X17057500Y-8508000D01*
X17017500Y-8468000D01*
X16977500Y-8508000D01*
X17017500Y-8548000D01*
X17017500Y-9310000D02*
X17057500Y-9270000D01*
X17017500Y-9230000D01*
X16977500Y-9270000D01*
X17017500Y-9310000D01*
X17145000Y-10517500D02*
X17185000Y-10477500D01*
X17145000Y-10437500D01*
X17105000Y-10477500D01*
X17145000Y-10517500D01*
X17145000Y-11279500D02*
X17185000Y-11239500D01*
X17145000Y-11199500D01*
X17105000Y-11239500D01*
X17145000Y-11279500D01*
X17147000Y-8168000D02*
X17187000Y-8128000D01*
X17147000Y-8088000D01*
X17107000Y-8128000D01*
X17147000Y-8168000D01*
X17147000Y-9692000D02*
X17187000Y-9652000D01*
X17147000Y-9612000D01*
X17107000Y-9652000D01*
X17147000Y-9692000D01*
X17271500Y-8548000D02*
X17311500Y-8508000D01*
X17271500Y-8468000D01*
X17231500Y-8508000D01*
X17271500Y-8548000D01*
X17271500Y-9310000D02*
X17311500Y-9270000D01*
X17271500Y-9230000D01*
X17231500Y-9270000D01*
X17271500Y-9310000D01*
X17399000Y-10517500D02*
X17439000Y-10477500D01*
X17399000Y-10437500D01*
X17359000Y-10477500D01*
X17399000Y-10517500D01*
X17399000Y-11279500D02*
X17439000Y-11239500D01*
X17399000Y-11199500D01*
X17359000Y-11239500D01*
X17399000Y-11279500D01*
X17525500Y-8548000D02*
X17565500Y-8508000D01*
X17525500Y-8468000D01*
X17485500Y-8508000D01*
X17525500Y-8548000D01*
X17525500Y-9310000D02*
X17565500Y-9270000D01*
X17525500Y-9230000D01*
X17485500Y-9270000D01*
X17525500Y-9310000D01*
X17647000Y-8168000D02*
X17687000Y-8128000D01*
X17647000Y-8088000D01*
X17607000Y-8128000D01*
X17647000Y-8168000D01*
X17647000Y-9692000D02*
X17687000Y-9652000D01*
X17647000Y-9612000D01*
X17607000Y-9652000D01*
X17647000Y-9692000D01*
X17653000Y-10517500D02*
X17693000Y-10477500D01*
X17653000Y-10437500D01*
X17613000Y-10477500D01*
X17653000Y-10517500D01*
X17653000Y-11279500D02*
X17693000Y-11239500D01*
X17653000Y-11199500D01*
X17613000Y-11239500D01*
X17653000Y-11279500D01*
X17779500Y-8548000D02*
X17819500Y-8508000D01*
X17779500Y-8468000D01*
X17739500Y-8508000D01*
X17779500Y-8548000D01*
X17779500Y-9310000D02*
X17819500Y-9270000D01*
X17779500Y-9230000D01*
X17739500Y-9270000D01*
X17779500Y-9310000D01*
X17907000Y-10517500D02*
X17947000Y-10477500D01*
X17907000Y-10437500D01*
X17867000Y-10477500D01*
X17907000Y-10517500D01*
X17907000Y-11279500D02*
X17947000Y-11239500D01*
X17907000Y-11199500D01*
X17867000Y-11239500D01*
X17907000Y-11279500D01*
X17913000Y-9692000D02*
X17953000Y-9652000D01*
X17913000Y-9612000D01*
X17873000Y-9652000D01*
X17913000Y-9692000D01*
X18033500Y-8548000D02*
X18073500Y-8508000D01*
X18033500Y-8468000D01*
X17993500Y-8508000D01*
X18033500Y-8548000D01*
X18033500Y-9310000D02*
X18073500Y-9270000D01*
X18033500Y-9230000D01*
X17993500Y-9270000D01*
X18033500Y-9310000D01*
X18161000Y-10517500D02*
X18201000Y-10477500D01*
X18161000Y-10437500D01*
X18121000Y-10477500D01*
X18161000Y-10517500D01*
X18161000Y-11279500D02*
X18201000Y-11239500D01*
X18161000Y-11199500D01*
X18121000Y-11239500D01*
X18161000Y-11279500D01*
X18167000Y-8168000D02*
X18207000Y-8128000D01*
X18167000Y-8088000D01*
X18127000Y-8128000D01*
X18167000Y-8168000D01*
X18287500Y-8548000D02*
X18327500Y-8508000D01*
X18287500Y-8468000D01*
X18247500Y-8508000D01*
X18287500Y-8548000D01*
X18287500Y-9310000D02*
X18327500Y-9270000D01*
X18287500Y-9230000D01*
X18247500Y-9270000D01*
X18287500Y-9310000D01*
X18413000Y-9692000D02*
X18453000Y-9652000D01*
X18413000Y-9612000D01*
X18373000Y-9652000D01*
X18413000Y-9692000D01*
X18415000Y-10517500D02*
X18455000Y-10477500D01*
X18415000Y-10437500D01*
X18375000Y-10477500D01*
X18415000Y-10517500D01*
X18415000Y-11279500D02*
X18455000Y-11239500D01*
X18415000Y-11199500D01*
X18375000Y-11239500D01*
X18415000Y-11279500D01*
X18541500Y-8548000D02*
X18581500Y-8508000D01*
X18541500Y-8468000D01*
X18501500Y-8508000D01*
X18541500Y-8548000D01*
X18541500Y-9310000D02*
X18581500Y-9270000D01*
X18541500Y-9230000D01*
X18501500Y-9270000D01*
X18541500Y-9310000D01*
X18667000Y-8168000D02*
X18707000Y-8128000D01*
X18667000Y-8088000D01*
X18627000Y-8128000D01*
X18667000Y-8168000D01*
X18669000Y-10517500D02*
X18709000Y-10477500D01*
X18669000Y-10437500D01*
X18629000Y-10477500D01*
X18669000Y-10517500D01*
X18669000Y-11279500D02*
X18709000Y-11239500D01*
X18669000Y-11199500D01*
X18629000Y-11239500D01*
X18669000Y-11279500D01*
X18986500Y-10648500D02*
X19026500Y-10608500D01*
X18986500Y-10568500D01*
X18946500Y-10608500D01*
X18986500Y-10648500D01*
X18986500Y-11148500D02*
X19026500Y-11108500D01*
X18986500Y-11068500D01*
X18946500Y-11108500D01*
X18986500Y-11148500D01*
X19811000Y-10518500D02*
X19851000Y-10478500D01*
X19811000Y-10438500D01*
X19771000Y-10478500D01*
X19811000Y-10518500D01*
X19811000Y-11280500D02*
X19851000Y-11240500D01*
X19811000Y-11200500D01*
X19771000Y-11240500D01*
X19811000Y-11280500D01*
X20065000Y-10518500D02*
X20105000Y-10478500D01*
X20065000Y-10438500D01*
X20025000Y-10478500D01*
X20065000Y-10518500D01*
X20065000Y-11280500D02*
X20105000Y-11240500D01*
X20065000Y-11200500D01*
X20025000Y-11240500D01*
X20065000Y-11280500D01*
X20319000Y-10518500D02*
X20359000Y-10478500D01*
X20319000Y-10438500D01*
X20279000Y-10478500D01*
X20319000Y-10518500D01*
X20319000Y-11280500D02*
X20359000Y-11240500D01*
X20319000Y-11200500D01*
X20279000Y-11240500D01*
X20319000Y-11280500D01*
X20573000Y-10518500D02*
X20613000Y-10478500D01*
X20573000Y-10438500D01*
X20533000Y-10478500D01*
X20573000Y-10518500D01*
X20573000Y-11280500D02*
X20613000Y-11240500D01*
X20573000Y-11200500D01*
X20533000Y-11240500D01*
X20573000Y-11280500D01*
X20827000Y-10518500D02*
X20867000Y-10478500D01*
X20827000Y-10438500D01*
X20787000Y-10478500D01*
X20827000Y-10518500D01*
X20827000Y-11280500D02*
X20867000Y-11240500D01*
X20827000Y-11200500D01*
X20787000Y-11240500D01*
X20827000Y-11280500D01*
X21081000Y-10518500D02*
X21121000Y-10478500D01*
X21081000Y-10438500D01*
X21041000Y-10478500D01*
X21081000Y-10518500D01*
X21081000Y-11280500D02*
X21121000Y-11240500D01*
X21081000Y-11200500D01*
X21041000Y-11240500D01*
X21081000Y-11280500D01*
X21335000Y-10518500D02*
X21375000Y-10478500D01*
X21335000Y-10438500D01*
X21295000Y-10478500D01*
X21335000Y-10518500D01*
X21335000Y-11280500D02*
X21375000Y-11240500D01*
X21335000Y-11200500D01*
X21295000Y-11240500D01*
X21335000Y-11280500D01*
X21589000Y-10518500D02*
X21629000Y-10478500D01*
X21589000Y-10438500D01*
X21549000Y-10478500D01*
X21589000Y-10518500D01*
X21589000Y-11280500D02*
X21629000Y-11240500D01*
X21589000Y-11200500D01*
X21549000Y-11240500D01*
X21589000Y-11280500D01*
X21843000Y-10518500D02*
X21883000Y-10478500D01*
X21843000Y-10438500D01*
X21803000Y-10478500D01*
X21843000Y-10518500D01*
X21843000Y-11280500D02*
X21883000Y-11240500D01*
X21843000Y-11200500D01*
X21803000Y-11240500D01*
X21843000Y-11280500D01*
X22160500Y-10648500D02*
X22200500Y-10608500D01*
X22160500Y-10568500D01*
X22120500Y-10608500D01*
X22160500Y-10648500D01*
X22160500Y-11148500D02*
X22200500Y-11108500D01*
X22160500Y-11068500D01*
X22120500Y-11108500D01*
X22160500Y-11148500D01*
X10559500Y-12083500D02*
X10649500Y-12173500D01*
X10649500Y-12083500D02*
X10559500Y-12173500D01*
X10649500Y-12128500D02*
G75*
G03*
X10649500Y-12128500I-45000J0D01*
G01*
X10813500Y-12083500D02*
X10903500Y-12173500D01*
X10903500Y-12083500D02*
X10813500Y-12173500D01*
X10903500Y-12128500D02*
G75*
G03*
X10903500Y-12128500I-45000J0D01*
G01*
X9667000Y-12650000D02*
X9767000Y-12750000D01*
X9767000Y-12650000D02*
X9667000Y-12750000D01*
X9717000Y-12650000D02*
X9717000Y-12750000D01*
X9667000Y-12700000D02*
X9767000Y-12700000D01*
X9921000Y-12650000D02*
X10021000Y-12750000D01*
X10021000Y-12650000D02*
X9921000Y-12750000D01*
X9971000Y-12650000D02*
X9971000Y-12750000D01*
X9921000Y-12700000D02*
X10021000Y-12700000D01*
X10175000Y-12650000D02*
X10275000Y-12750000D01*
X10275000Y-12650000D02*
X10175000Y-12750000D01*
X10225000Y-12650000D02*
X10225000Y-12750000D01*
X10175000Y-12700000D02*
X10275000Y-12700000D01*
X10808500Y-12650000D02*
X10908500Y-12750000D01*
X10908500Y-12650000D02*
X10808500Y-12750000D01*
X10858500Y-12650000D02*
X10858500Y-12750000D01*
X10808500Y-12700000D02*
X10908500Y-12700000D01*
X11062500Y-12650000D02*
X11162500Y-12750000D01*
X11162500Y-12650000D02*
X11062500Y-12750000D01*
X11112500Y-12650000D02*
X11112500Y-12750000D01*
X11062500Y-12700000D02*
X11162500Y-12700000D01*
X11316500Y-12650000D02*
X11416500Y-12750000D01*
X11416500Y-12650000D02*
X11316500Y-12750000D01*
X11366500Y-12650000D02*
X11366500Y-12750000D01*
X11316500Y-12700000D02*
X11416500Y-12700000D01*
X11889000Y-12649000D02*
X11989000Y-12749000D01*
X11989000Y-12649000D02*
X11889000Y-12749000D01*
X11939000Y-12649000D02*
X11939000Y-12749000D01*
X11889000Y-12699000D02*
X11989000Y-12699000D01*
X11951000Y-8967000D02*
X12051000Y-9067000D01*
X12051000Y-8967000D02*
X11951000Y-9067000D01*
X12001000Y-8967000D02*
X12001000Y-9067000D01*
X11951000Y-9017000D02*
X12051000Y-9017000D01*
X11951500Y-8522500D02*
X12051500Y-8622500D01*
X12051500Y-8522500D02*
X11951500Y-8622500D01*
X12001500Y-8522500D02*
X12001500Y-8622500D01*
X11951500Y-8572500D02*
X12051500Y-8572500D01*
X12143000Y-12649000D02*
X12243000Y-12749000D01*
X12243000Y-12649000D02*
X12143000Y-12749000D01*
X12193000Y-12649000D02*
X12193000Y-12749000D01*
X12143000Y-12699000D02*
X12243000Y-12699000D01*
X12205000Y-8967000D02*
X12305000Y-9067000D01*
X12305000Y-8967000D02*
X12205000Y-9067000D01*
X12255000Y-8967000D02*
X12255000Y-9067000D01*
X12205000Y-9017000D02*
X12305000Y-9017000D01*
X12205500Y-8522500D02*
X12305500Y-8622500D01*
X12305500Y-8522500D02*
X12205500Y-8622500D01*
X12255500Y-8522500D02*
X12255500Y-8622500D01*
X12205500Y-8572500D02*
X12305500Y-8572500D01*
X12397000Y-12649000D02*
X12497000Y-12749000D01*
X12497000Y-12649000D02*
X12397000Y-12749000D01*
X12447000Y-12649000D02*
X12447000Y-12749000D01*
X12397000Y-12699000D02*
X12497000Y-12699000D01*
X12651000Y-12649000D02*
X12751000Y-12749000D01*
X12751000Y-12649000D02*
X12651000Y-12749000D01*
X12701000Y-12649000D02*
X12701000Y-12749000D01*
X12651000Y-12699000D02*
X12751000Y-12699000D01*
X12905000Y-12649000D02*
X13005000Y-12749000D01*
X13005000Y-12649000D02*
X12905000Y-12749000D01*
X12955000Y-12649000D02*
X12955000Y-12749000D01*
X12905000Y-12699000D02*
X13005000Y-12699000D01*
X14110500Y-12650000D02*
X14210500Y-12750000D01*
X14210500Y-12650000D02*
X14110500Y-12750000D01*
X14160500Y-12650000D02*
X14160500Y-12750000D01*
X14110500Y-12700000D02*
X14210500Y-12700000D01*
X14364500Y-12650000D02*
X14464500Y-12750000D01*
X14464500Y-12650000D02*
X14364500Y-12750000D01*
X14414500Y-12650000D02*
X14414500Y-12750000D01*
X14364500Y-12700000D02*
X14464500Y-12700000D01*
X14618500Y-12650000D02*
X14718500Y-12750000D01*
X14718500Y-12650000D02*
X14618500Y-12750000D01*
X14668500Y-12650000D02*
X14668500Y-12750000D01*
X14618500Y-12700000D02*
X14718500Y-12700000D01*
X14872500Y-12650000D02*
X14972500Y-12750000D01*
X14972500Y-12650000D02*
X14872500Y-12750000D01*
X14922500Y-12650000D02*
X14922500Y-12750000D01*
X14872500Y-12700000D02*
X14972500Y-12700000D01*
X15126500Y-12650000D02*
X15226500Y-12750000D01*
X15226500Y-12650000D02*
X15126500Y-12750000D01*
X15176500Y-12650000D02*
X15176500Y-12750000D01*
X15126500Y-12700000D02*
X15226500Y-12700000D01*
X15380500Y-12650000D02*
X15480500Y-12750000D01*
X15480500Y-12650000D02*
X15380500Y-12750000D01*
X15430500Y-12650000D02*
X15430500Y-12750000D01*
X15380500Y-12700000D02*
X15480500Y-12700000D01*
X15634500Y-12650000D02*
X15734500Y-12750000D01*
X15734500Y-12650000D02*
X15634500Y-12750000D01*
X15684500Y-12650000D02*
X15684500Y-12750000D01*
X15634500Y-12700000D02*
X15734500Y-12700000D01*
X15888500Y-12650000D02*
X15988500Y-12750000D01*
X15988500Y-12650000D02*
X15888500Y-12750000D01*
X15938500Y-12650000D02*
X15938500Y-12750000D01*
X15888500Y-12700000D02*
X15988500Y-12700000D01*
X16142500Y-12650000D02*
X16242500Y-12750000D01*
X16242500Y-12650000D02*
X16142500Y-12750000D01*
X16192500Y-12650000D02*
X16192500Y-12750000D01*
X16142500Y-12700000D02*
X16242500Y-12700000D01*
X16396500Y-12650000D02*
X16496500Y-12750000D01*
X16496500Y-12650000D02*
X16396500Y-12750000D01*
X16446500Y-12650000D02*
X16446500Y-12750000D01*
X16396500Y-12700000D02*
X16496500Y-12700000D01*
X16650500Y-12650000D02*
X16750500Y-12750000D01*
X16750500Y-12650000D02*
X16650500Y-12750000D01*
X16700500Y-12650000D02*
X16700500Y-12750000D01*
X16650500Y-12700000D02*
X16750500Y-12700000D01*
X16904500Y-12650000D02*
X17004500Y-12750000D01*
X17004500Y-12650000D02*
X16904500Y-12750000D01*
X16954500Y-12650000D02*
X16954500Y-12750000D01*
X16904500Y-12700000D02*
X17004500Y-12700000D01*
X17158500Y-12650000D02*
X17258500Y-12750000D01*
X17258500Y-12650000D02*
X17158500Y-12750000D01*
X17208500Y-12650000D02*
X17208500Y-12750000D01*
X17158500Y-12700000D02*
X17258500Y-12700000D01*
X17412500Y-12650000D02*
X17512500Y-12750000D01*
X17512500Y-12650000D02*
X17412500Y-12750000D01*
X17462500Y-12650000D02*
X17462500Y-12750000D01*
X17412500Y-12700000D02*
X17512500Y-12700000D01*
X17666500Y-12650000D02*
X17766500Y-12750000D01*
X17766500Y-12650000D02*
X17666500Y-12750000D01*
X17716500Y-12650000D02*
X17716500Y-12750000D01*
X17666500Y-12700000D02*
X17766500Y-12700000D01*
X17920500Y-12650000D02*
X18020500Y-12750000D01*
X18020500Y-12650000D02*
X17920500Y-12750000D01*
X17970500Y-12650000D02*
X17970500Y-12750000D01*
X17920500Y-12700000D02*
X18020500Y-12700000D01*
X19762000Y-12649000D02*
X19862000Y-12749000D01*
X19862000Y-12649000D02*
X19762000Y-12749000D01*
X19812000Y-12649000D02*
X19812000Y-12749000D01*
X19762000Y-12699000D02*
X19862000Y-12699000D01*
X20016000Y-12649000D02*
X20116000Y-12749000D01*
X20116000Y-12649000D02*
X20016000Y-12749000D01*
X20066000Y-12649000D02*
X20066000Y-12749000D01*
X20016000Y-12699000D02*
X20116000Y-12699000D01*
X20270000Y-12649000D02*
X20370000Y-12749000D01*
X20370000Y-12649000D02*
X20270000Y-12749000D01*
X20320000Y-12649000D02*
X20320000Y-12749000D01*
X20270000Y-12699000D02*
X20370000Y-12699000D01*
X20524000Y-12649000D02*
X20624000Y-12749000D01*
X20624000Y-12649000D02*
X20524000Y-12749000D01*
X20574000Y-12649000D02*
X20574000Y-12749000D01*
X20524000Y-12699000D02*
X20624000Y-12699000D01*
X20778000Y-12649000D02*
X20878000Y-12749000D01*
X20878000Y-12649000D02*
X20778000Y-12749000D01*
X20828000Y-12649000D02*
X20828000Y-12749000D01*
X20778000Y-12699000D02*
X20878000Y-12699000D01*
X21032000Y-12649000D02*
X21132000Y-12749000D01*
X21132000Y-12649000D02*
X21032000Y-12749000D01*
X21082000Y-12649000D02*
X21082000Y-12749000D01*
X21032000Y-12699000D02*
X21132000Y-12699000D01*
X21286000Y-12649000D02*
X21386000Y-12749000D01*
X21386000Y-12649000D02*
X21286000Y-12749000D01*
X21336000Y-12649000D02*
X21336000Y-12749000D01*
X21286000Y-12699000D02*
X21386000Y-12699000D01*
X21540000Y-12649000D02*
X21640000Y-12749000D01*
X21640000Y-12649000D02*
X21540000Y-12749000D01*
X21590000Y-12649000D02*
X21590000Y-12749000D01*
X21540000Y-12699000D02*
X21640000Y-12699000D01*
D12*
X6930000Y-10613000D02*
X7040000Y-10723000D01*
X7040000Y-10613000D02*
X6930000Y-10723000D01*
X7023891Y-10706891D02*
X7023891Y-10629109D01*
X6946109Y-10629109D01*
X6946109Y-10706891D01*
X7023891Y-10706891D01*
X6930000Y-10867000D02*
X7040000Y-10977000D01*
X7040000Y-10867000D02*
X6930000Y-10977000D01*
X7023891Y-10960891D02*
X7023891Y-10883109D01*
X6946109Y-10883109D01*
X6946109Y-10960891D01*
X7023891Y-10960891D01*
X6930000Y-11121000D02*
X7040000Y-11231000D01*
X7040000Y-11121000D02*
X6930000Y-11231000D01*
X7023891Y-11214891D02*
X7023891Y-11137109D01*
X6946109Y-11137109D01*
X6946109Y-11214891D01*
X7023891Y-11214891D01*
X7176500Y-9321200D02*
X7286500Y-9431200D01*
X7286500Y-9321200D02*
X7176500Y-9431200D01*
X7270391Y-9415091D02*
X7270391Y-9337309D01*
X7192609Y-9337309D01*
X7192609Y-9415091D01*
X7270391Y-9415091D01*
X7176500Y-9771200D02*
X7286500Y-9881200D01*
X7286500Y-9771200D02*
X7176500Y-9881200D01*
X7270391Y-9865091D02*
X7270391Y-9787309D01*
X7192609Y-9787309D01*
X7192609Y-9865091D01*
X7270391Y-9865091D01*
X7826500Y-9321200D02*
X7936500Y-9431200D01*
X7936500Y-9321200D02*
X7826500Y-9431200D01*
X7920391Y-9415091D02*
X7920391Y-9337309D01*
X7842609Y-9337309D01*
X7842609Y-9415091D01*
X7920391Y-9415091D01*
X7826500Y-9771200D02*
X7936500Y-9881200D01*
X7936500Y-9771200D02*
X7826500Y-9881200D01*
X7920391Y-9865091D02*
X7920391Y-9787309D01*
X7842609Y-9787309D01*
X7842609Y-9865091D01*
X7920391Y-9865091D01*
X8327000Y-12550500D02*
X8437000Y-12660500D01*
X8437000Y-12550500D02*
X8327000Y-12660500D01*
X8420891Y-12644391D02*
X8420891Y-12566609D01*
X8343109Y-12566609D01*
X8343109Y-12644391D01*
X8420891Y-12644391D01*
X8581000Y-12550500D02*
X8691000Y-12660500D01*
X8691000Y-12550500D02*
X8581000Y-12660500D01*
X8674891Y-12644391D02*
X8674891Y-12566609D01*
X8597109Y-12566609D01*
X8597109Y-12644391D01*
X8674891Y-12644391D01*
X8835000Y-12550500D02*
X8945000Y-12660500D01*
X8945000Y-12550500D02*
X8835000Y-12660500D01*
X8928891Y-12644391D02*
X8928891Y-12566609D01*
X8851109Y-12566609D01*
X8851109Y-12644391D01*
X8928891Y-12644391D01*
X11883000Y-4930500D02*
X11993000Y-5040500D01*
X11993000Y-4930500D02*
X11883000Y-5040500D01*
X11976891Y-5024391D02*
X11976891Y-4946609D01*
X11899109Y-4946609D01*
X11899109Y-5024391D01*
X11976891Y-5024391D01*
X11883000Y-5914000D02*
X11993000Y-6024000D01*
X11993000Y-5914000D02*
X11883000Y-6024000D01*
X11976891Y-6007891D02*
X11976891Y-5930109D01*
X11899109Y-5930109D01*
X11899109Y-6007891D01*
X11976891Y-6007891D01*
X12137000Y-4930500D02*
X12247000Y-5040500D01*
X12247000Y-4930500D02*
X12137000Y-5040500D01*
X12230891Y-5024391D02*
X12230891Y-4946609D01*
X12153109Y-4946609D01*
X12153109Y-5024391D01*
X12230891Y-5024391D01*
X12137000Y-5914000D02*
X12247000Y-6024000D01*
X12247000Y-5914000D02*
X12137000Y-6024000D01*
X12230891Y-6007891D02*
X12230891Y-5930109D01*
X12153109Y-5930109D01*
X12153109Y-6007891D01*
X12230891Y-6007891D01*
X12391000Y-4930500D02*
X12501000Y-5040500D01*
X12501000Y-4930500D02*
X12391000Y-5040500D01*
X12484891Y-5024391D02*
X12484891Y-4946609D01*
X12407109Y-4946609D01*
X12407109Y-5024391D01*
X12484891Y-5024391D01*
X12391000Y-5914000D02*
X12501000Y-6024000D01*
X12501000Y-5914000D02*
X12391000Y-6024000D01*
X12484891Y-6007891D02*
X12484891Y-5930109D01*
X12407109Y-5930109D01*
X12407109Y-6007891D01*
X12484891Y-6007891D01*
X18614000Y-4930500D02*
X18724000Y-5040500D01*
X18724000Y-4930500D02*
X18614000Y-5040500D01*
X18707891Y-5024391D02*
X18707891Y-4946609D01*
X18630109Y-4946609D01*
X18630109Y-5024391D01*
X18707891Y-5024391D01*
X18614000Y-5914000D02*
X18724000Y-6024000D01*
X18724000Y-5914000D02*
X18614000Y-6024000D01*
X18707891Y-6007891D02*
X18707891Y-5930109D01*
X18630109Y-5930109D01*
X18630109Y-6007891D01*
X18707891Y-6007891D01*
X18868000Y-4930500D02*
X18978000Y-5040500D01*
X18978000Y-4930500D02*
X18868000Y-5040500D01*
X18961891Y-5024391D02*
X18961891Y-4946609D01*
X18884109Y-4946609D01*
X18884109Y-5024391D01*
X18961891Y-5024391D01*
X18868000Y-5914000D02*
X18978000Y-6024000D01*
X18978000Y-5914000D02*
X18868000Y-6024000D01*
X18961891Y-6007891D02*
X18961891Y-5930109D01*
X18884109Y-5930109D01*
X18884109Y-6007891D01*
X18961891Y-6007891D01*
X19122000Y-4930500D02*
X19232000Y-5040500D01*
X19232000Y-4930500D02*
X19122000Y-5040500D01*
X19215891Y-5024391D02*
X19215891Y-4946609D01*
X19138109Y-4946609D01*
X19138109Y-5024391D01*
X19215891Y-5024391D01*
X19122000Y-5914000D02*
X19232000Y-6024000D01*
X19232000Y-5914000D02*
X19122000Y-6024000D01*
X19215891Y-6007891D02*
X19215891Y-5930109D01*
X19138109Y-5930109D01*
X19138109Y-6007891D01*
X19215891Y-6007891D01*
D13*
X9335500Y-3493500D02*
X9460500Y-3618500D01*
X9460500Y-3493500D02*
X9335500Y-3618500D01*
X9398000Y-3618500D02*
X9460500Y-3556000D01*
X9398000Y-3493500D01*
X9335500Y-3556000D01*
X9398000Y-3618500D01*
X9335500Y-7303500D02*
X9460500Y-7428500D01*
X9460500Y-7303500D02*
X9335500Y-7428500D01*
X9398000Y-7428500D02*
X9460500Y-7366000D01*
X9398000Y-7303500D01*
X9335500Y-7366000D01*
X9398000Y-7428500D01*
X14923500Y-3504750D02*
X15048500Y-3629750D01*
X15048500Y-3504750D02*
X14923500Y-3629750D01*
X14986000Y-3629750D02*
X15048500Y-3567250D01*
X14986000Y-3504750D01*
X14923500Y-3567250D01*
X14986000Y-3629750D01*
X14923500Y-7314750D02*
X15048500Y-7439750D01*
X15048500Y-7314750D02*
X14923500Y-7439750D01*
X14986000Y-7439750D02*
X15048500Y-7377250D01*
X14986000Y-7314750D01*
X14923500Y-7377250D01*
X14986000Y-7439750D01*
X16066500Y-3504750D02*
X16191500Y-3629750D01*
X16191500Y-3504750D02*
X16066500Y-3629750D01*
X16129000Y-3629750D02*
X16191500Y-3567250D01*
X16129000Y-3504750D01*
X16066500Y-3567250D01*
X16129000Y-3629750D01*
X16066500Y-7314750D02*
X16191500Y-7439750D01*
X16191500Y-7314750D02*
X16066500Y-7439750D01*
X16129000Y-7439750D02*
X16191500Y-7377250D01*
X16129000Y-7314750D01*
X16066500Y-7377250D01*
X16129000Y-7439750D01*
X21654500Y-3504750D02*
X21779500Y-3629750D01*
X21779500Y-3504750D02*
X21654500Y-3629750D01*
X21717000Y-3629750D02*
X21779500Y-3567250D01*
X21717000Y-3504750D01*
X21654500Y-3567250D01*
X21717000Y-3629750D01*
X21654500Y-7314750D02*
X21779500Y-7439750D01*
X21779500Y-7314750D02*
X21654500Y-7439750D01*
X21717000Y-7439750D02*
X21779500Y-7377250D01*
X21717000Y-7314750D01*
X21654500Y-7377250D01*
X21717000Y-7439750D01*
D14*
X6722000Y-3618000D02*
X6722000Y-3748000D01*
X6657000Y-3683000D02*
X6787000Y-3683000D01*
X6787000Y-3683000D02*
G75*
G03*
X6787000Y-3683000I-65000J0D01*
G01*
X7112000Y-4388000D02*
X7112000Y-4518000D01*
X7047000Y-4453000D02*
X7177000Y-4453000D01*
X7177000Y-4453000D02*
G75*
G03*
X7177000Y-4453000I-65000J0D01*
G01*
X7112000Y-4888000D02*
X7112000Y-5018000D01*
X7047000Y-4953000D02*
X7177000Y-4953000D01*
X7177000Y-4953000D02*
G75*
G03*
X7177000Y-4953000I-65000J0D01*
G01*
X7112000Y-12135000D02*
X7112000Y-12265000D01*
X7047000Y-12200000D02*
X7177000Y-12200000D01*
X7177000Y-12200000D02*
G75*
G03*
X7177000Y-12200000I-65000J0D01*
G01*
X7112000Y-12635000D02*
X7112000Y-12765000D01*
X7047000Y-12700000D02*
X7177000Y-12700000D01*
X7177000Y-12700000D02*
G75*
G03*
X7177000Y-12700000I-65000J0D01*
G01*
X7182000Y-3618000D02*
X7182000Y-3748000D01*
X7117000Y-3683000D02*
X7247000Y-3683000D01*
X7247000Y-3683000D02*
G75*
G03*
X7247000Y-3683000I-65000J0D01*
G01*
X8312000Y-3618000D02*
X8312000Y-3748000D01*
X8247000Y-3683000D02*
X8377000Y-3683000D01*
X8377000Y-3683000D02*
G75*
G03*
X8377000Y-3683000I-65000J0D01*
G01*
X8772000Y-3618000D02*
X8772000Y-3748000D01*
X8707000Y-3683000D02*
X8837000Y-3683000D01*
X8837000Y-3683000D02*
G75*
G03*
X8837000Y-3683000I-65000J0D01*
G01*
X18613500Y-12317500D02*
X18613500Y-12447500D01*
X18548500Y-12382500D02*
X18678500Y-12382500D01*
X18678500Y-12382500D02*
G75*
G03*
X18678500Y-12382500I-65000J0D01*
G01*
X18863500Y-12567500D02*
X18863500Y-12697500D01*
X18798500Y-12632500D02*
X18928500Y-12632500D01*
X18928500Y-12632500D02*
G75*
G03*
X18928500Y-12632500I-65000J0D01*
G01*
X19113500Y-12317500D02*
X19113500Y-12447500D01*
X19048500Y-12382500D02*
X19178500Y-12382500D01*
X19178500Y-12382500D02*
G75*
G03*
X19178500Y-12382500I-65000J0D01*
G01*
D15*
X11013571Y-5552571D02*
X11013571Y-5369429D01*
X10830429Y-5369429D01*
X10830429Y-5552571D01*
X11013571Y-5552571D01*
X11051500Y-5461000D02*
G75*
G03*
X11051500Y-5461000I-129500J0D01*
G01*
X13553571Y-5552571D02*
X13553571Y-5369429D01*
X13370429Y-5369429D01*
X13370429Y-5552571D01*
X13553571Y-5552571D01*
X13591500Y-5461000D02*
G75*
G03*
X13591500Y-5461000I-129500J0D01*
G01*
X17744571Y-5552571D02*
X17744571Y-5369429D01*
X17561429Y-5369429D01*
X17561429Y-5552571D01*
X17744571Y-5552571D01*
X17782500Y-5461000D02*
G75*
G03*
X17782500Y-5461000I-129500J0D01*
G01*
X20284571Y-5552571D02*
X20284571Y-5369429D01*
X20101429Y-5369429D01*
X20101429Y-5552571D01*
X20284571Y-5552571D01*
X20322500Y-5461000D02*
G75*
G03*
X20322500Y-5461000I-129500J0D01*
G01*
D11*
X6732777Y-13449734D02*
X6732777Y-13249734D01*
X6732777Y-13249734D02*
X6780396Y-13249734D01*
X6780396Y-13249734D02*
X6808967Y-13259258D01*
X6808967Y-13259258D02*
X6828015Y-13278305D01*
X6828015Y-13278305D02*
X6837539Y-13297353D01*
X6837539Y-13297353D02*
X6847062Y-13335448D01*
X6847062Y-13335448D02*
X6847062Y-13364019D01*
X6847062Y-13364019D02*
X6837539Y-13402115D01*
X6837539Y-13402115D02*
X6828015Y-13421162D01*
X6828015Y-13421162D02*
X6808967Y-13440210D01*
X6808967Y-13440210D02*
X6780396Y-13449734D01*
X6780396Y-13449734D02*
X6732777Y-13449734D01*
X6932777Y-13449734D02*
X6932777Y-13316400D01*
X6932777Y-13354496D02*
X6942301Y-13335448D01*
X6942301Y-13335448D02*
X6951824Y-13325924D01*
X6951824Y-13325924D02*
X6970872Y-13316400D01*
X6970872Y-13316400D02*
X6989920Y-13316400D01*
X7056586Y-13449734D02*
X7056586Y-13316400D01*
X7056586Y-13249734D02*
X7047062Y-13259258D01*
X7047062Y-13259258D02*
X7056586Y-13268781D01*
X7056586Y-13268781D02*
X7066110Y-13259258D01*
X7066110Y-13259258D02*
X7056586Y-13249734D01*
X7056586Y-13249734D02*
X7056586Y-13268781D01*
X7180396Y-13449734D02*
X7161348Y-13440210D01*
X7161348Y-13440210D02*
X7151824Y-13421162D01*
X7151824Y-13421162D02*
X7151824Y-13249734D01*
X7285158Y-13449734D02*
X7266110Y-13440210D01*
X7266110Y-13440210D02*
X7256586Y-13421162D01*
X7256586Y-13421162D02*
X7256586Y-13249734D01*
X7513729Y-13449734D02*
X7513729Y-13249734D01*
X7513729Y-13249734D02*
X7580396Y-13392591D01*
X7580396Y-13392591D02*
X7647062Y-13249734D01*
X7647062Y-13249734D02*
X7647062Y-13449734D01*
X7828015Y-13449734D02*
X7828015Y-13344972D01*
X7828015Y-13344972D02*
X7818491Y-13325924D01*
X7818491Y-13325924D02*
X7799443Y-13316400D01*
X7799443Y-13316400D02*
X7761348Y-13316400D01*
X7761348Y-13316400D02*
X7742301Y-13325924D01*
X7828015Y-13440210D02*
X7808967Y-13449734D01*
X7808967Y-13449734D02*
X7761348Y-13449734D01*
X7761348Y-13449734D02*
X7742301Y-13440210D01*
X7742301Y-13440210D02*
X7732777Y-13421162D01*
X7732777Y-13421162D02*
X7732777Y-13402115D01*
X7732777Y-13402115D02*
X7742301Y-13383067D01*
X7742301Y-13383067D02*
X7761348Y-13373543D01*
X7761348Y-13373543D02*
X7808967Y-13373543D01*
X7808967Y-13373543D02*
X7828015Y-13364019D01*
X7923253Y-13316400D02*
X7923253Y-13516400D01*
X7923253Y-13325924D02*
X7942301Y-13316400D01*
X7942301Y-13316400D02*
X7980396Y-13316400D01*
X7980396Y-13316400D02*
X7999443Y-13325924D01*
X7999443Y-13325924D02*
X8008967Y-13335448D01*
X8008967Y-13335448D02*
X8018491Y-13354496D01*
X8018491Y-13354496D02*
X8018491Y-13411638D01*
X8018491Y-13411638D02*
X8008967Y-13430686D01*
X8008967Y-13430686D02*
X7999443Y-13440210D01*
X7999443Y-13440210D02*
X7980396Y-13449734D01*
X7980396Y-13449734D02*
X7942301Y-13449734D01*
X7942301Y-13449734D02*
X7923253Y-13440210D01*
X8104205Y-13430686D02*
X8113729Y-13440210D01*
X8113729Y-13440210D02*
X8104205Y-13449734D01*
X8104205Y-13449734D02*
X8094682Y-13440210D01*
X8094682Y-13440210D02*
X8104205Y-13430686D01*
X8104205Y-13430686D02*
X8104205Y-13449734D01*
X8104205Y-13325924D02*
X8113729Y-13335448D01*
X8113729Y-13335448D02*
X8104205Y-13344972D01*
X8104205Y-13344972D02*
X8094682Y-13335448D01*
X8094682Y-13335448D02*
X8104205Y-13325924D01*
X8104205Y-13325924D02*
X8104205Y-13344972D01*
D10*
X6432000Y-13758250D02*
X6472000Y-13798250D01*
X6472000Y-13758250D02*
X6432000Y-13798250D01*
D11*
X6770872Y-13669734D02*
X6789920Y-13669734D01*
X6789920Y-13669734D02*
X6808967Y-13679258D01*
X6808967Y-13679258D02*
X6818491Y-13688781D01*
X6818491Y-13688781D02*
X6828015Y-13707829D01*
X6828015Y-13707829D02*
X6837539Y-13745924D01*
X6837539Y-13745924D02*
X6837539Y-13793543D01*
X6837539Y-13793543D02*
X6828015Y-13831638D01*
X6828015Y-13831638D02*
X6818491Y-13850686D01*
X6818491Y-13850686D02*
X6808967Y-13860210D01*
X6808967Y-13860210D02*
X6789920Y-13869734D01*
X6789920Y-13869734D02*
X6770872Y-13869734D01*
X6770872Y-13869734D02*
X6751824Y-13860210D01*
X6751824Y-13860210D02*
X6742301Y-13850686D01*
X6742301Y-13850686D02*
X6732777Y-13831638D01*
X6732777Y-13831638D02*
X6723253Y-13793543D01*
X6723253Y-13793543D02*
X6723253Y-13745924D01*
X6723253Y-13745924D02*
X6732777Y-13707829D01*
X6732777Y-13707829D02*
X6742301Y-13688781D01*
X6742301Y-13688781D02*
X6751824Y-13679258D01*
X6751824Y-13679258D02*
X6770872Y-13669734D01*
X6923253Y-13850686D02*
X6932777Y-13860210D01*
X6932777Y-13860210D02*
X6923253Y-13869734D01*
X6923253Y-13869734D02*
X6913729Y-13860210D01*
X6913729Y-13860210D02*
X6923253Y-13850686D01*
X6923253Y-13850686D02*
X6923253Y-13869734D01*
X7104205Y-13736400D02*
X7104205Y-13869734D01*
X7056586Y-13660210D02*
X7008967Y-13803067D01*
X7008967Y-13803067D02*
X7132777Y-13803067D01*
X7247062Y-13669734D02*
X7266110Y-13669734D01*
X7266110Y-13669734D02*
X7285158Y-13679258D01*
X7285158Y-13679258D02*
X7294682Y-13688781D01*
X7294682Y-13688781D02*
X7304205Y-13707829D01*
X7304205Y-13707829D02*
X7313729Y-13745924D01*
X7313729Y-13745924D02*
X7313729Y-13793543D01*
X7313729Y-13793543D02*
X7304205Y-13831638D01*
X7304205Y-13831638D02*
X7294682Y-13850686D01*
X7294682Y-13850686D02*
X7285158Y-13860210D01*
X7285158Y-13860210D02*
X7266110Y-13869734D01*
X7266110Y-13869734D02*
X7247062Y-13869734D01*
X7247062Y-13869734D02*
X7228015Y-13860210D01*
X7228015Y-13860210D02*
X7218491Y-13850686D01*
X7218491Y-13850686D02*
X7208967Y-13831638D01*
X7208967Y-13831638D02*
X7199443Y-13793543D01*
X7199443Y-13793543D02*
X7199443Y-13745924D01*
X7199443Y-13745924D02*
X7208967Y-13707829D01*
X7208967Y-13707829D02*
X7218491Y-13688781D01*
X7218491Y-13688781D02*
X7228015Y-13679258D01*
X7228015Y-13679258D02*
X7247062Y-13669734D01*
X7437539Y-13669734D02*
X7456586Y-13669734D01*
X7456586Y-13669734D02*
X7475634Y-13679258D01*
X7475634Y-13679258D02*
X7485158Y-13688781D01*
X7485158Y-13688781D02*
X7494682Y-13707829D01*
X7494682Y-13707829D02*
X7504205Y-13745924D01*
X7504205Y-13745924D02*
X7504205Y-13793543D01*
X7504205Y-13793543D02*
X7494682Y-13831638D01*
X7494682Y-13831638D02*
X7485158Y-13850686D01*
X7485158Y-13850686D02*
X7475634Y-13860210D01*
X7475634Y-13860210D02*
X7456586Y-13869734D01*
X7456586Y-13869734D02*
X7437539Y-13869734D01*
X7437539Y-13869734D02*
X7418491Y-13860210D01*
X7418491Y-13860210D02*
X7408967Y-13850686D01*
X7408967Y-13850686D02*
X7399443Y-13831638D01*
X7399443Y-13831638D02*
X7389920Y-13793543D01*
X7389920Y-13793543D02*
X7389920Y-13745924D01*
X7389920Y-13745924D02*
X7399443Y-13707829D01*
X7399443Y-13707829D02*
X7408967Y-13688781D01*
X7408967Y-13688781D02*
X7418491Y-13679258D01*
X7418491Y-13679258D02*
X7437539Y-13669734D01*
X7589920Y-13869734D02*
X7589920Y-13736400D01*
X7589920Y-13755448D02*
X7599443Y-13745924D01*
X7599443Y-13745924D02*
X7618491Y-13736400D01*
X7618491Y-13736400D02*
X7647063Y-13736400D01*
X7647063Y-13736400D02*
X7666110Y-13745924D01*
X7666110Y-13745924D02*
X7675634Y-13764972D01*
X7675634Y-13764972D02*
X7675634Y-13869734D01*
X7675634Y-13764972D02*
X7685158Y-13745924D01*
X7685158Y-13745924D02*
X7704205Y-13736400D01*
X7704205Y-13736400D02*
X7732777Y-13736400D01*
X7732777Y-13736400D02*
X7751824Y-13745924D01*
X7751824Y-13745924D02*
X7761348Y-13764972D01*
X7761348Y-13764972D02*
X7761348Y-13869734D01*
X7856586Y-13869734D02*
X7856586Y-13736400D01*
X7856586Y-13755448D02*
X7866110Y-13745924D01*
X7866110Y-13745924D02*
X7885158Y-13736400D01*
X7885158Y-13736400D02*
X7913729Y-13736400D01*
X7913729Y-13736400D02*
X7932777Y-13745924D01*
X7932777Y-13745924D02*
X7942301Y-13764972D01*
X7942301Y-13764972D02*
X7942301Y-13869734D01*
X7942301Y-13764972D02*
X7951824Y-13745924D01*
X7951824Y-13745924D02*
X7970872Y-13736400D01*
X7970872Y-13736400D02*
X7999443Y-13736400D01*
X7999443Y-13736400D02*
X8018491Y-13745924D01*
X8018491Y-13745924D02*
X8028015Y-13764972D01*
X8028015Y-13764972D02*
X8028015Y-13869734D01*
X8418491Y-13660210D02*
X8247063Y-13917353D01*
X8675634Y-13669734D02*
X8694682Y-13669734D01*
X8694682Y-13669734D02*
X8713729Y-13679258D01*
X8713729Y-13679258D02*
X8723253Y-13688781D01*
X8723253Y-13688781D02*
X8732777Y-13707829D01*
X8732777Y-13707829D02*
X8742301Y-13745924D01*
X8742301Y-13745924D02*
X8742301Y-13793543D01*
X8742301Y-13793543D02*
X8732777Y-13831638D01*
X8732777Y-13831638D02*
X8723253Y-13850686D01*
X8723253Y-13850686D02*
X8713729Y-13860210D01*
X8713729Y-13860210D02*
X8694682Y-13869734D01*
X8694682Y-13869734D02*
X8675634Y-13869734D01*
X8675634Y-13869734D02*
X8656587Y-13860210D01*
X8656587Y-13860210D02*
X8647063Y-13850686D01*
X8647063Y-13850686D02*
X8637539Y-13831638D01*
X8637539Y-13831638D02*
X8628015Y-13793543D01*
X8628015Y-13793543D02*
X8628015Y-13745924D01*
X8628015Y-13745924D02*
X8637539Y-13707829D01*
X8637539Y-13707829D02*
X8647063Y-13688781D01*
X8647063Y-13688781D02*
X8656587Y-13679258D01*
X8656587Y-13679258D02*
X8675634Y-13669734D01*
X8828015Y-13850686D02*
X8837539Y-13860210D01*
X8837539Y-13860210D02*
X8828015Y-13869734D01*
X8828015Y-13869734D02*
X8818491Y-13860210D01*
X8818491Y-13860210D02*
X8828015Y-13850686D01*
X8828015Y-13850686D02*
X8828015Y-13869734D01*
X8961348Y-13669734D02*
X8980396Y-13669734D01*
X8980396Y-13669734D02*
X8999444Y-13679258D01*
X8999444Y-13679258D02*
X9008968Y-13688781D01*
X9008968Y-13688781D02*
X9018491Y-13707829D01*
X9018491Y-13707829D02*
X9028015Y-13745924D01*
X9028015Y-13745924D02*
X9028015Y-13793543D01*
X9028015Y-13793543D02*
X9018491Y-13831638D01*
X9018491Y-13831638D02*
X9008968Y-13850686D01*
X9008968Y-13850686D02*
X8999444Y-13860210D01*
X8999444Y-13860210D02*
X8980396Y-13869734D01*
X8980396Y-13869734D02*
X8961348Y-13869734D01*
X8961348Y-13869734D02*
X8942301Y-13860210D01*
X8942301Y-13860210D02*
X8932777Y-13850686D01*
X8932777Y-13850686D02*
X8923253Y-13831638D01*
X8923253Y-13831638D02*
X8913729Y-13793543D01*
X8913729Y-13793543D02*
X8913729Y-13745924D01*
X8913729Y-13745924D02*
X8923253Y-13707829D01*
X8923253Y-13707829D02*
X8932777Y-13688781D01*
X8932777Y-13688781D02*
X8942301Y-13679258D01*
X8942301Y-13679258D02*
X8961348Y-13669734D01*
X9218491Y-13869734D02*
X9104206Y-13869734D01*
X9161348Y-13869734D02*
X9161348Y-13669734D01*
X9161348Y-13669734D02*
X9142301Y-13698305D01*
X9142301Y-13698305D02*
X9123253Y-13717353D01*
X9123253Y-13717353D02*
X9104206Y-13726877D01*
X9399444Y-13669734D02*
X9304206Y-13669734D01*
X9304206Y-13669734D02*
X9294682Y-13764972D01*
X9294682Y-13764972D02*
X9304206Y-13755448D01*
X9304206Y-13755448D02*
X9323253Y-13745924D01*
X9323253Y-13745924D02*
X9370872Y-13745924D01*
X9370872Y-13745924D02*
X9389920Y-13755448D01*
X9389920Y-13755448D02*
X9399444Y-13764972D01*
X9399444Y-13764972D02*
X9408968Y-13784019D01*
X9408968Y-13784019D02*
X9408968Y-13831638D01*
X9408968Y-13831638D02*
X9399444Y-13850686D01*
X9399444Y-13850686D02*
X9389920Y-13860210D01*
X9389920Y-13860210D02*
X9370872Y-13869734D01*
X9370872Y-13869734D02*
X9323253Y-13869734D01*
X9323253Y-13869734D02*
X9304206Y-13860210D01*
X9304206Y-13860210D02*
X9294682Y-13850686D01*
X9475634Y-13669734D02*
X9608968Y-13669734D01*
X9608968Y-13669734D02*
X9523253Y-13869734D01*
X9675634Y-13669734D02*
X9675634Y-13707829D01*
X9751825Y-13669734D02*
X9751825Y-13707829D01*
X10047063Y-13945924D02*
X10037539Y-13936400D01*
X10037539Y-13936400D02*
X10018491Y-13907829D01*
X10018491Y-13907829D02*
X10008968Y-13888781D01*
X10008968Y-13888781D02*
X9999444Y-13860210D01*
X9999444Y-13860210D02*
X9989920Y-13812591D01*
X9989920Y-13812591D02*
X9989920Y-13774496D01*
X9989920Y-13774496D02*
X9999444Y-13726877D01*
X9999444Y-13726877D02*
X10008968Y-13698305D01*
X10008968Y-13698305D02*
X10018491Y-13679258D01*
X10018491Y-13679258D02*
X10037539Y-13650686D01*
X10037539Y-13650686D02*
X10047063Y-13641162D01*
X10218491Y-13669734D02*
X10123253Y-13669734D01*
X10123253Y-13669734D02*
X10113730Y-13764972D01*
X10113730Y-13764972D02*
X10123253Y-13755448D01*
X10123253Y-13755448D02*
X10142301Y-13745924D01*
X10142301Y-13745924D02*
X10189920Y-13745924D01*
X10189920Y-13745924D02*
X10208968Y-13755448D01*
X10208968Y-13755448D02*
X10218491Y-13764972D01*
X10218491Y-13764972D02*
X10228015Y-13784019D01*
X10228015Y-13784019D02*
X10228015Y-13831638D01*
X10228015Y-13831638D02*
X10218491Y-13850686D01*
X10218491Y-13850686D02*
X10208968Y-13860210D01*
X10208968Y-13860210D02*
X10189920Y-13869734D01*
X10189920Y-13869734D02*
X10142301Y-13869734D01*
X10142301Y-13869734D02*
X10123253Y-13860210D01*
X10123253Y-13860210D02*
X10113730Y-13850686D01*
X10294682Y-13669734D02*
X10418491Y-13669734D01*
X10418491Y-13669734D02*
X10351825Y-13745924D01*
X10351825Y-13745924D02*
X10380396Y-13745924D01*
X10380396Y-13745924D02*
X10399444Y-13755448D01*
X10399444Y-13755448D02*
X10408968Y-13764972D01*
X10408968Y-13764972D02*
X10418491Y-13784019D01*
X10418491Y-13784019D02*
X10418491Y-13831638D01*
X10418491Y-13831638D02*
X10408968Y-13850686D01*
X10408968Y-13850686D02*
X10399444Y-13860210D01*
X10399444Y-13860210D02*
X10380396Y-13869734D01*
X10380396Y-13869734D02*
X10323253Y-13869734D01*
X10323253Y-13869734D02*
X10304206Y-13860210D01*
X10304206Y-13860210D02*
X10294682Y-13850686D01*
X10656587Y-13869734D02*
X10656587Y-13669734D01*
X10742301Y-13869734D02*
X10742301Y-13764972D01*
X10742301Y-13764972D02*
X10732777Y-13745924D01*
X10732777Y-13745924D02*
X10713730Y-13736400D01*
X10713730Y-13736400D02*
X10685158Y-13736400D01*
X10685158Y-13736400D02*
X10666111Y-13745924D01*
X10666111Y-13745924D02*
X10656587Y-13755448D01*
X10866111Y-13869734D02*
X10847063Y-13860210D01*
X10847063Y-13860210D02*
X10837539Y-13850686D01*
X10837539Y-13850686D02*
X10828015Y-13831638D01*
X10828015Y-13831638D02*
X10828015Y-13774496D01*
X10828015Y-13774496D02*
X10837539Y-13755448D01*
X10837539Y-13755448D02*
X10847063Y-13745924D01*
X10847063Y-13745924D02*
X10866111Y-13736400D01*
X10866111Y-13736400D02*
X10894682Y-13736400D01*
X10894682Y-13736400D02*
X10913730Y-13745924D01*
X10913730Y-13745924D02*
X10923253Y-13755448D01*
X10923253Y-13755448D02*
X10932777Y-13774496D01*
X10932777Y-13774496D02*
X10932777Y-13831638D01*
X10932777Y-13831638D02*
X10923253Y-13850686D01*
X10923253Y-13850686D02*
X10913730Y-13860210D01*
X10913730Y-13860210D02*
X10894682Y-13869734D01*
X10894682Y-13869734D02*
X10866111Y-13869734D01*
X11047063Y-13869734D02*
X11028015Y-13860210D01*
X11028015Y-13860210D02*
X11018492Y-13841162D01*
X11018492Y-13841162D02*
X11018492Y-13669734D01*
X11199444Y-13860210D02*
X11180396Y-13869734D01*
X11180396Y-13869734D02*
X11142301Y-13869734D01*
X11142301Y-13869734D02*
X11123253Y-13860210D01*
X11123253Y-13860210D02*
X11113730Y-13841162D01*
X11113730Y-13841162D02*
X11113730Y-13764972D01*
X11113730Y-13764972D02*
X11123253Y-13745924D01*
X11123253Y-13745924D02*
X11142301Y-13736400D01*
X11142301Y-13736400D02*
X11180396Y-13736400D01*
X11180396Y-13736400D02*
X11199444Y-13745924D01*
X11199444Y-13745924D02*
X11208968Y-13764972D01*
X11208968Y-13764972D02*
X11208968Y-13784019D01*
X11208968Y-13784019D02*
X11113730Y-13803067D01*
X11285158Y-13860210D02*
X11304206Y-13869734D01*
X11304206Y-13869734D02*
X11342301Y-13869734D01*
X11342301Y-13869734D02*
X11361349Y-13860210D01*
X11361349Y-13860210D02*
X11370872Y-13841162D01*
X11370872Y-13841162D02*
X11370872Y-13831638D01*
X11370872Y-13831638D02*
X11361349Y-13812591D01*
X11361349Y-13812591D02*
X11342301Y-13803067D01*
X11342301Y-13803067D02*
X11313730Y-13803067D01*
X11313730Y-13803067D02*
X11294682Y-13793543D01*
X11294682Y-13793543D02*
X11285158Y-13774496D01*
X11285158Y-13774496D02*
X11285158Y-13764972D01*
X11285158Y-13764972D02*
X11294682Y-13745924D01*
X11294682Y-13745924D02*
X11313730Y-13736400D01*
X11313730Y-13736400D02*
X11342301Y-13736400D01*
X11342301Y-13736400D02*
X11361349Y-13745924D01*
X11437539Y-13945924D02*
X11447063Y-13936400D01*
X11447063Y-13936400D02*
X11466111Y-13907829D01*
X11466111Y-13907829D02*
X11475634Y-13888781D01*
X11475634Y-13888781D02*
X11485158Y-13860210D01*
X11485158Y-13860210D02*
X11494682Y-13812591D01*
X11494682Y-13812591D02*
X11494682Y-13774496D01*
X11494682Y-13774496D02*
X11485158Y-13726877D01*
X11485158Y-13726877D02*
X11475634Y-13698305D01*
X11475634Y-13698305D02*
X11466111Y-13679258D01*
X11466111Y-13679258D02*
X11447063Y-13650686D01*
X11447063Y-13650686D02*
X11437539Y-13641162D01*
D10*
X6472000Y-14042250D02*
G75*
G03*
X6472000Y-14042250I-27500J0D01*
G01*
D11*
X6770872Y-13933734D02*
X6789920Y-13933734D01*
X6789920Y-13933734D02*
X6808967Y-13943258D01*
X6808967Y-13943258D02*
X6818491Y-13952781D01*
X6818491Y-13952781D02*
X6828015Y-13971829D01*
X6828015Y-13971829D02*
X6837539Y-14009924D01*
X6837539Y-14009924D02*
X6837539Y-14057543D01*
X6837539Y-14057543D02*
X6828015Y-14095638D01*
X6828015Y-14095638D02*
X6818491Y-14114686D01*
X6818491Y-14114686D02*
X6808967Y-14124210D01*
X6808967Y-14124210D02*
X6789920Y-14133734D01*
X6789920Y-14133734D02*
X6770872Y-14133734D01*
X6770872Y-14133734D02*
X6751824Y-14124210D01*
X6751824Y-14124210D02*
X6742301Y-14114686D01*
X6742301Y-14114686D02*
X6732777Y-14095638D01*
X6732777Y-14095638D02*
X6723253Y-14057543D01*
X6723253Y-14057543D02*
X6723253Y-14009924D01*
X6723253Y-14009924D02*
X6732777Y-13971829D01*
X6732777Y-13971829D02*
X6742301Y-13952781D01*
X6742301Y-13952781D02*
X6751824Y-13943258D01*
X6751824Y-13943258D02*
X6770872Y-13933734D01*
X6923253Y-14114686D02*
X6932777Y-14124210D01*
X6932777Y-14124210D02*
X6923253Y-14133734D01*
X6923253Y-14133734D02*
X6913729Y-14124210D01*
X6913729Y-14124210D02*
X6923253Y-14114686D01*
X6923253Y-14114686D02*
X6923253Y-14133734D01*
X7113729Y-13933734D02*
X7018491Y-13933734D01*
X7018491Y-13933734D02*
X7008967Y-14028972D01*
X7008967Y-14028972D02*
X7018491Y-14019448D01*
X7018491Y-14019448D02*
X7037539Y-14009924D01*
X7037539Y-14009924D02*
X7085158Y-14009924D01*
X7085158Y-14009924D02*
X7104205Y-14019448D01*
X7104205Y-14019448D02*
X7113729Y-14028972D01*
X7113729Y-14028972D02*
X7123253Y-14048019D01*
X7123253Y-14048019D02*
X7123253Y-14095638D01*
X7123253Y-14095638D02*
X7113729Y-14114686D01*
X7113729Y-14114686D02*
X7104205Y-14124210D01*
X7104205Y-14124210D02*
X7085158Y-14133734D01*
X7085158Y-14133734D02*
X7037539Y-14133734D01*
X7037539Y-14133734D02*
X7018491Y-14124210D01*
X7018491Y-14124210D02*
X7008967Y-14114686D01*
X7304205Y-13933734D02*
X7208967Y-13933734D01*
X7208967Y-13933734D02*
X7199443Y-14028972D01*
X7199443Y-14028972D02*
X7208967Y-14019448D01*
X7208967Y-14019448D02*
X7228015Y-14009924D01*
X7228015Y-14009924D02*
X7275634Y-14009924D01*
X7275634Y-14009924D02*
X7294682Y-14019448D01*
X7294682Y-14019448D02*
X7304205Y-14028972D01*
X7304205Y-14028972D02*
X7313729Y-14048019D01*
X7313729Y-14048019D02*
X7313729Y-14095638D01*
X7313729Y-14095638D02*
X7304205Y-14114686D01*
X7304205Y-14114686D02*
X7294682Y-14124210D01*
X7294682Y-14124210D02*
X7275634Y-14133734D01*
X7275634Y-14133734D02*
X7228015Y-14133734D01*
X7228015Y-14133734D02*
X7208967Y-14124210D01*
X7208967Y-14124210D02*
X7199443Y-14114686D01*
X7437539Y-13933734D02*
X7456586Y-13933734D01*
X7456586Y-13933734D02*
X7475634Y-13943258D01*
X7475634Y-13943258D02*
X7485158Y-13952781D01*
X7485158Y-13952781D02*
X7494682Y-13971829D01*
X7494682Y-13971829D02*
X7504205Y-14009924D01*
X7504205Y-14009924D02*
X7504205Y-14057543D01*
X7504205Y-14057543D02*
X7494682Y-14095638D01*
X7494682Y-14095638D02*
X7485158Y-14114686D01*
X7485158Y-14114686D02*
X7475634Y-14124210D01*
X7475634Y-14124210D02*
X7456586Y-14133734D01*
X7456586Y-14133734D02*
X7437539Y-14133734D01*
X7437539Y-14133734D02*
X7418491Y-14124210D01*
X7418491Y-14124210D02*
X7408967Y-14114686D01*
X7408967Y-14114686D02*
X7399443Y-14095638D01*
X7399443Y-14095638D02*
X7389920Y-14057543D01*
X7389920Y-14057543D02*
X7389920Y-14009924D01*
X7389920Y-14009924D02*
X7399443Y-13971829D01*
X7399443Y-13971829D02*
X7408967Y-13952781D01*
X7408967Y-13952781D02*
X7418491Y-13943258D01*
X7418491Y-13943258D02*
X7437539Y-13933734D01*
X7589920Y-14133734D02*
X7589920Y-14000400D01*
X7589920Y-14019448D02*
X7599443Y-14009924D01*
X7599443Y-14009924D02*
X7618491Y-14000400D01*
X7618491Y-14000400D02*
X7647063Y-14000400D01*
X7647063Y-14000400D02*
X7666110Y-14009924D01*
X7666110Y-14009924D02*
X7675634Y-14028972D01*
X7675634Y-14028972D02*
X7675634Y-14133734D01*
X7675634Y-14028972D02*
X7685158Y-14009924D01*
X7685158Y-14009924D02*
X7704205Y-14000400D01*
X7704205Y-14000400D02*
X7732777Y-14000400D01*
X7732777Y-14000400D02*
X7751824Y-14009924D01*
X7751824Y-14009924D02*
X7761348Y-14028972D01*
X7761348Y-14028972D02*
X7761348Y-14133734D01*
X7856586Y-14133734D02*
X7856586Y-14000400D01*
X7856586Y-14019448D02*
X7866110Y-14009924D01*
X7866110Y-14009924D02*
X7885158Y-14000400D01*
X7885158Y-14000400D02*
X7913729Y-14000400D01*
X7913729Y-14000400D02*
X7932777Y-14009924D01*
X7932777Y-14009924D02*
X7942301Y-14028972D01*
X7942301Y-14028972D02*
X7942301Y-14133734D01*
X7942301Y-14028972D02*
X7951824Y-14009924D01*
X7951824Y-14009924D02*
X7970872Y-14000400D01*
X7970872Y-14000400D02*
X7999443Y-14000400D01*
X7999443Y-14000400D02*
X8018491Y-14009924D01*
X8018491Y-14009924D02*
X8028015Y-14028972D01*
X8028015Y-14028972D02*
X8028015Y-14133734D01*
X8418491Y-13924210D02*
X8247063Y-14181353D01*
X8675634Y-13933734D02*
X8694682Y-13933734D01*
X8694682Y-13933734D02*
X8713729Y-13943258D01*
X8713729Y-13943258D02*
X8723253Y-13952781D01*
X8723253Y-13952781D02*
X8732777Y-13971829D01*
X8732777Y-13971829D02*
X8742301Y-14009924D01*
X8742301Y-14009924D02*
X8742301Y-14057543D01*
X8742301Y-14057543D02*
X8732777Y-14095638D01*
X8732777Y-14095638D02*
X8723253Y-14114686D01*
X8723253Y-14114686D02*
X8713729Y-14124210D01*
X8713729Y-14124210D02*
X8694682Y-14133734D01*
X8694682Y-14133734D02*
X8675634Y-14133734D01*
X8675634Y-14133734D02*
X8656587Y-14124210D01*
X8656587Y-14124210D02*
X8647063Y-14114686D01*
X8647063Y-14114686D02*
X8637539Y-14095638D01*
X8637539Y-14095638D02*
X8628015Y-14057543D01*
X8628015Y-14057543D02*
X8628015Y-14009924D01*
X8628015Y-14009924D02*
X8637539Y-13971829D01*
X8637539Y-13971829D02*
X8647063Y-13952781D01*
X8647063Y-13952781D02*
X8656587Y-13943258D01*
X8656587Y-13943258D02*
X8675634Y-13933734D01*
X8828015Y-14114686D02*
X8837539Y-14124210D01*
X8837539Y-14124210D02*
X8828015Y-14133734D01*
X8828015Y-14133734D02*
X8818491Y-14124210D01*
X8818491Y-14124210D02*
X8828015Y-14114686D01*
X8828015Y-14114686D02*
X8828015Y-14133734D01*
X8961348Y-13933734D02*
X8980396Y-13933734D01*
X8980396Y-13933734D02*
X8999444Y-13943258D01*
X8999444Y-13943258D02*
X9008968Y-13952781D01*
X9008968Y-13952781D02*
X9018491Y-13971829D01*
X9018491Y-13971829D02*
X9028015Y-14009924D01*
X9028015Y-14009924D02*
X9028015Y-14057543D01*
X9028015Y-14057543D02*
X9018491Y-14095638D01*
X9018491Y-14095638D02*
X9008968Y-14114686D01*
X9008968Y-14114686D02*
X8999444Y-14124210D01*
X8999444Y-14124210D02*
X8980396Y-14133734D01*
X8980396Y-14133734D02*
X8961348Y-14133734D01*
X8961348Y-14133734D02*
X8942301Y-14124210D01*
X8942301Y-14124210D02*
X8932777Y-14114686D01*
X8932777Y-14114686D02*
X8923253Y-14095638D01*
X8923253Y-14095638D02*
X8913729Y-14057543D01*
X8913729Y-14057543D02*
X8913729Y-14009924D01*
X8913729Y-14009924D02*
X8923253Y-13971829D01*
X8923253Y-13971829D02*
X8932777Y-13952781D01*
X8932777Y-13952781D02*
X8942301Y-13943258D01*
X8942301Y-13943258D02*
X8961348Y-13933734D01*
X9104206Y-13952781D02*
X9113729Y-13943258D01*
X9113729Y-13943258D02*
X9132777Y-13933734D01*
X9132777Y-13933734D02*
X9180396Y-13933734D01*
X9180396Y-13933734D02*
X9199444Y-13943258D01*
X9199444Y-13943258D02*
X9208968Y-13952781D01*
X9208968Y-13952781D02*
X9218491Y-13971829D01*
X9218491Y-13971829D02*
X9218491Y-13990877D01*
X9218491Y-13990877D02*
X9208968Y-14019448D01*
X9208968Y-14019448D02*
X9094682Y-14133734D01*
X9094682Y-14133734D02*
X9218491Y-14133734D01*
X9408968Y-14133734D02*
X9294682Y-14133734D01*
X9351825Y-14133734D02*
X9351825Y-13933734D01*
X9351825Y-13933734D02*
X9332777Y-13962305D01*
X9332777Y-13962305D02*
X9313729Y-13981353D01*
X9313729Y-13981353D02*
X9294682Y-13990877D01*
X9475634Y-13933734D02*
X9608968Y-13933734D01*
X9608968Y-13933734D02*
X9523253Y-14133734D01*
X9675634Y-13933734D02*
X9675634Y-13971829D01*
X9751825Y-13933734D02*
X9751825Y-13971829D01*
X10047063Y-14209924D02*
X10037539Y-14200400D01*
X10037539Y-14200400D02*
X10018491Y-14171829D01*
X10018491Y-14171829D02*
X10008968Y-14152781D01*
X10008968Y-14152781D02*
X9999444Y-14124210D01*
X9999444Y-14124210D02*
X9989920Y-14076591D01*
X9989920Y-14076591D02*
X9989920Y-14038496D01*
X9989920Y-14038496D02*
X9999444Y-13990877D01*
X9999444Y-13990877D02*
X10008968Y-13962305D01*
X10008968Y-13962305D02*
X10018491Y-13943258D01*
X10018491Y-13943258D02*
X10037539Y-13914686D01*
X10037539Y-13914686D02*
X10047063Y-13905162D01*
X10113730Y-13952781D02*
X10123253Y-13943258D01*
X10123253Y-13943258D02*
X10142301Y-13933734D01*
X10142301Y-13933734D02*
X10189920Y-13933734D01*
X10189920Y-13933734D02*
X10208968Y-13943258D01*
X10208968Y-13943258D02*
X10218491Y-13952781D01*
X10218491Y-13952781D02*
X10228015Y-13971829D01*
X10228015Y-13971829D02*
X10228015Y-13990877D01*
X10228015Y-13990877D02*
X10218491Y-14019448D01*
X10218491Y-14019448D02*
X10104206Y-14133734D01*
X10104206Y-14133734D02*
X10228015Y-14133734D01*
X10466111Y-14133734D02*
X10466111Y-13933734D01*
X10551825Y-14133734D02*
X10551825Y-14028972D01*
X10551825Y-14028972D02*
X10542301Y-14009924D01*
X10542301Y-14009924D02*
X10523253Y-14000400D01*
X10523253Y-14000400D02*
X10494682Y-14000400D01*
X10494682Y-14000400D02*
X10475634Y-14009924D01*
X10475634Y-14009924D02*
X10466111Y-14019448D01*
X10675634Y-14133734D02*
X10656587Y-14124210D01*
X10656587Y-14124210D02*
X10647063Y-14114686D01*
X10647063Y-14114686D02*
X10637539Y-14095638D01*
X10637539Y-14095638D02*
X10637539Y-14038496D01*
X10637539Y-14038496D02*
X10647063Y-14019448D01*
X10647063Y-14019448D02*
X10656587Y-14009924D01*
X10656587Y-14009924D02*
X10675634Y-14000400D01*
X10675634Y-14000400D02*
X10704206Y-14000400D01*
X10704206Y-14000400D02*
X10723253Y-14009924D01*
X10723253Y-14009924D02*
X10732777Y-14019448D01*
X10732777Y-14019448D02*
X10742301Y-14038496D01*
X10742301Y-14038496D02*
X10742301Y-14095638D01*
X10742301Y-14095638D02*
X10732777Y-14114686D01*
X10732777Y-14114686D02*
X10723253Y-14124210D01*
X10723253Y-14124210D02*
X10704206Y-14133734D01*
X10704206Y-14133734D02*
X10675634Y-14133734D01*
X10856587Y-14133734D02*
X10837539Y-14124210D01*
X10837539Y-14124210D02*
X10828015Y-14105162D01*
X10828015Y-14105162D02*
X10828015Y-13933734D01*
X11008968Y-14124210D02*
X10989920Y-14133734D01*
X10989920Y-14133734D02*
X10951825Y-14133734D01*
X10951825Y-14133734D02*
X10932777Y-14124210D01*
X10932777Y-14124210D02*
X10923253Y-14105162D01*
X10923253Y-14105162D02*
X10923253Y-14028972D01*
X10923253Y-14028972D02*
X10932777Y-14009924D01*
X10932777Y-14009924D02*
X10951825Y-14000400D01*
X10951825Y-14000400D02*
X10989920Y-14000400D01*
X10989920Y-14000400D02*
X11008968Y-14009924D01*
X11008968Y-14009924D02*
X11018492Y-14028972D01*
X11018492Y-14028972D02*
X11018492Y-14048019D01*
X11018492Y-14048019D02*
X10923253Y-14067067D01*
X11094682Y-14124210D02*
X11113730Y-14133734D01*
X11113730Y-14133734D02*
X11151825Y-14133734D01*
X11151825Y-14133734D02*
X11170873Y-14124210D01*
X11170873Y-14124210D02*
X11180396Y-14105162D01*
X11180396Y-14105162D02*
X11180396Y-14095638D01*
X11180396Y-14095638D02*
X11170873Y-14076591D01*
X11170873Y-14076591D02*
X11151825Y-14067067D01*
X11151825Y-14067067D02*
X11123253Y-14067067D01*
X11123253Y-14067067D02*
X11104206Y-14057543D01*
X11104206Y-14057543D02*
X11094682Y-14038496D01*
X11094682Y-14038496D02*
X11094682Y-14028972D01*
X11094682Y-14028972D02*
X11104206Y-14009924D01*
X11104206Y-14009924D02*
X11123253Y-14000400D01*
X11123253Y-14000400D02*
X11151825Y-14000400D01*
X11151825Y-14000400D02*
X11170873Y-14009924D01*
X11247063Y-14209924D02*
X11256587Y-14200400D01*
X11256587Y-14200400D02*
X11275634Y-14171829D01*
X11275634Y-14171829D02*
X11285158Y-14152781D01*
X11285158Y-14152781D02*
X11294682Y-14124210D01*
X11294682Y-14124210D02*
X11304206Y-14076591D01*
X11304206Y-14076591D02*
X11304206Y-14038496D01*
X11304206Y-14038496D02*
X11294682Y-13990877D01*
X11294682Y-13990877D02*
X11285158Y-13962305D01*
X11285158Y-13962305D02*
X11275634Y-13943258D01*
X11275634Y-13943258D02*
X11256587Y-13914686D01*
X11256587Y-13914686D02*
X11247063Y-13905162D01*
D10*
X6437000Y-14271250D02*
X6437000Y-14341250D01*
X6402000Y-14306250D02*
X6472000Y-14306250D01*
D11*
X6770872Y-14197734D02*
X6789920Y-14197734D01*
X6789920Y-14197734D02*
X6808967Y-14207258D01*
X6808967Y-14207258D02*
X6818491Y-14216781D01*
X6818491Y-14216781D02*
X6828015Y-14235829D01*
X6828015Y-14235829D02*
X6837539Y-14273924D01*
X6837539Y-14273924D02*
X6837539Y-14321543D01*
X6837539Y-14321543D02*
X6828015Y-14359638D01*
X6828015Y-14359638D02*
X6818491Y-14378686D01*
X6818491Y-14378686D02*
X6808967Y-14388210D01*
X6808967Y-14388210D02*
X6789920Y-14397734D01*
X6789920Y-14397734D02*
X6770872Y-14397734D01*
X6770872Y-14397734D02*
X6751824Y-14388210D01*
X6751824Y-14388210D02*
X6742301Y-14378686D01*
X6742301Y-14378686D02*
X6732777Y-14359638D01*
X6732777Y-14359638D02*
X6723253Y-14321543D01*
X6723253Y-14321543D02*
X6723253Y-14273924D01*
X6723253Y-14273924D02*
X6732777Y-14235829D01*
X6732777Y-14235829D02*
X6742301Y-14216781D01*
X6742301Y-14216781D02*
X6751824Y-14207258D01*
X6751824Y-14207258D02*
X6770872Y-14197734D01*
X6923253Y-14378686D02*
X6932777Y-14388210D01*
X6932777Y-14388210D02*
X6923253Y-14397734D01*
X6923253Y-14397734D02*
X6913729Y-14388210D01*
X6913729Y-14388210D02*
X6923253Y-14378686D01*
X6923253Y-14378686D02*
X6923253Y-14397734D01*
X6999443Y-14197734D02*
X7132777Y-14197734D01*
X7132777Y-14197734D02*
X7047062Y-14397734D01*
X7247062Y-14197734D02*
X7266110Y-14197734D01*
X7266110Y-14197734D02*
X7285158Y-14207258D01*
X7285158Y-14207258D02*
X7294682Y-14216781D01*
X7294682Y-14216781D02*
X7304205Y-14235829D01*
X7304205Y-14235829D02*
X7313729Y-14273924D01*
X7313729Y-14273924D02*
X7313729Y-14321543D01*
X7313729Y-14321543D02*
X7304205Y-14359638D01*
X7304205Y-14359638D02*
X7294682Y-14378686D01*
X7294682Y-14378686D02*
X7285158Y-14388210D01*
X7285158Y-14388210D02*
X7266110Y-14397734D01*
X7266110Y-14397734D02*
X7247062Y-14397734D01*
X7247062Y-14397734D02*
X7228015Y-14388210D01*
X7228015Y-14388210D02*
X7218491Y-14378686D01*
X7218491Y-14378686D02*
X7208967Y-14359638D01*
X7208967Y-14359638D02*
X7199443Y-14321543D01*
X7199443Y-14321543D02*
X7199443Y-14273924D01*
X7199443Y-14273924D02*
X7208967Y-14235829D01*
X7208967Y-14235829D02*
X7218491Y-14216781D01*
X7218491Y-14216781D02*
X7228015Y-14207258D01*
X7228015Y-14207258D02*
X7247062Y-14197734D01*
X7437539Y-14197734D02*
X7456586Y-14197734D01*
X7456586Y-14197734D02*
X7475634Y-14207258D01*
X7475634Y-14207258D02*
X7485158Y-14216781D01*
X7485158Y-14216781D02*
X7494682Y-14235829D01*
X7494682Y-14235829D02*
X7504205Y-14273924D01*
X7504205Y-14273924D02*
X7504205Y-14321543D01*
X7504205Y-14321543D02*
X7494682Y-14359638D01*
X7494682Y-14359638D02*
X7485158Y-14378686D01*
X7485158Y-14378686D02*
X7475634Y-14388210D01*
X7475634Y-14388210D02*
X7456586Y-14397734D01*
X7456586Y-14397734D02*
X7437539Y-14397734D01*
X7437539Y-14397734D02*
X7418491Y-14388210D01*
X7418491Y-14388210D02*
X7408967Y-14378686D01*
X7408967Y-14378686D02*
X7399443Y-14359638D01*
X7399443Y-14359638D02*
X7389920Y-14321543D01*
X7389920Y-14321543D02*
X7389920Y-14273924D01*
X7389920Y-14273924D02*
X7399443Y-14235829D01*
X7399443Y-14235829D02*
X7408967Y-14216781D01*
X7408967Y-14216781D02*
X7418491Y-14207258D01*
X7418491Y-14207258D02*
X7437539Y-14197734D01*
X7589920Y-14397734D02*
X7589920Y-14264400D01*
X7589920Y-14283448D02*
X7599443Y-14273924D01*
X7599443Y-14273924D02*
X7618491Y-14264400D01*
X7618491Y-14264400D02*
X7647063Y-14264400D01*
X7647063Y-14264400D02*
X7666110Y-14273924D01*
X7666110Y-14273924D02*
X7675634Y-14292972D01*
X7675634Y-14292972D02*
X7675634Y-14397734D01*
X7675634Y-14292972D02*
X7685158Y-14273924D01*
X7685158Y-14273924D02*
X7704205Y-14264400D01*
X7704205Y-14264400D02*
X7732777Y-14264400D01*
X7732777Y-14264400D02*
X7751824Y-14273924D01*
X7751824Y-14273924D02*
X7761348Y-14292972D01*
X7761348Y-14292972D02*
X7761348Y-14397734D01*
X7856586Y-14397734D02*
X7856586Y-14264400D01*
X7856586Y-14283448D02*
X7866110Y-14273924D01*
X7866110Y-14273924D02*
X7885158Y-14264400D01*
X7885158Y-14264400D02*
X7913729Y-14264400D01*
X7913729Y-14264400D02*
X7932777Y-14273924D01*
X7932777Y-14273924D02*
X7942301Y-14292972D01*
X7942301Y-14292972D02*
X7942301Y-14397734D01*
X7942301Y-14292972D02*
X7951824Y-14273924D01*
X7951824Y-14273924D02*
X7970872Y-14264400D01*
X7970872Y-14264400D02*
X7999443Y-14264400D01*
X7999443Y-14264400D02*
X8018491Y-14273924D01*
X8018491Y-14273924D02*
X8028015Y-14292972D01*
X8028015Y-14292972D02*
X8028015Y-14397734D01*
X8418491Y-14188210D02*
X8247063Y-14445353D01*
X8675634Y-14197734D02*
X8694682Y-14197734D01*
X8694682Y-14197734D02*
X8713729Y-14207258D01*
X8713729Y-14207258D02*
X8723253Y-14216781D01*
X8723253Y-14216781D02*
X8732777Y-14235829D01*
X8732777Y-14235829D02*
X8742301Y-14273924D01*
X8742301Y-14273924D02*
X8742301Y-14321543D01*
X8742301Y-14321543D02*
X8732777Y-14359638D01*
X8732777Y-14359638D02*
X8723253Y-14378686D01*
X8723253Y-14378686D02*
X8713729Y-14388210D01*
X8713729Y-14388210D02*
X8694682Y-14397734D01*
X8694682Y-14397734D02*
X8675634Y-14397734D01*
X8675634Y-14397734D02*
X8656587Y-14388210D01*
X8656587Y-14388210D02*
X8647063Y-14378686D01*
X8647063Y-14378686D02*
X8637539Y-14359638D01*
X8637539Y-14359638D02*
X8628015Y-14321543D01*
X8628015Y-14321543D02*
X8628015Y-14273924D01*
X8628015Y-14273924D02*
X8637539Y-14235829D01*
X8637539Y-14235829D02*
X8647063Y-14216781D01*
X8647063Y-14216781D02*
X8656587Y-14207258D01*
X8656587Y-14207258D02*
X8675634Y-14197734D01*
X8828015Y-14378686D02*
X8837539Y-14388210D01*
X8837539Y-14388210D02*
X8828015Y-14397734D01*
X8828015Y-14397734D02*
X8818491Y-14388210D01*
X8818491Y-14388210D02*
X8828015Y-14378686D01*
X8828015Y-14378686D02*
X8828015Y-14397734D01*
X8961348Y-14197734D02*
X8980396Y-14197734D01*
X8980396Y-14197734D02*
X8999444Y-14207258D01*
X8999444Y-14207258D02*
X9008968Y-14216781D01*
X9008968Y-14216781D02*
X9018491Y-14235829D01*
X9018491Y-14235829D02*
X9028015Y-14273924D01*
X9028015Y-14273924D02*
X9028015Y-14321543D01*
X9028015Y-14321543D02*
X9018491Y-14359638D01*
X9018491Y-14359638D02*
X9008968Y-14378686D01*
X9008968Y-14378686D02*
X8999444Y-14388210D01*
X8999444Y-14388210D02*
X8980396Y-14397734D01*
X8980396Y-14397734D02*
X8961348Y-14397734D01*
X8961348Y-14397734D02*
X8942301Y-14388210D01*
X8942301Y-14388210D02*
X8932777Y-14378686D01*
X8932777Y-14378686D02*
X8923253Y-14359638D01*
X8923253Y-14359638D02*
X8913729Y-14321543D01*
X8913729Y-14321543D02*
X8913729Y-14273924D01*
X8913729Y-14273924D02*
X8923253Y-14235829D01*
X8923253Y-14235829D02*
X8932777Y-14216781D01*
X8932777Y-14216781D02*
X8942301Y-14207258D01*
X8942301Y-14207258D02*
X8961348Y-14197734D01*
X9104206Y-14216781D02*
X9113729Y-14207258D01*
X9113729Y-14207258D02*
X9132777Y-14197734D01*
X9132777Y-14197734D02*
X9180396Y-14197734D01*
X9180396Y-14197734D02*
X9199444Y-14207258D01*
X9199444Y-14207258D02*
X9208968Y-14216781D01*
X9208968Y-14216781D02*
X9218491Y-14235829D01*
X9218491Y-14235829D02*
X9218491Y-14254877D01*
X9218491Y-14254877D02*
X9208968Y-14283448D01*
X9208968Y-14283448D02*
X9094682Y-14397734D01*
X9094682Y-14397734D02*
X9218491Y-14397734D01*
X9285158Y-14197734D02*
X9418491Y-14197734D01*
X9418491Y-14197734D02*
X9332777Y-14397734D01*
X9580396Y-14197734D02*
X9542301Y-14197734D01*
X9542301Y-14197734D02*
X9523253Y-14207258D01*
X9523253Y-14207258D02*
X9513729Y-14216781D01*
X9513729Y-14216781D02*
X9494682Y-14245353D01*
X9494682Y-14245353D02*
X9485158Y-14283448D01*
X9485158Y-14283448D02*
X9485158Y-14359638D01*
X9485158Y-14359638D02*
X9494682Y-14378686D01*
X9494682Y-14378686D02*
X9504206Y-14388210D01*
X9504206Y-14388210D02*
X9523253Y-14397734D01*
X9523253Y-14397734D02*
X9561349Y-14397734D01*
X9561349Y-14397734D02*
X9580396Y-14388210D01*
X9580396Y-14388210D02*
X9589920Y-14378686D01*
X9589920Y-14378686D02*
X9599444Y-14359638D01*
X9599444Y-14359638D02*
X9599444Y-14312019D01*
X9599444Y-14312019D02*
X9589920Y-14292972D01*
X9589920Y-14292972D02*
X9580396Y-14283448D01*
X9580396Y-14283448D02*
X9561349Y-14273924D01*
X9561349Y-14273924D02*
X9523253Y-14273924D01*
X9523253Y-14273924D02*
X9504206Y-14283448D01*
X9504206Y-14283448D02*
X9494682Y-14292972D01*
X9494682Y-14292972D02*
X9485158Y-14312019D01*
X9675634Y-14197734D02*
X9675634Y-14235829D01*
X9751825Y-14197734D02*
X9751825Y-14235829D01*
X10047063Y-14473924D02*
X10037539Y-14464400D01*
X10037539Y-14464400D02*
X10018491Y-14435829D01*
X10018491Y-14435829D02*
X10008968Y-14416781D01*
X10008968Y-14416781D02*
X9999444Y-14388210D01*
X9999444Y-14388210D02*
X9989920Y-14340591D01*
X9989920Y-14340591D02*
X9989920Y-14302496D01*
X9989920Y-14302496D02*
X9999444Y-14254877D01*
X9999444Y-14254877D02*
X10008968Y-14226305D01*
X10008968Y-14226305D02*
X10018491Y-14207258D01*
X10018491Y-14207258D02*
X10037539Y-14178686D01*
X10037539Y-14178686D02*
X10047063Y-14169162D01*
X10208968Y-14197734D02*
X10170872Y-14197734D01*
X10170872Y-14197734D02*
X10151825Y-14207258D01*
X10151825Y-14207258D02*
X10142301Y-14216781D01*
X10142301Y-14216781D02*
X10123253Y-14245353D01*
X10123253Y-14245353D02*
X10113730Y-14283448D01*
X10113730Y-14283448D02*
X10113730Y-14359638D01*
X10113730Y-14359638D02*
X10123253Y-14378686D01*
X10123253Y-14378686D02*
X10132777Y-14388210D01*
X10132777Y-14388210D02*
X10151825Y-14397734D01*
X10151825Y-14397734D02*
X10189920Y-14397734D01*
X10189920Y-14397734D02*
X10208968Y-14388210D01*
X10208968Y-14388210D02*
X10218491Y-14378686D01*
X10218491Y-14378686D02*
X10228015Y-14359638D01*
X10228015Y-14359638D02*
X10228015Y-14312019D01*
X10228015Y-14312019D02*
X10218491Y-14292972D01*
X10218491Y-14292972D02*
X10208968Y-14283448D01*
X10208968Y-14283448D02*
X10189920Y-14273924D01*
X10189920Y-14273924D02*
X10151825Y-14273924D01*
X10151825Y-14273924D02*
X10132777Y-14283448D01*
X10132777Y-14283448D02*
X10123253Y-14292972D01*
X10123253Y-14292972D02*
X10113730Y-14312019D01*
X10304206Y-14216781D02*
X10313730Y-14207258D01*
X10313730Y-14207258D02*
X10332777Y-14197734D01*
X10332777Y-14197734D02*
X10380396Y-14197734D01*
X10380396Y-14197734D02*
X10399444Y-14207258D01*
X10399444Y-14207258D02*
X10408968Y-14216781D01*
X10408968Y-14216781D02*
X10418491Y-14235829D01*
X10418491Y-14235829D02*
X10418491Y-14254877D01*
X10418491Y-14254877D02*
X10408968Y-14283448D01*
X10408968Y-14283448D02*
X10294682Y-14397734D01*
X10294682Y-14397734D02*
X10418491Y-14397734D01*
X10656587Y-14397734D02*
X10656587Y-14197734D01*
X10742301Y-14397734D02*
X10742301Y-14292972D01*
X10742301Y-14292972D02*
X10732777Y-14273924D01*
X10732777Y-14273924D02*
X10713730Y-14264400D01*
X10713730Y-14264400D02*
X10685158Y-14264400D01*
X10685158Y-14264400D02*
X10666111Y-14273924D01*
X10666111Y-14273924D02*
X10656587Y-14283448D01*
X10866111Y-14397734D02*
X10847063Y-14388210D01*
X10847063Y-14388210D02*
X10837539Y-14378686D01*
X10837539Y-14378686D02*
X10828015Y-14359638D01*
X10828015Y-14359638D02*
X10828015Y-14302496D01*
X10828015Y-14302496D02*
X10837539Y-14283448D01*
X10837539Y-14283448D02*
X10847063Y-14273924D01*
X10847063Y-14273924D02*
X10866111Y-14264400D01*
X10866111Y-14264400D02*
X10894682Y-14264400D01*
X10894682Y-14264400D02*
X10913730Y-14273924D01*
X10913730Y-14273924D02*
X10923253Y-14283448D01*
X10923253Y-14283448D02*
X10932777Y-14302496D01*
X10932777Y-14302496D02*
X10932777Y-14359638D01*
X10932777Y-14359638D02*
X10923253Y-14378686D01*
X10923253Y-14378686D02*
X10913730Y-14388210D01*
X10913730Y-14388210D02*
X10894682Y-14397734D01*
X10894682Y-14397734D02*
X10866111Y-14397734D01*
X11047063Y-14397734D02*
X11028015Y-14388210D01*
X11028015Y-14388210D02*
X11018492Y-14369162D01*
X11018492Y-14369162D02*
X11018492Y-14197734D01*
X11199444Y-14388210D02*
X11180396Y-14397734D01*
X11180396Y-14397734D02*
X11142301Y-14397734D01*
X11142301Y-14397734D02*
X11123253Y-14388210D01*
X11123253Y-14388210D02*
X11113730Y-14369162D01*
X11113730Y-14369162D02*
X11113730Y-14292972D01*
X11113730Y-14292972D02*
X11123253Y-14273924D01*
X11123253Y-14273924D02*
X11142301Y-14264400D01*
X11142301Y-14264400D02*
X11180396Y-14264400D01*
X11180396Y-14264400D02*
X11199444Y-14273924D01*
X11199444Y-14273924D02*
X11208968Y-14292972D01*
X11208968Y-14292972D02*
X11208968Y-14312019D01*
X11208968Y-14312019D02*
X11113730Y-14331067D01*
X11285158Y-14388210D02*
X11304206Y-14397734D01*
X11304206Y-14397734D02*
X11342301Y-14397734D01*
X11342301Y-14397734D02*
X11361349Y-14388210D01*
X11361349Y-14388210D02*
X11370872Y-14369162D01*
X11370872Y-14369162D02*
X11370872Y-14359638D01*
X11370872Y-14359638D02*
X11361349Y-14340591D01*
X11361349Y-14340591D02*
X11342301Y-14331067D01*
X11342301Y-14331067D02*
X11313730Y-14331067D01*
X11313730Y-14331067D02*
X11294682Y-14321543D01*
X11294682Y-14321543D02*
X11285158Y-14302496D01*
X11285158Y-14302496D02*
X11285158Y-14292972D01*
X11285158Y-14292972D02*
X11294682Y-14273924D01*
X11294682Y-14273924D02*
X11313730Y-14264400D01*
X11313730Y-14264400D02*
X11342301Y-14264400D01*
X11342301Y-14264400D02*
X11361349Y-14273924D01*
X11437539Y-14473924D02*
X11447063Y-14464400D01*
X11447063Y-14464400D02*
X11466111Y-14435829D01*
X11466111Y-14435829D02*
X11475634Y-14416781D01*
X11475634Y-14416781D02*
X11485158Y-14388210D01*
X11485158Y-14388210D02*
X11494682Y-14340591D01*
X11494682Y-14340591D02*
X11494682Y-14302496D01*
X11494682Y-14302496D02*
X11485158Y-14254877D01*
X11485158Y-14254877D02*
X11475634Y-14226305D01*
X11475634Y-14226305D02*
X11466111Y-14207258D01*
X11466111Y-14207258D02*
X11447063Y-14178686D01*
X11447063Y-14178686D02*
X11437539Y-14169162D01*
D10*
X6461017Y-14596767D02*
X6461017Y-14543733D01*
X6407983Y-14543733D01*
X6407983Y-14596767D01*
X6461017Y-14596767D01*
D11*
X6770872Y-14461734D02*
X6789920Y-14461734D01*
X6789920Y-14461734D02*
X6808967Y-14471258D01*
X6808967Y-14471258D02*
X6818491Y-14480781D01*
X6818491Y-14480781D02*
X6828015Y-14499829D01*
X6828015Y-14499829D02*
X6837539Y-14537924D01*
X6837539Y-14537924D02*
X6837539Y-14585543D01*
X6837539Y-14585543D02*
X6828015Y-14623638D01*
X6828015Y-14623638D02*
X6818491Y-14642686D01*
X6818491Y-14642686D02*
X6808967Y-14652210D01*
X6808967Y-14652210D02*
X6789920Y-14661734D01*
X6789920Y-14661734D02*
X6770872Y-14661734D01*
X6770872Y-14661734D02*
X6751824Y-14652210D01*
X6751824Y-14652210D02*
X6742301Y-14642686D01*
X6742301Y-14642686D02*
X6732777Y-14623638D01*
X6732777Y-14623638D02*
X6723253Y-14585543D01*
X6723253Y-14585543D02*
X6723253Y-14537924D01*
X6723253Y-14537924D02*
X6732777Y-14499829D01*
X6732777Y-14499829D02*
X6742301Y-14480781D01*
X6742301Y-14480781D02*
X6751824Y-14471258D01*
X6751824Y-14471258D02*
X6770872Y-14461734D01*
X6923253Y-14642686D02*
X6932777Y-14652210D01*
X6932777Y-14652210D02*
X6923253Y-14661734D01*
X6923253Y-14661734D02*
X6913729Y-14652210D01*
X6913729Y-14652210D02*
X6923253Y-14642686D01*
X6923253Y-14642686D02*
X6923253Y-14661734D01*
X6999443Y-14461734D02*
X7132777Y-14461734D01*
X7132777Y-14461734D02*
X7047062Y-14661734D01*
X7304205Y-14461734D02*
X7208967Y-14461734D01*
X7208967Y-14461734D02*
X7199443Y-14556972D01*
X7199443Y-14556972D02*
X7208967Y-14547448D01*
X7208967Y-14547448D02*
X7228015Y-14537924D01*
X7228015Y-14537924D02*
X7275634Y-14537924D01*
X7275634Y-14537924D02*
X7294682Y-14547448D01*
X7294682Y-14547448D02*
X7304205Y-14556972D01*
X7304205Y-14556972D02*
X7313729Y-14576019D01*
X7313729Y-14576019D02*
X7313729Y-14623638D01*
X7313729Y-14623638D02*
X7304205Y-14642686D01*
X7304205Y-14642686D02*
X7294682Y-14652210D01*
X7294682Y-14652210D02*
X7275634Y-14661734D01*
X7275634Y-14661734D02*
X7228015Y-14661734D01*
X7228015Y-14661734D02*
X7208967Y-14652210D01*
X7208967Y-14652210D02*
X7199443Y-14642686D01*
X7437539Y-14461734D02*
X7456586Y-14461734D01*
X7456586Y-14461734D02*
X7475634Y-14471258D01*
X7475634Y-14471258D02*
X7485158Y-14480781D01*
X7485158Y-14480781D02*
X7494682Y-14499829D01*
X7494682Y-14499829D02*
X7504205Y-14537924D01*
X7504205Y-14537924D02*
X7504205Y-14585543D01*
X7504205Y-14585543D02*
X7494682Y-14623638D01*
X7494682Y-14623638D02*
X7485158Y-14642686D01*
X7485158Y-14642686D02*
X7475634Y-14652210D01*
X7475634Y-14652210D02*
X7456586Y-14661734D01*
X7456586Y-14661734D02*
X7437539Y-14661734D01*
X7437539Y-14661734D02*
X7418491Y-14652210D01*
X7418491Y-14652210D02*
X7408967Y-14642686D01*
X7408967Y-14642686D02*
X7399443Y-14623638D01*
X7399443Y-14623638D02*
X7389920Y-14585543D01*
X7389920Y-14585543D02*
X7389920Y-14537924D01*
X7389920Y-14537924D02*
X7399443Y-14499829D01*
X7399443Y-14499829D02*
X7408967Y-14480781D01*
X7408967Y-14480781D02*
X7418491Y-14471258D01*
X7418491Y-14471258D02*
X7437539Y-14461734D01*
X7589920Y-14661734D02*
X7589920Y-14528400D01*
X7589920Y-14547448D02*
X7599443Y-14537924D01*
X7599443Y-14537924D02*
X7618491Y-14528400D01*
X7618491Y-14528400D02*
X7647063Y-14528400D01*
X7647063Y-14528400D02*
X7666110Y-14537924D01*
X7666110Y-14537924D02*
X7675634Y-14556972D01*
X7675634Y-14556972D02*
X7675634Y-14661734D01*
X7675634Y-14556972D02*
X7685158Y-14537924D01*
X7685158Y-14537924D02*
X7704205Y-14528400D01*
X7704205Y-14528400D02*
X7732777Y-14528400D01*
X7732777Y-14528400D02*
X7751824Y-14537924D01*
X7751824Y-14537924D02*
X7761348Y-14556972D01*
X7761348Y-14556972D02*
X7761348Y-14661734D01*
X7856586Y-14661734D02*
X7856586Y-14528400D01*
X7856586Y-14547448D02*
X7866110Y-14537924D01*
X7866110Y-14537924D02*
X7885158Y-14528400D01*
X7885158Y-14528400D02*
X7913729Y-14528400D01*
X7913729Y-14528400D02*
X7932777Y-14537924D01*
X7932777Y-14537924D02*
X7942301Y-14556972D01*
X7942301Y-14556972D02*
X7942301Y-14661734D01*
X7942301Y-14556972D02*
X7951824Y-14537924D01*
X7951824Y-14537924D02*
X7970872Y-14528400D01*
X7970872Y-14528400D02*
X7999443Y-14528400D01*
X7999443Y-14528400D02*
X8018491Y-14537924D01*
X8018491Y-14537924D02*
X8028015Y-14556972D01*
X8028015Y-14556972D02*
X8028015Y-14661734D01*
X8418491Y-14452210D02*
X8247063Y-14709353D01*
X8675634Y-14461734D02*
X8694682Y-14461734D01*
X8694682Y-14461734D02*
X8713729Y-14471258D01*
X8713729Y-14471258D02*
X8723253Y-14480781D01*
X8723253Y-14480781D02*
X8732777Y-14499829D01*
X8732777Y-14499829D02*
X8742301Y-14537924D01*
X8742301Y-14537924D02*
X8742301Y-14585543D01*
X8742301Y-14585543D02*
X8732777Y-14623638D01*
X8732777Y-14623638D02*
X8723253Y-14642686D01*
X8723253Y-14642686D02*
X8713729Y-14652210D01*
X8713729Y-14652210D02*
X8694682Y-14661734D01*
X8694682Y-14661734D02*
X8675634Y-14661734D01*
X8675634Y-14661734D02*
X8656587Y-14652210D01*
X8656587Y-14652210D02*
X8647063Y-14642686D01*
X8647063Y-14642686D02*
X8637539Y-14623638D01*
X8637539Y-14623638D02*
X8628015Y-14585543D01*
X8628015Y-14585543D02*
X8628015Y-14537924D01*
X8628015Y-14537924D02*
X8637539Y-14499829D01*
X8637539Y-14499829D02*
X8647063Y-14480781D01*
X8647063Y-14480781D02*
X8656587Y-14471258D01*
X8656587Y-14471258D02*
X8675634Y-14461734D01*
X8828015Y-14642686D02*
X8837539Y-14652210D01*
X8837539Y-14652210D02*
X8828015Y-14661734D01*
X8828015Y-14661734D02*
X8818491Y-14652210D01*
X8818491Y-14652210D02*
X8828015Y-14642686D01*
X8828015Y-14642686D02*
X8828015Y-14661734D01*
X8961348Y-14461734D02*
X8980396Y-14461734D01*
X8980396Y-14461734D02*
X8999444Y-14471258D01*
X8999444Y-14471258D02*
X9008968Y-14480781D01*
X9008968Y-14480781D02*
X9018491Y-14499829D01*
X9018491Y-14499829D02*
X9028015Y-14537924D01*
X9028015Y-14537924D02*
X9028015Y-14585543D01*
X9028015Y-14585543D02*
X9018491Y-14623638D01*
X9018491Y-14623638D02*
X9008968Y-14642686D01*
X9008968Y-14642686D02*
X8999444Y-14652210D01*
X8999444Y-14652210D02*
X8980396Y-14661734D01*
X8980396Y-14661734D02*
X8961348Y-14661734D01*
X8961348Y-14661734D02*
X8942301Y-14652210D01*
X8942301Y-14652210D02*
X8932777Y-14642686D01*
X8932777Y-14642686D02*
X8923253Y-14623638D01*
X8923253Y-14623638D02*
X8913729Y-14585543D01*
X8913729Y-14585543D02*
X8913729Y-14537924D01*
X8913729Y-14537924D02*
X8923253Y-14499829D01*
X8923253Y-14499829D02*
X8932777Y-14480781D01*
X8932777Y-14480781D02*
X8942301Y-14471258D01*
X8942301Y-14471258D02*
X8961348Y-14461734D01*
X9104206Y-14480781D02*
X9113729Y-14471258D01*
X9113729Y-14471258D02*
X9132777Y-14461734D01*
X9132777Y-14461734D02*
X9180396Y-14461734D01*
X9180396Y-14461734D02*
X9199444Y-14471258D01*
X9199444Y-14471258D02*
X9208968Y-14480781D01*
X9208968Y-14480781D02*
X9218491Y-14499829D01*
X9218491Y-14499829D02*
X9218491Y-14518877D01*
X9218491Y-14518877D02*
X9208968Y-14547448D01*
X9208968Y-14547448D02*
X9094682Y-14661734D01*
X9094682Y-14661734D02*
X9218491Y-14661734D01*
X9313729Y-14661734D02*
X9351825Y-14661734D01*
X9351825Y-14661734D02*
X9370872Y-14652210D01*
X9370872Y-14652210D02*
X9380396Y-14642686D01*
X9380396Y-14642686D02*
X9399444Y-14614115D01*
X9399444Y-14614115D02*
X9408968Y-14576019D01*
X9408968Y-14576019D02*
X9408968Y-14499829D01*
X9408968Y-14499829D02*
X9399444Y-14480781D01*
X9399444Y-14480781D02*
X9389920Y-14471258D01*
X9389920Y-14471258D02*
X9370872Y-14461734D01*
X9370872Y-14461734D02*
X9332777Y-14461734D01*
X9332777Y-14461734D02*
X9313729Y-14471258D01*
X9313729Y-14471258D02*
X9304206Y-14480781D01*
X9304206Y-14480781D02*
X9294682Y-14499829D01*
X9294682Y-14499829D02*
X9294682Y-14547448D01*
X9294682Y-14547448D02*
X9304206Y-14566496D01*
X9304206Y-14566496D02*
X9313729Y-14576019D01*
X9313729Y-14576019D02*
X9332777Y-14585543D01*
X9332777Y-14585543D02*
X9370872Y-14585543D01*
X9370872Y-14585543D02*
X9389920Y-14576019D01*
X9389920Y-14576019D02*
X9399444Y-14566496D01*
X9399444Y-14566496D02*
X9408968Y-14547448D01*
X9589920Y-14461734D02*
X9494682Y-14461734D01*
X9494682Y-14461734D02*
X9485158Y-14556972D01*
X9485158Y-14556972D02*
X9494682Y-14547448D01*
X9494682Y-14547448D02*
X9513729Y-14537924D01*
X9513729Y-14537924D02*
X9561349Y-14537924D01*
X9561349Y-14537924D02*
X9580396Y-14547448D01*
X9580396Y-14547448D02*
X9589920Y-14556972D01*
X9589920Y-14556972D02*
X9599444Y-14576019D01*
X9599444Y-14576019D02*
X9599444Y-14623638D01*
X9599444Y-14623638D02*
X9589920Y-14642686D01*
X9589920Y-14642686D02*
X9580396Y-14652210D01*
X9580396Y-14652210D02*
X9561349Y-14661734D01*
X9561349Y-14661734D02*
X9513729Y-14661734D01*
X9513729Y-14661734D02*
X9494682Y-14652210D01*
X9494682Y-14652210D02*
X9485158Y-14642686D01*
X9675634Y-14461734D02*
X9675634Y-14499829D01*
X9751825Y-14461734D02*
X9751825Y-14499829D01*
X10047063Y-14737924D02*
X10037539Y-14728400D01*
X10037539Y-14728400D02*
X10018491Y-14699829D01*
X10018491Y-14699829D02*
X10008968Y-14680781D01*
X10008968Y-14680781D02*
X9999444Y-14652210D01*
X9999444Y-14652210D02*
X9989920Y-14604591D01*
X9989920Y-14604591D02*
X9989920Y-14566496D01*
X9989920Y-14566496D02*
X9999444Y-14518877D01*
X9999444Y-14518877D02*
X10008968Y-14490305D01*
X10008968Y-14490305D02*
X10018491Y-14471258D01*
X10018491Y-14471258D02*
X10037539Y-14442686D01*
X10037539Y-14442686D02*
X10047063Y-14433162D01*
X10104206Y-14461734D02*
X10228015Y-14461734D01*
X10228015Y-14461734D02*
X10161349Y-14537924D01*
X10161349Y-14537924D02*
X10189920Y-14537924D01*
X10189920Y-14537924D02*
X10208968Y-14547448D01*
X10208968Y-14547448D02*
X10218491Y-14556972D01*
X10218491Y-14556972D02*
X10228015Y-14576019D01*
X10228015Y-14576019D02*
X10228015Y-14623638D01*
X10228015Y-14623638D02*
X10218491Y-14642686D01*
X10218491Y-14642686D02*
X10208968Y-14652210D01*
X10208968Y-14652210D02*
X10189920Y-14661734D01*
X10189920Y-14661734D02*
X10132777Y-14661734D01*
X10132777Y-14661734D02*
X10113730Y-14652210D01*
X10113730Y-14652210D02*
X10104206Y-14642686D01*
X10466111Y-14661734D02*
X10466111Y-14461734D01*
X10551825Y-14661734D02*
X10551825Y-14556972D01*
X10551825Y-14556972D02*
X10542301Y-14537924D01*
X10542301Y-14537924D02*
X10523253Y-14528400D01*
X10523253Y-14528400D02*
X10494682Y-14528400D01*
X10494682Y-14528400D02*
X10475634Y-14537924D01*
X10475634Y-14537924D02*
X10466111Y-14547448D01*
X10675634Y-14661734D02*
X10656587Y-14652210D01*
X10656587Y-14652210D02*
X10647063Y-14642686D01*
X10647063Y-14642686D02*
X10637539Y-14623638D01*
X10637539Y-14623638D02*
X10637539Y-14566496D01*
X10637539Y-14566496D02*
X10647063Y-14547448D01*
X10647063Y-14547448D02*
X10656587Y-14537924D01*
X10656587Y-14537924D02*
X10675634Y-14528400D01*
X10675634Y-14528400D02*
X10704206Y-14528400D01*
X10704206Y-14528400D02*
X10723253Y-14537924D01*
X10723253Y-14537924D02*
X10732777Y-14547448D01*
X10732777Y-14547448D02*
X10742301Y-14566496D01*
X10742301Y-14566496D02*
X10742301Y-14623638D01*
X10742301Y-14623638D02*
X10732777Y-14642686D01*
X10732777Y-14642686D02*
X10723253Y-14652210D01*
X10723253Y-14652210D02*
X10704206Y-14661734D01*
X10704206Y-14661734D02*
X10675634Y-14661734D01*
X10856587Y-14661734D02*
X10837539Y-14652210D01*
X10837539Y-14652210D02*
X10828015Y-14633162D01*
X10828015Y-14633162D02*
X10828015Y-14461734D01*
X11008968Y-14652210D02*
X10989920Y-14661734D01*
X10989920Y-14661734D02*
X10951825Y-14661734D01*
X10951825Y-14661734D02*
X10932777Y-14652210D01*
X10932777Y-14652210D02*
X10923253Y-14633162D01*
X10923253Y-14633162D02*
X10923253Y-14556972D01*
X10923253Y-14556972D02*
X10932777Y-14537924D01*
X10932777Y-14537924D02*
X10951825Y-14528400D01*
X10951825Y-14528400D02*
X10989920Y-14528400D01*
X10989920Y-14528400D02*
X11008968Y-14537924D01*
X11008968Y-14537924D02*
X11018492Y-14556972D01*
X11018492Y-14556972D02*
X11018492Y-14576019D01*
X11018492Y-14576019D02*
X10923253Y-14595067D01*
X11094682Y-14652210D02*
X11113730Y-14661734D01*
X11113730Y-14661734D02*
X11151825Y-14661734D01*
X11151825Y-14661734D02*
X11170873Y-14652210D01*
X11170873Y-14652210D02*
X11180396Y-14633162D01*
X11180396Y-14633162D02*
X11180396Y-14623638D01*
X11180396Y-14623638D02*
X11170873Y-14604591D01*
X11170873Y-14604591D02*
X11151825Y-14595067D01*
X11151825Y-14595067D02*
X11123253Y-14595067D01*
X11123253Y-14595067D02*
X11104206Y-14585543D01*
X11104206Y-14585543D02*
X11094682Y-14566496D01*
X11094682Y-14566496D02*
X11094682Y-14556972D01*
X11094682Y-14556972D02*
X11104206Y-14537924D01*
X11104206Y-14537924D02*
X11123253Y-14528400D01*
X11123253Y-14528400D02*
X11151825Y-14528400D01*
X11151825Y-14528400D02*
X11170873Y-14537924D01*
X11247063Y-14737924D02*
X11256587Y-14728400D01*
X11256587Y-14728400D02*
X11275634Y-14699829D01*
X11275634Y-14699829D02*
X11285158Y-14680781D01*
X11285158Y-14680781D02*
X11294682Y-14652210D01*
X11294682Y-14652210D02*
X11304206Y-14604591D01*
X11304206Y-14604591D02*
X11304206Y-14566496D01*
X11304206Y-14566496D02*
X11294682Y-14518877D01*
X11294682Y-14518877D02*
X11285158Y-14490305D01*
X11285158Y-14490305D02*
X11275634Y-14471258D01*
X11275634Y-14471258D02*
X11256587Y-14442686D01*
X11256587Y-14442686D02*
X11247063Y-14433162D01*
D10*
X6432000Y-14874250D02*
X6472000Y-14834250D01*
X6432000Y-14794250D01*
X6392000Y-14834250D01*
X6432000Y-14874250D01*
D11*
X6770872Y-14725734D02*
X6789920Y-14725734D01*
X6789920Y-14725734D02*
X6808967Y-14735258D01*
X6808967Y-14735258D02*
X6818491Y-14744781D01*
X6818491Y-14744781D02*
X6828015Y-14763829D01*
X6828015Y-14763829D02*
X6837539Y-14801924D01*
X6837539Y-14801924D02*
X6837539Y-14849543D01*
X6837539Y-14849543D02*
X6828015Y-14887638D01*
X6828015Y-14887638D02*
X6818491Y-14906686D01*
X6818491Y-14906686D02*
X6808967Y-14916210D01*
X6808967Y-14916210D02*
X6789920Y-14925734D01*
X6789920Y-14925734D02*
X6770872Y-14925734D01*
X6770872Y-14925734D02*
X6751824Y-14916210D01*
X6751824Y-14916210D02*
X6742301Y-14906686D01*
X6742301Y-14906686D02*
X6732777Y-14887638D01*
X6732777Y-14887638D02*
X6723253Y-14849543D01*
X6723253Y-14849543D02*
X6723253Y-14801924D01*
X6723253Y-14801924D02*
X6732777Y-14763829D01*
X6732777Y-14763829D02*
X6742301Y-14744781D01*
X6742301Y-14744781D02*
X6751824Y-14735258D01*
X6751824Y-14735258D02*
X6770872Y-14725734D01*
X6923253Y-14906686D02*
X6932777Y-14916210D01*
X6932777Y-14916210D02*
X6923253Y-14925734D01*
X6923253Y-14925734D02*
X6913729Y-14916210D01*
X6913729Y-14916210D02*
X6923253Y-14906686D01*
X6923253Y-14906686D02*
X6923253Y-14925734D01*
X7047062Y-14811448D02*
X7028015Y-14801924D01*
X7028015Y-14801924D02*
X7018491Y-14792400D01*
X7018491Y-14792400D02*
X7008967Y-14773353D01*
X7008967Y-14773353D02*
X7008967Y-14763829D01*
X7008967Y-14763829D02*
X7018491Y-14744781D01*
X7018491Y-14744781D02*
X7028015Y-14735258D01*
X7028015Y-14735258D02*
X7047062Y-14725734D01*
X7047062Y-14725734D02*
X7085158Y-14725734D01*
X7085158Y-14725734D02*
X7104205Y-14735258D01*
X7104205Y-14735258D02*
X7113729Y-14744781D01*
X7113729Y-14744781D02*
X7123253Y-14763829D01*
X7123253Y-14763829D02*
X7123253Y-14773353D01*
X7123253Y-14773353D02*
X7113729Y-14792400D01*
X7113729Y-14792400D02*
X7104205Y-14801924D01*
X7104205Y-14801924D02*
X7085158Y-14811448D01*
X7085158Y-14811448D02*
X7047062Y-14811448D01*
X7047062Y-14811448D02*
X7028015Y-14820972D01*
X7028015Y-14820972D02*
X7018491Y-14830496D01*
X7018491Y-14830496D02*
X7008967Y-14849543D01*
X7008967Y-14849543D02*
X7008967Y-14887638D01*
X7008967Y-14887638D02*
X7018491Y-14906686D01*
X7018491Y-14906686D02*
X7028015Y-14916210D01*
X7028015Y-14916210D02*
X7047062Y-14925734D01*
X7047062Y-14925734D02*
X7085158Y-14925734D01*
X7085158Y-14925734D02*
X7104205Y-14916210D01*
X7104205Y-14916210D02*
X7113729Y-14906686D01*
X7113729Y-14906686D02*
X7123253Y-14887638D01*
X7123253Y-14887638D02*
X7123253Y-14849543D01*
X7123253Y-14849543D02*
X7113729Y-14830496D01*
X7113729Y-14830496D02*
X7104205Y-14820972D01*
X7104205Y-14820972D02*
X7085158Y-14811448D01*
X7247062Y-14725734D02*
X7266110Y-14725734D01*
X7266110Y-14725734D02*
X7285158Y-14735258D01*
X7285158Y-14735258D02*
X7294682Y-14744781D01*
X7294682Y-14744781D02*
X7304205Y-14763829D01*
X7304205Y-14763829D02*
X7313729Y-14801924D01*
X7313729Y-14801924D02*
X7313729Y-14849543D01*
X7313729Y-14849543D02*
X7304205Y-14887638D01*
X7304205Y-14887638D02*
X7294682Y-14906686D01*
X7294682Y-14906686D02*
X7285158Y-14916210D01*
X7285158Y-14916210D02*
X7266110Y-14925734D01*
X7266110Y-14925734D02*
X7247062Y-14925734D01*
X7247062Y-14925734D02*
X7228015Y-14916210D01*
X7228015Y-14916210D02*
X7218491Y-14906686D01*
X7218491Y-14906686D02*
X7208967Y-14887638D01*
X7208967Y-14887638D02*
X7199443Y-14849543D01*
X7199443Y-14849543D02*
X7199443Y-14801924D01*
X7199443Y-14801924D02*
X7208967Y-14763829D01*
X7208967Y-14763829D02*
X7218491Y-14744781D01*
X7218491Y-14744781D02*
X7228015Y-14735258D01*
X7228015Y-14735258D02*
X7247062Y-14725734D01*
X7437539Y-14725734D02*
X7456586Y-14725734D01*
X7456586Y-14725734D02*
X7475634Y-14735258D01*
X7475634Y-14735258D02*
X7485158Y-14744781D01*
X7485158Y-14744781D02*
X7494682Y-14763829D01*
X7494682Y-14763829D02*
X7504205Y-14801924D01*
X7504205Y-14801924D02*
X7504205Y-14849543D01*
X7504205Y-14849543D02*
X7494682Y-14887638D01*
X7494682Y-14887638D02*
X7485158Y-14906686D01*
X7485158Y-14906686D02*
X7475634Y-14916210D01*
X7475634Y-14916210D02*
X7456586Y-14925734D01*
X7456586Y-14925734D02*
X7437539Y-14925734D01*
X7437539Y-14925734D02*
X7418491Y-14916210D01*
X7418491Y-14916210D02*
X7408967Y-14906686D01*
X7408967Y-14906686D02*
X7399443Y-14887638D01*
X7399443Y-14887638D02*
X7389920Y-14849543D01*
X7389920Y-14849543D02*
X7389920Y-14801924D01*
X7389920Y-14801924D02*
X7399443Y-14763829D01*
X7399443Y-14763829D02*
X7408967Y-14744781D01*
X7408967Y-14744781D02*
X7418491Y-14735258D01*
X7418491Y-14735258D02*
X7437539Y-14725734D01*
X7589920Y-14925734D02*
X7589920Y-14792400D01*
X7589920Y-14811448D02*
X7599443Y-14801924D01*
X7599443Y-14801924D02*
X7618491Y-14792400D01*
X7618491Y-14792400D02*
X7647063Y-14792400D01*
X7647063Y-14792400D02*
X7666110Y-14801924D01*
X7666110Y-14801924D02*
X7675634Y-14820972D01*
X7675634Y-14820972D02*
X7675634Y-14925734D01*
X7675634Y-14820972D02*
X7685158Y-14801924D01*
X7685158Y-14801924D02*
X7704205Y-14792400D01*
X7704205Y-14792400D02*
X7732777Y-14792400D01*
X7732777Y-14792400D02*
X7751824Y-14801924D01*
X7751824Y-14801924D02*
X7761348Y-14820972D01*
X7761348Y-14820972D02*
X7761348Y-14925734D01*
X7856586Y-14925734D02*
X7856586Y-14792400D01*
X7856586Y-14811448D02*
X7866110Y-14801924D01*
X7866110Y-14801924D02*
X7885158Y-14792400D01*
X7885158Y-14792400D02*
X7913729Y-14792400D01*
X7913729Y-14792400D02*
X7932777Y-14801924D01*
X7932777Y-14801924D02*
X7942301Y-14820972D01*
X7942301Y-14820972D02*
X7942301Y-14925734D01*
X7942301Y-14820972D02*
X7951824Y-14801924D01*
X7951824Y-14801924D02*
X7970872Y-14792400D01*
X7970872Y-14792400D02*
X7999443Y-14792400D01*
X7999443Y-14792400D02*
X8018491Y-14801924D01*
X8018491Y-14801924D02*
X8028015Y-14820972D01*
X8028015Y-14820972D02*
X8028015Y-14925734D01*
X8418491Y-14716210D02*
X8247063Y-14973353D01*
X8675634Y-14725734D02*
X8694682Y-14725734D01*
X8694682Y-14725734D02*
X8713729Y-14735258D01*
X8713729Y-14735258D02*
X8723253Y-14744781D01*
X8723253Y-14744781D02*
X8732777Y-14763829D01*
X8732777Y-14763829D02*
X8742301Y-14801924D01*
X8742301Y-14801924D02*
X8742301Y-14849543D01*
X8742301Y-14849543D02*
X8732777Y-14887638D01*
X8732777Y-14887638D02*
X8723253Y-14906686D01*
X8723253Y-14906686D02*
X8713729Y-14916210D01*
X8713729Y-14916210D02*
X8694682Y-14925734D01*
X8694682Y-14925734D02*
X8675634Y-14925734D01*
X8675634Y-14925734D02*
X8656587Y-14916210D01*
X8656587Y-14916210D02*
X8647063Y-14906686D01*
X8647063Y-14906686D02*
X8637539Y-14887638D01*
X8637539Y-14887638D02*
X8628015Y-14849543D01*
X8628015Y-14849543D02*
X8628015Y-14801924D01*
X8628015Y-14801924D02*
X8637539Y-14763829D01*
X8637539Y-14763829D02*
X8647063Y-14744781D01*
X8647063Y-14744781D02*
X8656587Y-14735258D01*
X8656587Y-14735258D02*
X8675634Y-14725734D01*
X8828015Y-14906686D02*
X8837539Y-14916210D01*
X8837539Y-14916210D02*
X8828015Y-14925734D01*
X8828015Y-14925734D02*
X8818491Y-14916210D01*
X8818491Y-14916210D02*
X8828015Y-14906686D01*
X8828015Y-14906686D02*
X8828015Y-14925734D01*
X8961348Y-14725734D02*
X8980396Y-14725734D01*
X8980396Y-14725734D02*
X8999444Y-14735258D01*
X8999444Y-14735258D02*
X9008968Y-14744781D01*
X9008968Y-14744781D02*
X9018491Y-14763829D01*
X9018491Y-14763829D02*
X9028015Y-14801924D01*
X9028015Y-14801924D02*
X9028015Y-14849543D01*
X9028015Y-14849543D02*
X9018491Y-14887638D01*
X9018491Y-14887638D02*
X9008968Y-14906686D01*
X9008968Y-14906686D02*
X8999444Y-14916210D01*
X8999444Y-14916210D02*
X8980396Y-14925734D01*
X8980396Y-14925734D02*
X8961348Y-14925734D01*
X8961348Y-14925734D02*
X8942301Y-14916210D01*
X8942301Y-14916210D02*
X8932777Y-14906686D01*
X8932777Y-14906686D02*
X8923253Y-14887638D01*
X8923253Y-14887638D02*
X8913729Y-14849543D01*
X8913729Y-14849543D02*
X8913729Y-14801924D01*
X8913729Y-14801924D02*
X8923253Y-14763829D01*
X8923253Y-14763829D02*
X8932777Y-14744781D01*
X8932777Y-14744781D02*
X8942301Y-14735258D01*
X8942301Y-14735258D02*
X8961348Y-14725734D01*
X9094682Y-14725734D02*
X9218491Y-14725734D01*
X9218491Y-14725734D02*
X9151825Y-14801924D01*
X9151825Y-14801924D02*
X9180396Y-14801924D01*
X9180396Y-14801924D02*
X9199444Y-14811448D01*
X9199444Y-14811448D02*
X9208968Y-14820972D01*
X9208968Y-14820972D02*
X9218491Y-14840019D01*
X9218491Y-14840019D02*
X9218491Y-14887638D01*
X9218491Y-14887638D02*
X9208968Y-14906686D01*
X9208968Y-14906686D02*
X9199444Y-14916210D01*
X9199444Y-14916210D02*
X9180396Y-14925734D01*
X9180396Y-14925734D02*
X9123253Y-14925734D01*
X9123253Y-14925734D02*
X9104206Y-14916210D01*
X9104206Y-14916210D02*
X9094682Y-14906686D01*
X9408968Y-14925734D02*
X9294682Y-14925734D01*
X9351825Y-14925734D02*
X9351825Y-14725734D01*
X9351825Y-14725734D02*
X9332777Y-14754305D01*
X9332777Y-14754305D02*
X9313729Y-14773353D01*
X9313729Y-14773353D02*
X9294682Y-14782877D01*
X9589920Y-14725734D02*
X9494682Y-14725734D01*
X9494682Y-14725734D02*
X9485158Y-14820972D01*
X9485158Y-14820972D02*
X9494682Y-14811448D01*
X9494682Y-14811448D02*
X9513729Y-14801924D01*
X9513729Y-14801924D02*
X9561349Y-14801924D01*
X9561349Y-14801924D02*
X9580396Y-14811448D01*
X9580396Y-14811448D02*
X9589920Y-14820972D01*
X9589920Y-14820972D02*
X9599444Y-14840019D01*
X9599444Y-14840019D02*
X9599444Y-14887638D01*
X9599444Y-14887638D02*
X9589920Y-14906686D01*
X9589920Y-14906686D02*
X9580396Y-14916210D01*
X9580396Y-14916210D02*
X9561349Y-14925734D01*
X9561349Y-14925734D02*
X9513729Y-14925734D01*
X9513729Y-14925734D02*
X9494682Y-14916210D01*
X9494682Y-14916210D02*
X9485158Y-14906686D01*
X9675634Y-14725734D02*
X9675634Y-14763829D01*
X9751825Y-14725734D02*
X9751825Y-14763829D01*
X10047063Y-15001924D02*
X10037539Y-14992400D01*
X10037539Y-14992400D02*
X10018491Y-14963829D01*
X10018491Y-14963829D02*
X10008968Y-14944781D01*
X10008968Y-14944781D02*
X9999444Y-14916210D01*
X9999444Y-14916210D02*
X9989920Y-14868591D01*
X9989920Y-14868591D02*
X9989920Y-14830496D01*
X9989920Y-14830496D02*
X9999444Y-14782877D01*
X9999444Y-14782877D02*
X10008968Y-14754305D01*
X10008968Y-14754305D02*
X10018491Y-14735258D01*
X10018491Y-14735258D02*
X10037539Y-14706686D01*
X10037539Y-14706686D02*
X10047063Y-14697162D01*
X10228015Y-14925734D02*
X10113730Y-14925734D01*
X10170872Y-14925734D02*
X10170872Y-14725734D01*
X10170872Y-14725734D02*
X10151825Y-14754305D01*
X10151825Y-14754305D02*
X10132777Y-14773353D01*
X10132777Y-14773353D02*
X10113730Y-14782877D01*
X10294682Y-14725734D02*
X10428015Y-14725734D01*
X10428015Y-14725734D02*
X10342301Y-14925734D01*
X10532777Y-14811448D02*
X10513730Y-14801924D01*
X10513730Y-14801924D02*
X10504206Y-14792400D01*
X10504206Y-14792400D02*
X10494682Y-14773353D01*
X10494682Y-14773353D02*
X10494682Y-14763829D01*
X10494682Y-14763829D02*
X10504206Y-14744781D01*
X10504206Y-14744781D02*
X10513730Y-14735258D01*
X10513730Y-14735258D02*
X10532777Y-14725734D01*
X10532777Y-14725734D02*
X10570872Y-14725734D01*
X10570872Y-14725734D02*
X10589920Y-14735258D01*
X10589920Y-14735258D02*
X10599444Y-14744781D01*
X10599444Y-14744781D02*
X10608968Y-14763829D01*
X10608968Y-14763829D02*
X10608968Y-14773353D01*
X10608968Y-14773353D02*
X10599444Y-14792400D01*
X10599444Y-14792400D02*
X10589920Y-14801924D01*
X10589920Y-14801924D02*
X10570872Y-14811448D01*
X10570872Y-14811448D02*
X10532777Y-14811448D01*
X10532777Y-14811448D02*
X10513730Y-14820972D01*
X10513730Y-14820972D02*
X10504206Y-14830496D01*
X10504206Y-14830496D02*
X10494682Y-14849543D01*
X10494682Y-14849543D02*
X10494682Y-14887638D01*
X10494682Y-14887638D02*
X10504206Y-14906686D01*
X10504206Y-14906686D02*
X10513730Y-14916210D01*
X10513730Y-14916210D02*
X10532777Y-14925734D01*
X10532777Y-14925734D02*
X10570872Y-14925734D01*
X10570872Y-14925734D02*
X10589920Y-14916210D01*
X10589920Y-14916210D02*
X10599444Y-14906686D01*
X10599444Y-14906686D02*
X10608968Y-14887638D01*
X10608968Y-14887638D02*
X10608968Y-14849543D01*
X10608968Y-14849543D02*
X10599444Y-14830496D01*
X10599444Y-14830496D02*
X10589920Y-14820972D01*
X10589920Y-14820972D02*
X10570872Y-14811448D01*
X10847063Y-14925734D02*
X10847063Y-14725734D01*
X10932777Y-14925734D02*
X10932777Y-14820972D01*
X10932777Y-14820972D02*
X10923253Y-14801924D01*
X10923253Y-14801924D02*
X10904206Y-14792400D01*
X10904206Y-14792400D02*
X10875634Y-14792400D01*
X10875634Y-14792400D02*
X10856587Y-14801924D01*
X10856587Y-14801924D02*
X10847063Y-14811448D01*
X11056587Y-14925734D02*
X11037539Y-14916210D01*
X11037539Y-14916210D02*
X11028015Y-14906686D01*
X11028015Y-14906686D02*
X11018492Y-14887638D01*
X11018492Y-14887638D02*
X11018492Y-14830496D01*
X11018492Y-14830496D02*
X11028015Y-14811448D01*
X11028015Y-14811448D02*
X11037539Y-14801924D01*
X11037539Y-14801924D02*
X11056587Y-14792400D01*
X11056587Y-14792400D02*
X11085158Y-14792400D01*
X11085158Y-14792400D02*
X11104206Y-14801924D01*
X11104206Y-14801924D02*
X11113730Y-14811448D01*
X11113730Y-14811448D02*
X11123253Y-14830496D01*
X11123253Y-14830496D02*
X11123253Y-14887638D01*
X11123253Y-14887638D02*
X11113730Y-14906686D01*
X11113730Y-14906686D02*
X11104206Y-14916210D01*
X11104206Y-14916210D02*
X11085158Y-14925734D01*
X11085158Y-14925734D02*
X11056587Y-14925734D01*
X11237539Y-14925734D02*
X11218491Y-14916210D01*
X11218491Y-14916210D02*
X11208968Y-14897162D01*
X11208968Y-14897162D02*
X11208968Y-14725734D01*
X11389920Y-14916210D02*
X11370872Y-14925734D01*
X11370872Y-14925734D02*
X11332777Y-14925734D01*
X11332777Y-14925734D02*
X11313730Y-14916210D01*
X11313730Y-14916210D02*
X11304206Y-14897162D01*
X11304206Y-14897162D02*
X11304206Y-14820972D01*
X11304206Y-14820972D02*
X11313730Y-14801924D01*
X11313730Y-14801924D02*
X11332777Y-14792400D01*
X11332777Y-14792400D02*
X11370872Y-14792400D01*
X11370872Y-14792400D02*
X11389920Y-14801924D01*
X11389920Y-14801924D02*
X11399444Y-14820972D01*
X11399444Y-14820972D02*
X11399444Y-14840019D01*
X11399444Y-14840019D02*
X11304206Y-14859067D01*
X11475634Y-14916210D02*
X11494682Y-14925734D01*
X11494682Y-14925734D02*
X11532777Y-14925734D01*
X11532777Y-14925734D02*
X11551825Y-14916210D01*
X11551825Y-14916210D02*
X11561349Y-14897162D01*
X11561349Y-14897162D02*
X11561349Y-14887638D01*
X11561349Y-14887638D02*
X11551825Y-14868591D01*
X11551825Y-14868591D02*
X11532777Y-14859067D01*
X11532777Y-14859067D02*
X11504206Y-14859067D01*
X11504206Y-14859067D02*
X11485158Y-14849543D01*
X11485158Y-14849543D02*
X11475634Y-14830496D01*
X11475634Y-14830496D02*
X11475634Y-14820972D01*
X11475634Y-14820972D02*
X11485158Y-14801924D01*
X11485158Y-14801924D02*
X11504206Y-14792400D01*
X11504206Y-14792400D02*
X11532777Y-14792400D01*
X11532777Y-14792400D02*
X11551825Y-14801924D01*
X11628015Y-15001924D02*
X11637539Y-14992400D01*
X11637539Y-14992400D02*
X11656587Y-14963829D01*
X11656587Y-14963829D02*
X11666111Y-14944781D01*
X11666111Y-14944781D02*
X11675634Y-14916210D01*
X11675634Y-14916210D02*
X11685158Y-14868591D01*
X11685158Y-14868591D02*
X11685158Y-14830496D01*
X11685158Y-14830496D02*
X11675634Y-14782877D01*
X11675634Y-14782877D02*
X11666111Y-14754305D01*
X11666111Y-14754305D02*
X11656587Y-14735258D01*
X11656587Y-14735258D02*
X11637539Y-14706686D01*
X11637539Y-14706686D02*
X11628015Y-14697162D01*
D10*
X6382000Y-15053250D02*
X6472000Y-15143250D01*
X6472000Y-15053250D02*
X6382000Y-15143250D01*
X6472000Y-15098250D02*
G75*
G03*
X6472000Y-15098250I-45000J0D01*
G01*
D11*
X6770872Y-14989734D02*
X6789920Y-14989734D01*
X6789920Y-14989734D02*
X6808967Y-14999258D01*
X6808967Y-14999258D02*
X6818491Y-15008781D01*
X6818491Y-15008781D02*
X6828015Y-15027829D01*
X6828015Y-15027829D02*
X6837539Y-15065924D01*
X6837539Y-15065924D02*
X6837539Y-15113543D01*
X6837539Y-15113543D02*
X6828015Y-15151638D01*
X6828015Y-15151638D02*
X6818491Y-15170686D01*
X6818491Y-15170686D02*
X6808967Y-15180210D01*
X6808967Y-15180210D02*
X6789920Y-15189734D01*
X6789920Y-15189734D02*
X6770872Y-15189734D01*
X6770872Y-15189734D02*
X6751824Y-15180210D01*
X6751824Y-15180210D02*
X6742301Y-15170686D01*
X6742301Y-15170686D02*
X6732777Y-15151638D01*
X6732777Y-15151638D02*
X6723253Y-15113543D01*
X6723253Y-15113543D02*
X6723253Y-15065924D01*
X6723253Y-15065924D02*
X6732777Y-15027829D01*
X6732777Y-15027829D02*
X6742301Y-15008781D01*
X6742301Y-15008781D02*
X6751824Y-14999258D01*
X6751824Y-14999258D02*
X6770872Y-14989734D01*
X6923253Y-15170686D02*
X6932777Y-15180210D01*
X6932777Y-15180210D02*
X6923253Y-15189734D01*
X6923253Y-15189734D02*
X6913729Y-15180210D01*
X6913729Y-15180210D02*
X6923253Y-15170686D01*
X6923253Y-15170686D02*
X6923253Y-15189734D01*
X7028015Y-15189734D02*
X7066110Y-15189734D01*
X7066110Y-15189734D02*
X7085158Y-15180210D01*
X7085158Y-15180210D02*
X7094682Y-15170686D01*
X7094682Y-15170686D02*
X7113729Y-15142115D01*
X7113729Y-15142115D02*
X7123253Y-15104019D01*
X7123253Y-15104019D02*
X7123253Y-15027829D01*
X7123253Y-15027829D02*
X7113729Y-15008781D01*
X7113729Y-15008781D02*
X7104205Y-14999258D01*
X7104205Y-14999258D02*
X7085158Y-14989734D01*
X7085158Y-14989734D02*
X7047062Y-14989734D01*
X7047062Y-14989734D02*
X7028015Y-14999258D01*
X7028015Y-14999258D02*
X7018491Y-15008781D01*
X7018491Y-15008781D02*
X7008967Y-15027829D01*
X7008967Y-15027829D02*
X7008967Y-15075448D01*
X7008967Y-15075448D02*
X7018491Y-15094496D01*
X7018491Y-15094496D02*
X7028015Y-15104019D01*
X7028015Y-15104019D02*
X7047062Y-15113543D01*
X7047062Y-15113543D02*
X7085158Y-15113543D01*
X7085158Y-15113543D02*
X7104205Y-15104019D01*
X7104205Y-15104019D02*
X7113729Y-15094496D01*
X7113729Y-15094496D02*
X7123253Y-15075448D01*
X7247062Y-14989734D02*
X7266110Y-14989734D01*
X7266110Y-14989734D02*
X7285158Y-14999258D01*
X7285158Y-14999258D02*
X7294682Y-15008781D01*
X7294682Y-15008781D02*
X7304205Y-15027829D01*
X7304205Y-15027829D02*
X7313729Y-15065924D01*
X7313729Y-15065924D02*
X7313729Y-15113543D01*
X7313729Y-15113543D02*
X7304205Y-15151638D01*
X7304205Y-15151638D02*
X7294682Y-15170686D01*
X7294682Y-15170686D02*
X7285158Y-15180210D01*
X7285158Y-15180210D02*
X7266110Y-15189734D01*
X7266110Y-15189734D02*
X7247062Y-15189734D01*
X7247062Y-15189734D02*
X7228015Y-15180210D01*
X7228015Y-15180210D02*
X7218491Y-15170686D01*
X7218491Y-15170686D02*
X7208967Y-15151638D01*
X7208967Y-15151638D02*
X7199443Y-15113543D01*
X7199443Y-15113543D02*
X7199443Y-15065924D01*
X7199443Y-15065924D02*
X7208967Y-15027829D01*
X7208967Y-15027829D02*
X7218491Y-15008781D01*
X7218491Y-15008781D02*
X7228015Y-14999258D01*
X7228015Y-14999258D02*
X7247062Y-14989734D01*
X7437539Y-14989734D02*
X7456586Y-14989734D01*
X7456586Y-14989734D02*
X7475634Y-14999258D01*
X7475634Y-14999258D02*
X7485158Y-15008781D01*
X7485158Y-15008781D02*
X7494682Y-15027829D01*
X7494682Y-15027829D02*
X7504205Y-15065924D01*
X7504205Y-15065924D02*
X7504205Y-15113543D01*
X7504205Y-15113543D02*
X7494682Y-15151638D01*
X7494682Y-15151638D02*
X7485158Y-15170686D01*
X7485158Y-15170686D02*
X7475634Y-15180210D01*
X7475634Y-15180210D02*
X7456586Y-15189734D01*
X7456586Y-15189734D02*
X7437539Y-15189734D01*
X7437539Y-15189734D02*
X7418491Y-15180210D01*
X7418491Y-15180210D02*
X7408967Y-15170686D01*
X7408967Y-15170686D02*
X7399443Y-15151638D01*
X7399443Y-15151638D02*
X7389920Y-15113543D01*
X7389920Y-15113543D02*
X7389920Y-15065924D01*
X7389920Y-15065924D02*
X7399443Y-15027829D01*
X7399443Y-15027829D02*
X7408967Y-15008781D01*
X7408967Y-15008781D02*
X7418491Y-14999258D01*
X7418491Y-14999258D02*
X7437539Y-14989734D01*
X7589920Y-15189734D02*
X7589920Y-15056400D01*
X7589920Y-15075448D02*
X7599443Y-15065924D01*
X7599443Y-15065924D02*
X7618491Y-15056400D01*
X7618491Y-15056400D02*
X7647063Y-15056400D01*
X7647063Y-15056400D02*
X7666110Y-15065924D01*
X7666110Y-15065924D02*
X7675634Y-15084972D01*
X7675634Y-15084972D02*
X7675634Y-15189734D01*
X7675634Y-15084972D02*
X7685158Y-15065924D01*
X7685158Y-15065924D02*
X7704205Y-15056400D01*
X7704205Y-15056400D02*
X7732777Y-15056400D01*
X7732777Y-15056400D02*
X7751824Y-15065924D01*
X7751824Y-15065924D02*
X7761348Y-15084972D01*
X7761348Y-15084972D02*
X7761348Y-15189734D01*
X7856586Y-15189734D02*
X7856586Y-15056400D01*
X7856586Y-15075448D02*
X7866110Y-15065924D01*
X7866110Y-15065924D02*
X7885158Y-15056400D01*
X7885158Y-15056400D02*
X7913729Y-15056400D01*
X7913729Y-15056400D02*
X7932777Y-15065924D01*
X7932777Y-15065924D02*
X7942301Y-15084972D01*
X7942301Y-15084972D02*
X7942301Y-15189734D01*
X7942301Y-15084972D02*
X7951824Y-15065924D01*
X7951824Y-15065924D02*
X7970872Y-15056400D01*
X7970872Y-15056400D02*
X7999443Y-15056400D01*
X7999443Y-15056400D02*
X8018491Y-15065924D01*
X8018491Y-15065924D02*
X8028015Y-15084972D01*
X8028015Y-15084972D02*
X8028015Y-15189734D01*
X8418491Y-14980210D02*
X8247063Y-15237353D01*
X8675634Y-14989734D02*
X8694682Y-14989734D01*
X8694682Y-14989734D02*
X8713729Y-14999258D01*
X8713729Y-14999258D02*
X8723253Y-15008781D01*
X8723253Y-15008781D02*
X8732777Y-15027829D01*
X8732777Y-15027829D02*
X8742301Y-15065924D01*
X8742301Y-15065924D02*
X8742301Y-15113543D01*
X8742301Y-15113543D02*
X8732777Y-15151638D01*
X8732777Y-15151638D02*
X8723253Y-15170686D01*
X8723253Y-15170686D02*
X8713729Y-15180210D01*
X8713729Y-15180210D02*
X8694682Y-15189734D01*
X8694682Y-15189734D02*
X8675634Y-15189734D01*
X8675634Y-15189734D02*
X8656587Y-15180210D01*
X8656587Y-15180210D02*
X8647063Y-15170686D01*
X8647063Y-15170686D02*
X8637539Y-15151638D01*
X8637539Y-15151638D02*
X8628015Y-15113543D01*
X8628015Y-15113543D02*
X8628015Y-15065924D01*
X8628015Y-15065924D02*
X8637539Y-15027829D01*
X8637539Y-15027829D02*
X8647063Y-15008781D01*
X8647063Y-15008781D02*
X8656587Y-14999258D01*
X8656587Y-14999258D02*
X8675634Y-14989734D01*
X8828015Y-15170686D02*
X8837539Y-15180210D01*
X8837539Y-15180210D02*
X8828015Y-15189734D01*
X8828015Y-15189734D02*
X8818491Y-15180210D01*
X8818491Y-15180210D02*
X8828015Y-15170686D01*
X8828015Y-15170686D02*
X8828015Y-15189734D01*
X8961348Y-14989734D02*
X8980396Y-14989734D01*
X8980396Y-14989734D02*
X8999444Y-14999258D01*
X8999444Y-14999258D02*
X9008968Y-15008781D01*
X9008968Y-15008781D02*
X9018491Y-15027829D01*
X9018491Y-15027829D02*
X9028015Y-15065924D01*
X9028015Y-15065924D02*
X9028015Y-15113543D01*
X9028015Y-15113543D02*
X9018491Y-15151638D01*
X9018491Y-15151638D02*
X9008968Y-15170686D01*
X9008968Y-15170686D02*
X8999444Y-15180210D01*
X8999444Y-15180210D02*
X8980396Y-15189734D01*
X8980396Y-15189734D02*
X8961348Y-15189734D01*
X8961348Y-15189734D02*
X8942301Y-15180210D01*
X8942301Y-15180210D02*
X8932777Y-15170686D01*
X8932777Y-15170686D02*
X8923253Y-15151638D01*
X8923253Y-15151638D02*
X8913729Y-15113543D01*
X8913729Y-15113543D02*
X8913729Y-15065924D01*
X8913729Y-15065924D02*
X8923253Y-15027829D01*
X8923253Y-15027829D02*
X8932777Y-15008781D01*
X8932777Y-15008781D02*
X8942301Y-14999258D01*
X8942301Y-14999258D02*
X8961348Y-14989734D01*
X9094682Y-14989734D02*
X9218491Y-14989734D01*
X9218491Y-14989734D02*
X9151825Y-15065924D01*
X9151825Y-15065924D02*
X9180396Y-15065924D01*
X9180396Y-15065924D02*
X9199444Y-15075448D01*
X9199444Y-15075448D02*
X9208968Y-15084972D01*
X9208968Y-15084972D02*
X9218491Y-15104019D01*
X9218491Y-15104019D02*
X9218491Y-15151638D01*
X9218491Y-15151638D02*
X9208968Y-15170686D01*
X9208968Y-15170686D02*
X9199444Y-15180210D01*
X9199444Y-15180210D02*
X9180396Y-15189734D01*
X9180396Y-15189734D02*
X9123253Y-15189734D01*
X9123253Y-15189734D02*
X9104206Y-15180210D01*
X9104206Y-15180210D02*
X9094682Y-15170686D01*
X9399444Y-14989734D02*
X9304206Y-14989734D01*
X9304206Y-14989734D02*
X9294682Y-15084972D01*
X9294682Y-15084972D02*
X9304206Y-15075448D01*
X9304206Y-15075448D02*
X9323253Y-15065924D01*
X9323253Y-15065924D02*
X9370872Y-15065924D01*
X9370872Y-15065924D02*
X9389920Y-15075448D01*
X9389920Y-15075448D02*
X9399444Y-15084972D01*
X9399444Y-15084972D02*
X9408968Y-15104019D01*
X9408968Y-15104019D02*
X9408968Y-15151638D01*
X9408968Y-15151638D02*
X9399444Y-15170686D01*
X9399444Y-15170686D02*
X9389920Y-15180210D01*
X9389920Y-15180210D02*
X9370872Y-15189734D01*
X9370872Y-15189734D02*
X9323253Y-15189734D01*
X9323253Y-15189734D02*
X9304206Y-15180210D01*
X9304206Y-15180210D02*
X9294682Y-15170686D01*
X9580396Y-15056400D02*
X9580396Y-15189734D01*
X9532777Y-14980210D02*
X9485158Y-15123067D01*
X9485158Y-15123067D02*
X9608968Y-15123067D01*
X9675634Y-14989734D02*
X9675634Y-15027829D01*
X9751825Y-14989734D02*
X9751825Y-15027829D01*
X10047063Y-15265924D02*
X10037539Y-15256400D01*
X10037539Y-15256400D02*
X10018491Y-15227829D01*
X10018491Y-15227829D02*
X10008968Y-15208781D01*
X10008968Y-15208781D02*
X9999444Y-15180210D01*
X9999444Y-15180210D02*
X9989920Y-15132591D01*
X9989920Y-15132591D02*
X9989920Y-15094496D01*
X9989920Y-15094496D02*
X9999444Y-15046877D01*
X9999444Y-15046877D02*
X10008968Y-15018305D01*
X10008968Y-15018305D02*
X10018491Y-14999258D01*
X10018491Y-14999258D02*
X10037539Y-14970686D01*
X10037539Y-14970686D02*
X10047063Y-14961162D01*
X10113730Y-15008781D02*
X10123253Y-14999258D01*
X10123253Y-14999258D02*
X10142301Y-14989734D01*
X10142301Y-14989734D02*
X10189920Y-14989734D01*
X10189920Y-14989734D02*
X10208968Y-14999258D01*
X10208968Y-14999258D02*
X10218491Y-15008781D01*
X10218491Y-15008781D02*
X10228015Y-15027829D01*
X10228015Y-15027829D02*
X10228015Y-15046877D01*
X10228015Y-15046877D02*
X10218491Y-15075448D01*
X10218491Y-15075448D02*
X10104206Y-15189734D01*
X10104206Y-15189734D02*
X10228015Y-15189734D01*
X10466111Y-15189734D02*
X10466111Y-14989734D01*
X10551825Y-15189734D02*
X10551825Y-15084972D01*
X10551825Y-15084972D02*
X10542301Y-15065924D01*
X10542301Y-15065924D02*
X10523253Y-15056400D01*
X10523253Y-15056400D02*
X10494682Y-15056400D01*
X10494682Y-15056400D02*
X10475634Y-15065924D01*
X10475634Y-15065924D02*
X10466111Y-15075448D01*
X10675634Y-15189734D02*
X10656587Y-15180210D01*
X10656587Y-15180210D02*
X10647063Y-15170686D01*
X10647063Y-15170686D02*
X10637539Y-15151638D01*
X10637539Y-15151638D02*
X10637539Y-15094496D01*
X10637539Y-15094496D02*
X10647063Y-15075448D01*
X10647063Y-15075448D02*
X10656587Y-15065924D01*
X10656587Y-15065924D02*
X10675634Y-15056400D01*
X10675634Y-15056400D02*
X10704206Y-15056400D01*
X10704206Y-15056400D02*
X10723253Y-15065924D01*
X10723253Y-15065924D02*
X10732777Y-15075448D01*
X10732777Y-15075448D02*
X10742301Y-15094496D01*
X10742301Y-15094496D02*
X10742301Y-15151638D01*
X10742301Y-15151638D02*
X10732777Y-15170686D01*
X10732777Y-15170686D02*
X10723253Y-15180210D01*
X10723253Y-15180210D02*
X10704206Y-15189734D01*
X10704206Y-15189734D02*
X10675634Y-15189734D01*
X10856587Y-15189734D02*
X10837539Y-15180210D01*
X10837539Y-15180210D02*
X10828015Y-15161162D01*
X10828015Y-15161162D02*
X10828015Y-14989734D01*
X11008968Y-15180210D02*
X10989920Y-15189734D01*
X10989920Y-15189734D02*
X10951825Y-15189734D01*
X10951825Y-15189734D02*
X10932777Y-15180210D01*
X10932777Y-15180210D02*
X10923253Y-15161162D01*
X10923253Y-15161162D02*
X10923253Y-15084972D01*
X10923253Y-15084972D02*
X10932777Y-15065924D01*
X10932777Y-15065924D02*
X10951825Y-15056400D01*
X10951825Y-15056400D02*
X10989920Y-15056400D01*
X10989920Y-15056400D02*
X11008968Y-15065924D01*
X11008968Y-15065924D02*
X11018492Y-15084972D01*
X11018492Y-15084972D02*
X11018492Y-15104019D01*
X11018492Y-15104019D02*
X10923253Y-15123067D01*
X11094682Y-15180210D02*
X11113730Y-15189734D01*
X11113730Y-15189734D02*
X11151825Y-15189734D01*
X11151825Y-15189734D02*
X11170873Y-15180210D01*
X11170873Y-15180210D02*
X11180396Y-15161162D01*
X11180396Y-15161162D02*
X11180396Y-15151638D01*
X11180396Y-15151638D02*
X11170873Y-15132591D01*
X11170873Y-15132591D02*
X11151825Y-15123067D01*
X11151825Y-15123067D02*
X11123253Y-15123067D01*
X11123253Y-15123067D02*
X11104206Y-15113543D01*
X11104206Y-15113543D02*
X11094682Y-15094496D01*
X11094682Y-15094496D02*
X11094682Y-15084972D01*
X11094682Y-15084972D02*
X11104206Y-15065924D01*
X11104206Y-15065924D02*
X11123253Y-15056400D01*
X11123253Y-15056400D02*
X11151825Y-15056400D01*
X11151825Y-15056400D02*
X11170873Y-15065924D01*
X11247063Y-15265924D02*
X11256587Y-15256400D01*
X11256587Y-15256400D02*
X11275634Y-15227829D01*
X11275634Y-15227829D02*
X11285158Y-15208781D01*
X11285158Y-15208781D02*
X11294682Y-15180210D01*
X11294682Y-15180210D02*
X11304206Y-15132591D01*
X11304206Y-15132591D02*
X11304206Y-15094496D01*
X11304206Y-15094496D02*
X11294682Y-15046877D01*
X11294682Y-15046877D02*
X11285158Y-15018305D01*
X11285158Y-15018305D02*
X11275634Y-14999258D01*
X11275634Y-14999258D02*
X11256587Y-14970686D01*
X11256587Y-14970686D02*
X11247063Y-14961162D01*
D10*
X6372000Y-15312250D02*
X6472000Y-15412250D01*
X6472000Y-15312250D02*
X6372000Y-15412250D01*
X6422000Y-15312250D02*
X6422000Y-15412250D01*
X6372000Y-15362250D02*
X6472000Y-15362250D01*
D11*
X6837539Y-15453734D02*
X6723253Y-15453734D01*
X6780396Y-15453734D02*
X6780396Y-15253734D01*
X6780396Y-15253734D02*
X6761348Y-15282305D01*
X6761348Y-15282305D02*
X6742301Y-15301353D01*
X6742301Y-15301353D02*
X6723253Y-15310877D01*
X6923253Y-15434686D02*
X6932777Y-15444210D01*
X6932777Y-15444210D02*
X6923253Y-15453734D01*
X6923253Y-15453734D02*
X6913729Y-15444210D01*
X6913729Y-15444210D02*
X6923253Y-15434686D01*
X6923253Y-15434686D02*
X6923253Y-15453734D01*
X7056586Y-15253734D02*
X7075634Y-15253734D01*
X7075634Y-15253734D02*
X7094682Y-15263258D01*
X7094682Y-15263258D02*
X7104205Y-15272781D01*
X7104205Y-15272781D02*
X7113729Y-15291829D01*
X7113729Y-15291829D02*
X7123253Y-15329924D01*
X7123253Y-15329924D02*
X7123253Y-15377543D01*
X7123253Y-15377543D02*
X7113729Y-15415638D01*
X7113729Y-15415638D02*
X7104205Y-15434686D01*
X7104205Y-15434686D02*
X7094682Y-15444210D01*
X7094682Y-15444210D02*
X7075634Y-15453734D01*
X7075634Y-15453734D02*
X7056586Y-15453734D01*
X7056586Y-15453734D02*
X7037539Y-15444210D01*
X7037539Y-15444210D02*
X7028015Y-15434686D01*
X7028015Y-15434686D02*
X7018491Y-15415638D01*
X7018491Y-15415638D02*
X7008967Y-15377543D01*
X7008967Y-15377543D02*
X7008967Y-15329924D01*
X7008967Y-15329924D02*
X7018491Y-15291829D01*
X7018491Y-15291829D02*
X7028015Y-15272781D01*
X7028015Y-15272781D02*
X7037539Y-15263258D01*
X7037539Y-15263258D02*
X7056586Y-15253734D01*
X7247062Y-15253734D02*
X7266110Y-15253734D01*
X7266110Y-15253734D02*
X7285158Y-15263258D01*
X7285158Y-15263258D02*
X7294682Y-15272781D01*
X7294682Y-15272781D02*
X7304205Y-15291829D01*
X7304205Y-15291829D02*
X7313729Y-15329924D01*
X7313729Y-15329924D02*
X7313729Y-15377543D01*
X7313729Y-15377543D02*
X7304205Y-15415638D01*
X7304205Y-15415638D02*
X7294682Y-15434686D01*
X7294682Y-15434686D02*
X7285158Y-15444210D01*
X7285158Y-15444210D02*
X7266110Y-15453734D01*
X7266110Y-15453734D02*
X7247062Y-15453734D01*
X7247062Y-15453734D02*
X7228015Y-15444210D01*
X7228015Y-15444210D02*
X7218491Y-15434686D01*
X7218491Y-15434686D02*
X7208967Y-15415638D01*
X7208967Y-15415638D02*
X7199443Y-15377543D01*
X7199443Y-15377543D02*
X7199443Y-15329924D01*
X7199443Y-15329924D02*
X7208967Y-15291829D01*
X7208967Y-15291829D02*
X7218491Y-15272781D01*
X7218491Y-15272781D02*
X7228015Y-15263258D01*
X7228015Y-15263258D02*
X7247062Y-15253734D01*
X7437539Y-15253734D02*
X7456586Y-15253734D01*
X7456586Y-15253734D02*
X7475634Y-15263258D01*
X7475634Y-15263258D02*
X7485158Y-15272781D01*
X7485158Y-15272781D02*
X7494682Y-15291829D01*
X7494682Y-15291829D02*
X7504205Y-15329924D01*
X7504205Y-15329924D02*
X7504205Y-15377543D01*
X7504205Y-15377543D02*
X7494682Y-15415638D01*
X7494682Y-15415638D02*
X7485158Y-15434686D01*
X7485158Y-15434686D02*
X7475634Y-15444210D01*
X7475634Y-15444210D02*
X7456586Y-15453734D01*
X7456586Y-15453734D02*
X7437539Y-15453734D01*
X7437539Y-15453734D02*
X7418491Y-15444210D01*
X7418491Y-15444210D02*
X7408967Y-15434686D01*
X7408967Y-15434686D02*
X7399443Y-15415638D01*
X7399443Y-15415638D02*
X7389920Y-15377543D01*
X7389920Y-15377543D02*
X7389920Y-15329924D01*
X7389920Y-15329924D02*
X7399443Y-15291829D01*
X7399443Y-15291829D02*
X7408967Y-15272781D01*
X7408967Y-15272781D02*
X7418491Y-15263258D01*
X7418491Y-15263258D02*
X7437539Y-15253734D01*
X7589920Y-15453734D02*
X7589920Y-15320400D01*
X7589920Y-15339448D02*
X7599443Y-15329924D01*
X7599443Y-15329924D02*
X7618491Y-15320400D01*
X7618491Y-15320400D02*
X7647063Y-15320400D01*
X7647063Y-15320400D02*
X7666110Y-15329924D01*
X7666110Y-15329924D02*
X7675634Y-15348972D01*
X7675634Y-15348972D02*
X7675634Y-15453734D01*
X7675634Y-15348972D02*
X7685158Y-15329924D01*
X7685158Y-15329924D02*
X7704205Y-15320400D01*
X7704205Y-15320400D02*
X7732777Y-15320400D01*
X7732777Y-15320400D02*
X7751824Y-15329924D01*
X7751824Y-15329924D02*
X7761348Y-15348972D01*
X7761348Y-15348972D02*
X7761348Y-15453734D01*
X7856586Y-15453734D02*
X7856586Y-15320400D01*
X7856586Y-15339448D02*
X7866110Y-15329924D01*
X7866110Y-15329924D02*
X7885158Y-15320400D01*
X7885158Y-15320400D02*
X7913729Y-15320400D01*
X7913729Y-15320400D02*
X7932777Y-15329924D01*
X7932777Y-15329924D02*
X7942301Y-15348972D01*
X7942301Y-15348972D02*
X7942301Y-15453734D01*
X7942301Y-15348972D02*
X7951824Y-15329924D01*
X7951824Y-15329924D02*
X7970872Y-15320400D01*
X7970872Y-15320400D02*
X7999443Y-15320400D01*
X7999443Y-15320400D02*
X8018491Y-15329924D01*
X8018491Y-15329924D02*
X8028015Y-15348972D01*
X8028015Y-15348972D02*
X8028015Y-15453734D01*
X8418491Y-15244210D02*
X8247063Y-15501353D01*
X8675634Y-15253734D02*
X8694682Y-15253734D01*
X8694682Y-15253734D02*
X8713729Y-15263258D01*
X8713729Y-15263258D02*
X8723253Y-15272781D01*
X8723253Y-15272781D02*
X8732777Y-15291829D01*
X8732777Y-15291829D02*
X8742301Y-15329924D01*
X8742301Y-15329924D02*
X8742301Y-15377543D01*
X8742301Y-15377543D02*
X8732777Y-15415638D01*
X8732777Y-15415638D02*
X8723253Y-15434686D01*
X8723253Y-15434686D02*
X8713729Y-15444210D01*
X8713729Y-15444210D02*
X8694682Y-15453734D01*
X8694682Y-15453734D02*
X8675634Y-15453734D01*
X8675634Y-15453734D02*
X8656587Y-15444210D01*
X8656587Y-15444210D02*
X8647063Y-15434686D01*
X8647063Y-15434686D02*
X8637539Y-15415638D01*
X8637539Y-15415638D02*
X8628015Y-15377543D01*
X8628015Y-15377543D02*
X8628015Y-15329924D01*
X8628015Y-15329924D02*
X8637539Y-15291829D01*
X8637539Y-15291829D02*
X8647063Y-15272781D01*
X8647063Y-15272781D02*
X8656587Y-15263258D01*
X8656587Y-15263258D02*
X8675634Y-15253734D01*
X8828015Y-15434686D02*
X8837539Y-15444210D01*
X8837539Y-15444210D02*
X8828015Y-15453734D01*
X8828015Y-15453734D02*
X8818491Y-15444210D01*
X8818491Y-15444210D02*
X8828015Y-15434686D01*
X8828015Y-15434686D02*
X8828015Y-15453734D01*
X8961348Y-15253734D02*
X8980396Y-15253734D01*
X8980396Y-15253734D02*
X8999444Y-15263258D01*
X8999444Y-15263258D02*
X9008968Y-15272781D01*
X9008968Y-15272781D02*
X9018491Y-15291829D01*
X9018491Y-15291829D02*
X9028015Y-15329924D01*
X9028015Y-15329924D02*
X9028015Y-15377543D01*
X9028015Y-15377543D02*
X9018491Y-15415638D01*
X9018491Y-15415638D02*
X9008968Y-15434686D01*
X9008968Y-15434686D02*
X8999444Y-15444210D01*
X8999444Y-15444210D02*
X8980396Y-15453734D01*
X8980396Y-15453734D02*
X8961348Y-15453734D01*
X8961348Y-15453734D02*
X8942301Y-15444210D01*
X8942301Y-15444210D02*
X8932777Y-15434686D01*
X8932777Y-15434686D02*
X8923253Y-15415638D01*
X8923253Y-15415638D02*
X8913729Y-15377543D01*
X8913729Y-15377543D02*
X8913729Y-15329924D01*
X8913729Y-15329924D02*
X8923253Y-15291829D01*
X8923253Y-15291829D02*
X8932777Y-15272781D01*
X8932777Y-15272781D02*
X8942301Y-15263258D01*
X8942301Y-15263258D02*
X8961348Y-15253734D01*
X9094682Y-15253734D02*
X9218491Y-15253734D01*
X9218491Y-15253734D02*
X9151825Y-15329924D01*
X9151825Y-15329924D02*
X9180396Y-15329924D01*
X9180396Y-15329924D02*
X9199444Y-15339448D01*
X9199444Y-15339448D02*
X9208968Y-15348972D01*
X9208968Y-15348972D02*
X9218491Y-15368019D01*
X9218491Y-15368019D02*
X9218491Y-15415638D01*
X9218491Y-15415638D02*
X9208968Y-15434686D01*
X9208968Y-15434686D02*
X9199444Y-15444210D01*
X9199444Y-15444210D02*
X9180396Y-15453734D01*
X9180396Y-15453734D02*
X9123253Y-15453734D01*
X9123253Y-15453734D02*
X9104206Y-15444210D01*
X9104206Y-15444210D02*
X9094682Y-15434686D01*
X9313729Y-15453734D02*
X9351825Y-15453734D01*
X9351825Y-15453734D02*
X9370872Y-15444210D01*
X9370872Y-15444210D02*
X9380396Y-15434686D01*
X9380396Y-15434686D02*
X9399444Y-15406115D01*
X9399444Y-15406115D02*
X9408968Y-15368019D01*
X9408968Y-15368019D02*
X9408968Y-15291829D01*
X9408968Y-15291829D02*
X9399444Y-15272781D01*
X9399444Y-15272781D02*
X9389920Y-15263258D01*
X9389920Y-15263258D02*
X9370872Y-15253734D01*
X9370872Y-15253734D02*
X9332777Y-15253734D01*
X9332777Y-15253734D02*
X9313729Y-15263258D01*
X9313729Y-15263258D02*
X9304206Y-15272781D01*
X9304206Y-15272781D02*
X9294682Y-15291829D01*
X9294682Y-15291829D02*
X9294682Y-15339448D01*
X9294682Y-15339448D02*
X9304206Y-15358496D01*
X9304206Y-15358496D02*
X9313729Y-15368019D01*
X9313729Y-15368019D02*
X9332777Y-15377543D01*
X9332777Y-15377543D02*
X9370872Y-15377543D01*
X9370872Y-15377543D02*
X9389920Y-15368019D01*
X9389920Y-15368019D02*
X9399444Y-15358496D01*
X9399444Y-15358496D02*
X9408968Y-15339448D01*
X9580396Y-15320400D02*
X9580396Y-15453734D01*
X9532777Y-15244210D02*
X9485158Y-15387067D01*
X9485158Y-15387067D02*
X9608968Y-15387067D01*
X9675634Y-15253734D02*
X9675634Y-15291829D01*
X9751825Y-15253734D02*
X9751825Y-15291829D01*
X10047063Y-15529924D02*
X10037539Y-15520400D01*
X10037539Y-15520400D02*
X10018491Y-15491829D01*
X10018491Y-15491829D02*
X10008968Y-15472781D01*
X10008968Y-15472781D02*
X9999444Y-15444210D01*
X9999444Y-15444210D02*
X9989920Y-15396591D01*
X9989920Y-15396591D02*
X9989920Y-15358496D01*
X9989920Y-15358496D02*
X9999444Y-15310877D01*
X9999444Y-15310877D02*
X10008968Y-15282305D01*
X10008968Y-15282305D02*
X10018491Y-15263258D01*
X10018491Y-15263258D02*
X10037539Y-15234686D01*
X10037539Y-15234686D02*
X10047063Y-15225162D01*
X10104206Y-15253734D02*
X10228015Y-15253734D01*
X10228015Y-15253734D02*
X10161349Y-15329924D01*
X10161349Y-15329924D02*
X10189920Y-15329924D01*
X10189920Y-15329924D02*
X10208968Y-15339448D01*
X10208968Y-15339448D02*
X10218491Y-15348972D01*
X10218491Y-15348972D02*
X10228015Y-15368019D01*
X10228015Y-15368019D02*
X10228015Y-15415638D01*
X10228015Y-15415638D02*
X10218491Y-15434686D01*
X10218491Y-15434686D02*
X10208968Y-15444210D01*
X10208968Y-15444210D02*
X10189920Y-15453734D01*
X10189920Y-15453734D02*
X10132777Y-15453734D01*
X10132777Y-15453734D02*
X10113730Y-15444210D01*
X10113730Y-15444210D02*
X10104206Y-15434686D01*
X10323253Y-15453734D02*
X10361349Y-15453734D01*
X10361349Y-15453734D02*
X10380396Y-15444210D01*
X10380396Y-15444210D02*
X10389920Y-15434686D01*
X10389920Y-15434686D02*
X10408968Y-15406115D01*
X10408968Y-15406115D02*
X10418491Y-15368019D01*
X10418491Y-15368019D02*
X10418491Y-15291829D01*
X10418491Y-15291829D02*
X10408968Y-15272781D01*
X10408968Y-15272781D02*
X10399444Y-15263258D01*
X10399444Y-15263258D02*
X10380396Y-15253734D01*
X10380396Y-15253734D02*
X10342301Y-15253734D01*
X10342301Y-15253734D02*
X10323253Y-15263258D01*
X10323253Y-15263258D02*
X10313730Y-15272781D01*
X10313730Y-15272781D02*
X10304206Y-15291829D01*
X10304206Y-15291829D02*
X10304206Y-15339448D01*
X10304206Y-15339448D02*
X10313730Y-15358496D01*
X10313730Y-15358496D02*
X10323253Y-15368019D01*
X10323253Y-15368019D02*
X10342301Y-15377543D01*
X10342301Y-15377543D02*
X10380396Y-15377543D01*
X10380396Y-15377543D02*
X10399444Y-15368019D01*
X10399444Y-15368019D02*
X10408968Y-15358496D01*
X10408968Y-15358496D02*
X10418491Y-15339448D01*
X10656587Y-15453734D02*
X10656587Y-15253734D01*
X10742301Y-15453734D02*
X10742301Y-15348972D01*
X10742301Y-15348972D02*
X10732777Y-15329924D01*
X10732777Y-15329924D02*
X10713730Y-15320400D01*
X10713730Y-15320400D02*
X10685158Y-15320400D01*
X10685158Y-15320400D02*
X10666111Y-15329924D01*
X10666111Y-15329924D02*
X10656587Y-15339448D01*
X10866111Y-15453734D02*
X10847063Y-15444210D01*
X10847063Y-15444210D02*
X10837539Y-15434686D01*
X10837539Y-15434686D02*
X10828015Y-15415638D01*
X10828015Y-15415638D02*
X10828015Y-15358496D01*
X10828015Y-15358496D02*
X10837539Y-15339448D01*
X10837539Y-15339448D02*
X10847063Y-15329924D01*
X10847063Y-15329924D02*
X10866111Y-15320400D01*
X10866111Y-15320400D02*
X10894682Y-15320400D01*
X10894682Y-15320400D02*
X10913730Y-15329924D01*
X10913730Y-15329924D02*
X10923253Y-15339448D01*
X10923253Y-15339448D02*
X10932777Y-15358496D01*
X10932777Y-15358496D02*
X10932777Y-15415638D01*
X10932777Y-15415638D02*
X10923253Y-15434686D01*
X10923253Y-15434686D02*
X10913730Y-15444210D01*
X10913730Y-15444210D02*
X10894682Y-15453734D01*
X10894682Y-15453734D02*
X10866111Y-15453734D01*
X11047063Y-15453734D02*
X11028015Y-15444210D01*
X11028015Y-15444210D02*
X11018492Y-15425162D01*
X11018492Y-15425162D02*
X11018492Y-15253734D01*
X11199444Y-15444210D02*
X11180396Y-15453734D01*
X11180396Y-15453734D02*
X11142301Y-15453734D01*
X11142301Y-15453734D02*
X11123253Y-15444210D01*
X11123253Y-15444210D02*
X11113730Y-15425162D01*
X11113730Y-15425162D02*
X11113730Y-15348972D01*
X11113730Y-15348972D02*
X11123253Y-15329924D01*
X11123253Y-15329924D02*
X11142301Y-15320400D01*
X11142301Y-15320400D02*
X11180396Y-15320400D01*
X11180396Y-15320400D02*
X11199444Y-15329924D01*
X11199444Y-15329924D02*
X11208968Y-15348972D01*
X11208968Y-15348972D02*
X11208968Y-15368019D01*
X11208968Y-15368019D02*
X11113730Y-15387067D01*
X11285158Y-15444210D02*
X11304206Y-15453734D01*
X11304206Y-15453734D02*
X11342301Y-15453734D01*
X11342301Y-15453734D02*
X11361349Y-15444210D01*
X11361349Y-15444210D02*
X11370872Y-15425162D01*
X11370872Y-15425162D02*
X11370872Y-15415638D01*
X11370872Y-15415638D02*
X11361349Y-15396591D01*
X11361349Y-15396591D02*
X11342301Y-15387067D01*
X11342301Y-15387067D02*
X11313730Y-15387067D01*
X11313730Y-15387067D02*
X11294682Y-15377543D01*
X11294682Y-15377543D02*
X11285158Y-15358496D01*
X11285158Y-15358496D02*
X11285158Y-15348972D01*
X11285158Y-15348972D02*
X11294682Y-15329924D01*
X11294682Y-15329924D02*
X11313730Y-15320400D01*
X11313730Y-15320400D02*
X11342301Y-15320400D01*
X11342301Y-15320400D02*
X11361349Y-15329924D01*
X11437539Y-15529924D02*
X11447063Y-15520400D01*
X11447063Y-15520400D02*
X11466111Y-15491829D01*
X11466111Y-15491829D02*
X11475634Y-15472781D01*
X11475634Y-15472781D02*
X11485158Y-15444210D01*
X11485158Y-15444210D02*
X11494682Y-15396591D01*
X11494682Y-15396591D02*
X11494682Y-15358496D01*
X11494682Y-15358496D02*
X11485158Y-15310877D01*
X11485158Y-15310877D02*
X11475634Y-15282305D01*
X11475634Y-15282305D02*
X11466111Y-15263258D01*
X11466111Y-15263258D02*
X11447063Y-15234686D01*
X11447063Y-15234686D02*
X11437539Y-15225162D01*
D12*
X6362000Y-15571250D02*
X6472000Y-15681250D01*
X6472000Y-15571250D02*
X6362000Y-15681250D01*
X6455891Y-15665141D02*
X6455891Y-15587359D01*
X6378109Y-15587359D01*
X6378109Y-15665141D01*
X6455891Y-15665141D01*
D11*
X6837539Y-15717734D02*
X6723253Y-15717734D01*
X6780396Y-15717734D02*
X6780396Y-15517734D01*
X6780396Y-15517734D02*
X6761348Y-15546305D01*
X6761348Y-15546305D02*
X6742301Y-15565353D01*
X6742301Y-15565353D02*
X6723253Y-15574877D01*
X6923253Y-15698686D02*
X6932777Y-15708210D01*
X6932777Y-15708210D02*
X6923253Y-15717734D01*
X6923253Y-15717734D02*
X6913729Y-15708210D01*
X6913729Y-15708210D02*
X6923253Y-15698686D01*
X6923253Y-15698686D02*
X6923253Y-15717734D01*
X7123253Y-15717734D02*
X7008967Y-15717734D01*
X7066110Y-15717734D02*
X7066110Y-15517734D01*
X7066110Y-15517734D02*
X7047062Y-15546305D01*
X7047062Y-15546305D02*
X7028015Y-15565353D01*
X7028015Y-15565353D02*
X7008967Y-15574877D01*
X7247062Y-15517734D02*
X7266110Y-15517734D01*
X7266110Y-15517734D02*
X7285158Y-15527258D01*
X7285158Y-15527258D02*
X7294682Y-15536781D01*
X7294682Y-15536781D02*
X7304205Y-15555829D01*
X7304205Y-15555829D02*
X7313729Y-15593924D01*
X7313729Y-15593924D02*
X7313729Y-15641543D01*
X7313729Y-15641543D02*
X7304205Y-15679638D01*
X7304205Y-15679638D02*
X7294682Y-15698686D01*
X7294682Y-15698686D02*
X7285158Y-15708210D01*
X7285158Y-15708210D02*
X7266110Y-15717734D01*
X7266110Y-15717734D02*
X7247062Y-15717734D01*
X7247062Y-15717734D02*
X7228015Y-15708210D01*
X7228015Y-15708210D02*
X7218491Y-15698686D01*
X7218491Y-15698686D02*
X7208967Y-15679638D01*
X7208967Y-15679638D02*
X7199443Y-15641543D01*
X7199443Y-15641543D02*
X7199443Y-15593924D01*
X7199443Y-15593924D02*
X7208967Y-15555829D01*
X7208967Y-15555829D02*
X7218491Y-15536781D01*
X7218491Y-15536781D02*
X7228015Y-15527258D01*
X7228015Y-15527258D02*
X7247062Y-15517734D01*
X7437539Y-15517734D02*
X7456586Y-15517734D01*
X7456586Y-15517734D02*
X7475634Y-15527258D01*
X7475634Y-15527258D02*
X7485158Y-15536781D01*
X7485158Y-15536781D02*
X7494682Y-15555829D01*
X7494682Y-15555829D02*
X7504205Y-15593924D01*
X7504205Y-15593924D02*
X7504205Y-15641543D01*
X7504205Y-15641543D02*
X7494682Y-15679638D01*
X7494682Y-15679638D02*
X7485158Y-15698686D01*
X7485158Y-15698686D02*
X7475634Y-15708210D01*
X7475634Y-15708210D02*
X7456586Y-15717734D01*
X7456586Y-15717734D02*
X7437539Y-15717734D01*
X7437539Y-15717734D02*
X7418491Y-15708210D01*
X7418491Y-15708210D02*
X7408967Y-15698686D01*
X7408967Y-15698686D02*
X7399443Y-15679638D01*
X7399443Y-15679638D02*
X7389920Y-15641543D01*
X7389920Y-15641543D02*
X7389920Y-15593924D01*
X7389920Y-15593924D02*
X7399443Y-15555829D01*
X7399443Y-15555829D02*
X7408967Y-15536781D01*
X7408967Y-15536781D02*
X7418491Y-15527258D01*
X7418491Y-15527258D02*
X7437539Y-15517734D01*
X7589920Y-15717734D02*
X7589920Y-15584400D01*
X7589920Y-15603448D02*
X7599443Y-15593924D01*
X7599443Y-15593924D02*
X7618491Y-15584400D01*
X7618491Y-15584400D02*
X7647063Y-15584400D01*
X7647063Y-15584400D02*
X7666110Y-15593924D01*
X7666110Y-15593924D02*
X7675634Y-15612972D01*
X7675634Y-15612972D02*
X7675634Y-15717734D01*
X7675634Y-15612972D02*
X7685158Y-15593924D01*
X7685158Y-15593924D02*
X7704205Y-15584400D01*
X7704205Y-15584400D02*
X7732777Y-15584400D01*
X7732777Y-15584400D02*
X7751824Y-15593924D01*
X7751824Y-15593924D02*
X7761348Y-15612972D01*
X7761348Y-15612972D02*
X7761348Y-15717734D01*
X7856586Y-15717734D02*
X7856586Y-15584400D01*
X7856586Y-15603448D02*
X7866110Y-15593924D01*
X7866110Y-15593924D02*
X7885158Y-15584400D01*
X7885158Y-15584400D02*
X7913729Y-15584400D01*
X7913729Y-15584400D02*
X7932777Y-15593924D01*
X7932777Y-15593924D02*
X7942301Y-15612972D01*
X7942301Y-15612972D02*
X7942301Y-15717734D01*
X7942301Y-15612972D02*
X7951824Y-15593924D01*
X7951824Y-15593924D02*
X7970872Y-15584400D01*
X7970872Y-15584400D02*
X7999443Y-15584400D01*
X7999443Y-15584400D02*
X8018491Y-15593924D01*
X8018491Y-15593924D02*
X8028015Y-15612972D01*
X8028015Y-15612972D02*
X8028015Y-15717734D01*
X8418491Y-15508210D02*
X8247063Y-15765353D01*
X8675634Y-15517734D02*
X8694682Y-15517734D01*
X8694682Y-15517734D02*
X8713729Y-15527258D01*
X8713729Y-15527258D02*
X8723253Y-15536781D01*
X8723253Y-15536781D02*
X8732777Y-15555829D01*
X8732777Y-15555829D02*
X8742301Y-15593924D01*
X8742301Y-15593924D02*
X8742301Y-15641543D01*
X8742301Y-15641543D02*
X8732777Y-15679638D01*
X8732777Y-15679638D02*
X8723253Y-15698686D01*
X8723253Y-15698686D02*
X8713729Y-15708210D01*
X8713729Y-15708210D02*
X8694682Y-15717734D01*
X8694682Y-15717734D02*
X8675634Y-15717734D01*
X8675634Y-15717734D02*
X8656587Y-15708210D01*
X8656587Y-15708210D02*
X8647063Y-15698686D01*
X8647063Y-15698686D02*
X8637539Y-15679638D01*
X8637539Y-15679638D02*
X8628015Y-15641543D01*
X8628015Y-15641543D02*
X8628015Y-15593924D01*
X8628015Y-15593924D02*
X8637539Y-15555829D01*
X8637539Y-15555829D02*
X8647063Y-15536781D01*
X8647063Y-15536781D02*
X8656587Y-15527258D01*
X8656587Y-15527258D02*
X8675634Y-15517734D01*
X8828015Y-15698686D02*
X8837539Y-15708210D01*
X8837539Y-15708210D02*
X8828015Y-15717734D01*
X8828015Y-15717734D02*
X8818491Y-15708210D01*
X8818491Y-15708210D02*
X8828015Y-15698686D01*
X8828015Y-15698686D02*
X8828015Y-15717734D01*
X8961348Y-15517734D02*
X8980396Y-15517734D01*
X8980396Y-15517734D02*
X8999444Y-15527258D01*
X8999444Y-15527258D02*
X9008968Y-15536781D01*
X9008968Y-15536781D02*
X9018491Y-15555829D01*
X9018491Y-15555829D02*
X9028015Y-15593924D01*
X9028015Y-15593924D02*
X9028015Y-15641543D01*
X9028015Y-15641543D02*
X9018491Y-15679638D01*
X9018491Y-15679638D02*
X9008968Y-15698686D01*
X9008968Y-15698686D02*
X8999444Y-15708210D01*
X8999444Y-15708210D02*
X8980396Y-15717734D01*
X8980396Y-15717734D02*
X8961348Y-15717734D01*
X8961348Y-15717734D02*
X8942301Y-15708210D01*
X8942301Y-15708210D02*
X8932777Y-15698686D01*
X8932777Y-15698686D02*
X8923253Y-15679638D01*
X8923253Y-15679638D02*
X8913729Y-15641543D01*
X8913729Y-15641543D02*
X8913729Y-15593924D01*
X8913729Y-15593924D02*
X8923253Y-15555829D01*
X8923253Y-15555829D02*
X8932777Y-15536781D01*
X8932777Y-15536781D02*
X8942301Y-15527258D01*
X8942301Y-15527258D02*
X8961348Y-15517734D01*
X9199444Y-15584400D02*
X9199444Y-15717734D01*
X9151825Y-15508210D02*
X9104206Y-15651067D01*
X9104206Y-15651067D02*
X9228015Y-15651067D01*
X9285158Y-15517734D02*
X9408968Y-15517734D01*
X9408968Y-15517734D02*
X9342301Y-15593924D01*
X9342301Y-15593924D02*
X9370872Y-15593924D01*
X9370872Y-15593924D02*
X9389920Y-15603448D01*
X9389920Y-15603448D02*
X9399444Y-15612972D01*
X9399444Y-15612972D02*
X9408968Y-15632019D01*
X9408968Y-15632019D02*
X9408968Y-15679638D01*
X9408968Y-15679638D02*
X9399444Y-15698686D01*
X9399444Y-15698686D02*
X9389920Y-15708210D01*
X9389920Y-15708210D02*
X9370872Y-15717734D01*
X9370872Y-15717734D02*
X9313729Y-15717734D01*
X9313729Y-15717734D02*
X9294682Y-15708210D01*
X9294682Y-15708210D02*
X9285158Y-15698686D01*
X9475634Y-15517734D02*
X9599444Y-15517734D01*
X9599444Y-15517734D02*
X9532777Y-15593924D01*
X9532777Y-15593924D02*
X9561349Y-15593924D01*
X9561349Y-15593924D02*
X9580396Y-15603448D01*
X9580396Y-15603448D02*
X9589920Y-15612972D01*
X9589920Y-15612972D02*
X9599444Y-15632019D01*
X9599444Y-15632019D02*
X9599444Y-15679638D01*
X9599444Y-15679638D02*
X9589920Y-15698686D01*
X9589920Y-15698686D02*
X9580396Y-15708210D01*
X9580396Y-15708210D02*
X9561349Y-15717734D01*
X9561349Y-15717734D02*
X9504206Y-15717734D01*
X9504206Y-15717734D02*
X9485158Y-15708210D01*
X9485158Y-15708210D02*
X9475634Y-15698686D01*
X9675634Y-15517734D02*
X9675634Y-15555829D01*
X9751825Y-15517734D02*
X9751825Y-15555829D01*
X10047063Y-15793924D02*
X10037539Y-15784400D01*
X10037539Y-15784400D02*
X10018491Y-15755829D01*
X10018491Y-15755829D02*
X10008968Y-15736781D01*
X10008968Y-15736781D02*
X9999444Y-15708210D01*
X9999444Y-15708210D02*
X9989920Y-15660591D01*
X9989920Y-15660591D02*
X9989920Y-15622496D01*
X9989920Y-15622496D02*
X9999444Y-15574877D01*
X9999444Y-15574877D02*
X10008968Y-15546305D01*
X10008968Y-15546305D02*
X10018491Y-15527258D01*
X10018491Y-15527258D02*
X10037539Y-15498686D01*
X10037539Y-15498686D02*
X10047063Y-15489162D01*
X10113730Y-15536781D02*
X10123253Y-15527258D01*
X10123253Y-15527258D02*
X10142301Y-15517734D01*
X10142301Y-15517734D02*
X10189920Y-15517734D01*
X10189920Y-15517734D02*
X10208968Y-15527258D01*
X10208968Y-15527258D02*
X10218491Y-15536781D01*
X10218491Y-15536781D02*
X10228015Y-15555829D01*
X10228015Y-15555829D02*
X10228015Y-15574877D01*
X10228015Y-15574877D02*
X10218491Y-15603448D01*
X10218491Y-15603448D02*
X10104206Y-15717734D01*
X10104206Y-15717734D02*
X10228015Y-15717734D01*
X10304206Y-15536781D02*
X10313730Y-15527258D01*
X10313730Y-15527258D02*
X10332777Y-15517734D01*
X10332777Y-15517734D02*
X10380396Y-15517734D01*
X10380396Y-15517734D02*
X10399444Y-15527258D01*
X10399444Y-15527258D02*
X10408968Y-15536781D01*
X10408968Y-15536781D02*
X10418491Y-15555829D01*
X10418491Y-15555829D02*
X10418491Y-15574877D01*
X10418491Y-15574877D02*
X10408968Y-15603448D01*
X10408968Y-15603448D02*
X10294682Y-15717734D01*
X10294682Y-15717734D02*
X10418491Y-15717734D01*
X10656587Y-15717734D02*
X10656587Y-15517734D01*
X10742301Y-15717734D02*
X10742301Y-15612972D01*
X10742301Y-15612972D02*
X10732777Y-15593924D01*
X10732777Y-15593924D02*
X10713730Y-15584400D01*
X10713730Y-15584400D02*
X10685158Y-15584400D01*
X10685158Y-15584400D02*
X10666111Y-15593924D01*
X10666111Y-15593924D02*
X10656587Y-15603448D01*
X10866111Y-15717734D02*
X10847063Y-15708210D01*
X10847063Y-15708210D02*
X10837539Y-15698686D01*
X10837539Y-15698686D02*
X10828015Y-15679638D01*
X10828015Y-15679638D02*
X10828015Y-15622496D01*
X10828015Y-15622496D02*
X10837539Y-15603448D01*
X10837539Y-15603448D02*
X10847063Y-15593924D01*
X10847063Y-15593924D02*
X10866111Y-15584400D01*
X10866111Y-15584400D02*
X10894682Y-15584400D01*
X10894682Y-15584400D02*
X10913730Y-15593924D01*
X10913730Y-15593924D02*
X10923253Y-15603448D01*
X10923253Y-15603448D02*
X10932777Y-15622496D01*
X10932777Y-15622496D02*
X10932777Y-15679638D01*
X10932777Y-15679638D02*
X10923253Y-15698686D01*
X10923253Y-15698686D02*
X10913730Y-15708210D01*
X10913730Y-15708210D02*
X10894682Y-15717734D01*
X10894682Y-15717734D02*
X10866111Y-15717734D01*
X11047063Y-15717734D02*
X11028015Y-15708210D01*
X11028015Y-15708210D02*
X11018492Y-15689162D01*
X11018492Y-15689162D02*
X11018492Y-15517734D01*
X11199444Y-15708210D02*
X11180396Y-15717734D01*
X11180396Y-15717734D02*
X11142301Y-15717734D01*
X11142301Y-15717734D02*
X11123253Y-15708210D01*
X11123253Y-15708210D02*
X11113730Y-15689162D01*
X11113730Y-15689162D02*
X11113730Y-15612972D01*
X11113730Y-15612972D02*
X11123253Y-15593924D01*
X11123253Y-15593924D02*
X11142301Y-15584400D01*
X11142301Y-15584400D02*
X11180396Y-15584400D01*
X11180396Y-15584400D02*
X11199444Y-15593924D01*
X11199444Y-15593924D02*
X11208968Y-15612972D01*
X11208968Y-15612972D02*
X11208968Y-15632019D01*
X11208968Y-15632019D02*
X11113730Y-15651067D01*
X11285158Y-15708210D02*
X11304206Y-15717734D01*
X11304206Y-15717734D02*
X11342301Y-15717734D01*
X11342301Y-15717734D02*
X11361349Y-15708210D01*
X11361349Y-15708210D02*
X11370872Y-15689162D01*
X11370872Y-15689162D02*
X11370872Y-15679638D01*
X11370872Y-15679638D02*
X11361349Y-15660591D01*
X11361349Y-15660591D02*
X11342301Y-15651067D01*
X11342301Y-15651067D02*
X11313730Y-15651067D01*
X11313730Y-15651067D02*
X11294682Y-15641543D01*
X11294682Y-15641543D02*
X11285158Y-15622496D01*
X11285158Y-15622496D02*
X11285158Y-15612972D01*
X11285158Y-15612972D02*
X11294682Y-15593924D01*
X11294682Y-15593924D02*
X11313730Y-15584400D01*
X11313730Y-15584400D02*
X11342301Y-15584400D01*
X11342301Y-15584400D02*
X11361349Y-15593924D01*
X11437539Y-15793924D02*
X11447063Y-15784400D01*
X11447063Y-15784400D02*
X11466111Y-15755829D01*
X11466111Y-15755829D02*
X11475634Y-15736781D01*
X11475634Y-15736781D02*
X11485158Y-15708210D01*
X11485158Y-15708210D02*
X11494682Y-15660591D01*
X11494682Y-15660591D02*
X11494682Y-15622496D01*
X11494682Y-15622496D02*
X11485158Y-15574877D01*
X11485158Y-15574877D02*
X11475634Y-15546305D01*
X11475634Y-15546305D02*
X11466111Y-15527258D01*
X11466111Y-15527258D02*
X11447063Y-15498686D01*
X11447063Y-15498686D02*
X11437539Y-15489162D01*
D13*
X6347000Y-15827750D02*
X6472000Y-15952750D01*
X6472000Y-15827750D02*
X6347000Y-15952750D01*
X6409500Y-15952750D02*
X6472000Y-15890250D01*
X6409500Y-15827750D01*
X6347000Y-15890250D01*
X6409500Y-15952750D01*
D11*
X6837539Y-15981734D02*
X6723253Y-15981734D01*
X6780396Y-15981734D02*
X6780396Y-15781734D01*
X6780396Y-15781734D02*
X6761348Y-15810305D01*
X6761348Y-15810305D02*
X6742301Y-15829353D01*
X6742301Y-15829353D02*
X6723253Y-15838877D01*
X6923253Y-15962686D02*
X6932777Y-15972210D01*
X6932777Y-15972210D02*
X6923253Y-15981734D01*
X6923253Y-15981734D02*
X6913729Y-15972210D01*
X6913729Y-15972210D02*
X6923253Y-15962686D01*
X6923253Y-15962686D02*
X6923253Y-15981734D01*
X7008967Y-15800781D02*
X7018491Y-15791258D01*
X7018491Y-15791258D02*
X7037539Y-15781734D01*
X7037539Y-15781734D02*
X7085158Y-15781734D01*
X7085158Y-15781734D02*
X7104205Y-15791258D01*
X7104205Y-15791258D02*
X7113729Y-15800781D01*
X7113729Y-15800781D02*
X7123253Y-15819829D01*
X7123253Y-15819829D02*
X7123253Y-15838877D01*
X7123253Y-15838877D02*
X7113729Y-15867448D01*
X7113729Y-15867448D02*
X6999443Y-15981734D01*
X6999443Y-15981734D02*
X7123253Y-15981734D01*
X7304205Y-15781734D02*
X7208967Y-15781734D01*
X7208967Y-15781734D02*
X7199443Y-15876972D01*
X7199443Y-15876972D02*
X7208967Y-15867448D01*
X7208967Y-15867448D02*
X7228015Y-15857924D01*
X7228015Y-15857924D02*
X7275634Y-15857924D01*
X7275634Y-15857924D02*
X7294682Y-15867448D01*
X7294682Y-15867448D02*
X7304205Y-15876972D01*
X7304205Y-15876972D02*
X7313729Y-15896019D01*
X7313729Y-15896019D02*
X7313729Y-15943638D01*
X7313729Y-15943638D02*
X7304205Y-15962686D01*
X7304205Y-15962686D02*
X7294682Y-15972210D01*
X7294682Y-15972210D02*
X7275634Y-15981734D01*
X7275634Y-15981734D02*
X7228015Y-15981734D01*
X7228015Y-15981734D02*
X7208967Y-15972210D01*
X7208967Y-15972210D02*
X7199443Y-15962686D01*
X7437539Y-15781734D02*
X7456586Y-15781734D01*
X7456586Y-15781734D02*
X7475634Y-15791258D01*
X7475634Y-15791258D02*
X7485158Y-15800781D01*
X7485158Y-15800781D02*
X7494682Y-15819829D01*
X7494682Y-15819829D02*
X7504205Y-15857924D01*
X7504205Y-15857924D02*
X7504205Y-15905543D01*
X7504205Y-15905543D02*
X7494682Y-15943638D01*
X7494682Y-15943638D02*
X7485158Y-15962686D01*
X7485158Y-15962686D02*
X7475634Y-15972210D01*
X7475634Y-15972210D02*
X7456586Y-15981734D01*
X7456586Y-15981734D02*
X7437539Y-15981734D01*
X7437539Y-15981734D02*
X7418491Y-15972210D01*
X7418491Y-15972210D02*
X7408967Y-15962686D01*
X7408967Y-15962686D02*
X7399443Y-15943638D01*
X7399443Y-15943638D02*
X7389920Y-15905543D01*
X7389920Y-15905543D02*
X7389920Y-15857924D01*
X7389920Y-15857924D02*
X7399443Y-15819829D01*
X7399443Y-15819829D02*
X7408967Y-15800781D01*
X7408967Y-15800781D02*
X7418491Y-15791258D01*
X7418491Y-15791258D02*
X7437539Y-15781734D01*
X7589920Y-15981734D02*
X7589920Y-15848400D01*
X7589920Y-15867448D02*
X7599443Y-15857924D01*
X7599443Y-15857924D02*
X7618491Y-15848400D01*
X7618491Y-15848400D02*
X7647063Y-15848400D01*
X7647063Y-15848400D02*
X7666110Y-15857924D01*
X7666110Y-15857924D02*
X7675634Y-15876972D01*
X7675634Y-15876972D02*
X7675634Y-15981734D01*
X7675634Y-15876972D02*
X7685158Y-15857924D01*
X7685158Y-15857924D02*
X7704205Y-15848400D01*
X7704205Y-15848400D02*
X7732777Y-15848400D01*
X7732777Y-15848400D02*
X7751824Y-15857924D01*
X7751824Y-15857924D02*
X7761348Y-15876972D01*
X7761348Y-15876972D02*
X7761348Y-15981734D01*
X7856586Y-15981734D02*
X7856586Y-15848400D01*
X7856586Y-15867448D02*
X7866110Y-15857924D01*
X7866110Y-15857924D02*
X7885158Y-15848400D01*
X7885158Y-15848400D02*
X7913729Y-15848400D01*
X7913729Y-15848400D02*
X7932777Y-15857924D01*
X7932777Y-15857924D02*
X7942301Y-15876972D01*
X7942301Y-15876972D02*
X7942301Y-15981734D01*
X7942301Y-15876972D02*
X7951824Y-15857924D01*
X7951824Y-15857924D02*
X7970872Y-15848400D01*
X7970872Y-15848400D02*
X7999443Y-15848400D01*
X7999443Y-15848400D02*
X8018491Y-15857924D01*
X8018491Y-15857924D02*
X8028015Y-15876972D01*
X8028015Y-15876972D02*
X8028015Y-15981734D01*
X8418491Y-15772210D02*
X8247063Y-16029353D01*
X8675634Y-15781734D02*
X8694682Y-15781734D01*
X8694682Y-15781734D02*
X8713729Y-15791258D01*
X8713729Y-15791258D02*
X8723253Y-15800781D01*
X8723253Y-15800781D02*
X8732777Y-15819829D01*
X8732777Y-15819829D02*
X8742301Y-15857924D01*
X8742301Y-15857924D02*
X8742301Y-15905543D01*
X8742301Y-15905543D02*
X8732777Y-15943638D01*
X8732777Y-15943638D02*
X8723253Y-15962686D01*
X8723253Y-15962686D02*
X8713729Y-15972210D01*
X8713729Y-15972210D02*
X8694682Y-15981734D01*
X8694682Y-15981734D02*
X8675634Y-15981734D01*
X8675634Y-15981734D02*
X8656587Y-15972210D01*
X8656587Y-15972210D02*
X8647063Y-15962686D01*
X8647063Y-15962686D02*
X8637539Y-15943638D01*
X8637539Y-15943638D02*
X8628015Y-15905543D01*
X8628015Y-15905543D02*
X8628015Y-15857924D01*
X8628015Y-15857924D02*
X8637539Y-15819829D01*
X8637539Y-15819829D02*
X8647063Y-15800781D01*
X8647063Y-15800781D02*
X8656587Y-15791258D01*
X8656587Y-15791258D02*
X8675634Y-15781734D01*
X8828015Y-15962686D02*
X8837539Y-15972210D01*
X8837539Y-15972210D02*
X8828015Y-15981734D01*
X8828015Y-15981734D02*
X8818491Y-15972210D01*
X8818491Y-15972210D02*
X8828015Y-15962686D01*
X8828015Y-15962686D02*
X8828015Y-15981734D01*
X8961348Y-15781734D02*
X8980396Y-15781734D01*
X8980396Y-15781734D02*
X8999444Y-15791258D01*
X8999444Y-15791258D02*
X9008968Y-15800781D01*
X9008968Y-15800781D02*
X9018491Y-15819829D01*
X9018491Y-15819829D02*
X9028015Y-15857924D01*
X9028015Y-15857924D02*
X9028015Y-15905543D01*
X9028015Y-15905543D02*
X9018491Y-15943638D01*
X9018491Y-15943638D02*
X9008968Y-15962686D01*
X9008968Y-15962686D02*
X8999444Y-15972210D01*
X8999444Y-15972210D02*
X8980396Y-15981734D01*
X8980396Y-15981734D02*
X8961348Y-15981734D01*
X8961348Y-15981734D02*
X8942301Y-15972210D01*
X8942301Y-15972210D02*
X8932777Y-15962686D01*
X8932777Y-15962686D02*
X8923253Y-15943638D01*
X8923253Y-15943638D02*
X8913729Y-15905543D01*
X8913729Y-15905543D02*
X8913729Y-15857924D01*
X8913729Y-15857924D02*
X8923253Y-15819829D01*
X8923253Y-15819829D02*
X8932777Y-15800781D01*
X8932777Y-15800781D02*
X8942301Y-15791258D01*
X8942301Y-15791258D02*
X8961348Y-15781734D01*
X9199444Y-15848400D02*
X9199444Y-15981734D01*
X9151825Y-15772210D02*
X9104206Y-15915067D01*
X9104206Y-15915067D02*
X9228015Y-15915067D01*
X9313729Y-15981734D02*
X9351825Y-15981734D01*
X9351825Y-15981734D02*
X9370872Y-15972210D01*
X9370872Y-15972210D02*
X9380396Y-15962686D01*
X9380396Y-15962686D02*
X9399444Y-15934115D01*
X9399444Y-15934115D02*
X9408968Y-15896019D01*
X9408968Y-15896019D02*
X9408968Y-15819829D01*
X9408968Y-15819829D02*
X9399444Y-15800781D01*
X9399444Y-15800781D02*
X9389920Y-15791258D01*
X9389920Y-15791258D02*
X9370872Y-15781734D01*
X9370872Y-15781734D02*
X9332777Y-15781734D01*
X9332777Y-15781734D02*
X9313729Y-15791258D01*
X9313729Y-15791258D02*
X9304206Y-15800781D01*
X9304206Y-15800781D02*
X9294682Y-15819829D01*
X9294682Y-15819829D02*
X9294682Y-15867448D01*
X9294682Y-15867448D02*
X9304206Y-15886496D01*
X9304206Y-15886496D02*
X9313729Y-15896019D01*
X9313729Y-15896019D02*
X9332777Y-15905543D01*
X9332777Y-15905543D02*
X9370872Y-15905543D01*
X9370872Y-15905543D02*
X9389920Y-15896019D01*
X9389920Y-15896019D02*
X9399444Y-15886496D01*
X9399444Y-15886496D02*
X9408968Y-15867448D01*
X9485158Y-15800781D02*
X9494682Y-15791258D01*
X9494682Y-15791258D02*
X9513729Y-15781734D01*
X9513729Y-15781734D02*
X9561349Y-15781734D01*
X9561349Y-15781734D02*
X9580396Y-15791258D01*
X9580396Y-15791258D02*
X9589920Y-15800781D01*
X9589920Y-15800781D02*
X9599444Y-15819829D01*
X9599444Y-15819829D02*
X9599444Y-15838877D01*
X9599444Y-15838877D02*
X9589920Y-15867448D01*
X9589920Y-15867448D02*
X9475634Y-15981734D01*
X9475634Y-15981734D02*
X9599444Y-15981734D01*
X9675634Y-15781734D02*
X9675634Y-15819829D01*
X9751825Y-15781734D02*
X9751825Y-15819829D01*
X10047063Y-16057924D02*
X10037539Y-16048400D01*
X10037539Y-16048400D02*
X10018491Y-16019829D01*
X10018491Y-16019829D02*
X10008968Y-16000781D01*
X10008968Y-16000781D02*
X9999444Y-15972210D01*
X9999444Y-15972210D02*
X9989920Y-15924591D01*
X9989920Y-15924591D02*
X9989920Y-15886496D01*
X9989920Y-15886496D02*
X9999444Y-15838877D01*
X9999444Y-15838877D02*
X10008968Y-15810305D01*
X10008968Y-15810305D02*
X10018491Y-15791258D01*
X10018491Y-15791258D02*
X10037539Y-15762686D01*
X10037539Y-15762686D02*
X10047063Y-15753162D01*
X10151825Y-15867448D02*
X10132777Y-15857924D01*
X10132777Y-15857924D02*
X10123253Y-15848400D01*
X10123253Y-15848400D02*
X10113730Y-15829353D01*
X10113730Y-15829353D02*
X10113730Y-15819829D01*
X10113730Y-15819829D02*
X10123253Y-15800781D01*
X10123253Y-15800781D02*
X10132777Y-15791258D01*
X10132777Y-15791258D02*
X10151825Y-15781734D01*
X10151825Y-15781734D02*
X10189920Y-15781734D01*
X10189920Y-15781734D02*
X10208968Y-15791258D01*
X10208968Y-15791258D02*
X10218491Y-15800781D01*
X10218491Y-15800781D02*
X10228015Y-15819829D01*
X10228015Y-15819829D02*
X10228015Y-15829353D01*
X10228015Y-15829353D02*
X10218491Y-15848400D01*
X10218491Y-15848400D02*
X10208968Y-15857924D01*
X10208968Y-15857924D02*
X10189920Y-15867448D01*
X10189920Y-15867448D02*
X10151825Y-15867448D01*
X10151825Y-15867448D02*
X10132777Y-15876972D01*
X10132777Y-15876972D02*
X10123253Y-15886496D01*
X10123253Y-15886496D02*
X10113730Y-15905543D01*
X10113730Y-15905543D02*
X10113730Y-15943638D01*
X10113730Y-15943638D02*
X10123253Y-15962686D01*
X10123253Y-15962686D02*
X10132777Y-15972210D01*
X10132777Y-15972210D02*
X10151825Y-15981734D01*
X10151825Y-15981734D02*
X10189920Y-15981734D01*
X10189920Y-15981734D02*
X10208968Y-15972210D01*
X10208968Y-15972210D02*
X10218491Y-15962686D01*
X10218491Y-15962686D02*
X10228015Y-15943638D01*
X10228015Y-15943638D02*
X10228015Y-15905543D01*
X10228015Y-15905543D02*
X10218491Y-15886496D01*
X10218491Y-15886496D02*
X10208968Y-15876972D01*
X10208968Y-15876972D02*
X10189920Y-15867448D01*
X10466111Y-15981734D02*
X10466111Y-15781734D01*
X10551825Y-15981734D02*
X10551825Y-15876972D01*
X10551825Y-15876972D02*
X10542301Y-15857924D01*
X10542301Y-15857924D02*
X10523253Y-15848400D01*
X10523253Y-15848400D02*
X10494682Y-15848400D01*
X10494682Y-15848400D02*
X10475634Y-15857924D01*
X10475634Y-15857924D02*
X10466111Y-15867448D01*
X10675634Y-15981734D02*
X10656587Y-15972210D01*
X10656587Y-15972210D02*
X10647063Y-15962686D01*
X10647063Y-15962686D02*
X10637539Y-15943638D01*
X10637539Y-15943638D02*
X10637539Y-15886496D01*
X10637539Y-15886496D02*
X10647063Y-15867448D01*
X10647063Y-15867448D02*
X10656587Y-15857924D01*
X10656587Y-15857924D02*
X10675634Y-15848400D01*
X10675634Y-15848400D02*
X10704206Y-15848400D01*
X10704206Y-15848400D02*
X10723253Y-15857924D01*
X10723253Y-15857924D02*
X10732777Y-15867448D01*
X10732777Y-15867448D02*
X10742301Y-15886496D01*
X10742301Y-15886496D02*
X10742301Y-15943638D01*
X10742301Y-15943638D02*
X10732777Y-15962686D01*
X10732777Y-15962686D02*
X10723253Y-15972210D01*
X10723253Y-15972210D02*
X10704206Y-15981734D01*
X10704206Y-15981734D02*
X10675634Y-15981734D01*
X10856587Y-15981734D02*
X10837539Y-15972210D01*
X10837539Y-15972210D02*
X10828015Y-15953162D01*
X10828015Y-15953162D02*
X10828015Y-15781734D01*
X11008968Y-15972210D02*
X10989920Y-15981734D01*
X10989920Y-15981734D02*
X10951825Y-15981734D01*
X10951825Y-15981734D02*
X10932777Y-15972210D01*
X10932777Y-15972210D02*
X10923253Y-15953162D01*
X10923253Y-15953162D02*
X10923253Y-15876972D01*
X10923253Y-15876972D02*
X10932777Y-15857924D01*
X10932777Y-15857924D02*
X10951825Y-15848400D01*
X10951825Y-15848400D02*
X10989920Y-15848400D01*
X10989920Y-15848400D02*
X11008968Y-15857924D01*
X11008968Y-15857924D02*
X11018492Y-15876972D01*
X11018492Y-15876972D02*
X11018492Y-15896019D01*
X11018492Y-15896019D02*
X10923253Y-15915067D01*
X11094682Y-15972210D02*
X11113730Y-15981734D01*
X11113730Y-15981734D02*
X11151825Y-15981734D01*
X11151825Y-15981734D02*
X11170873Y-15972210D01*
X11170873Y-15972210D02*
X11180396Y-15953162D01*
X11180396Y-15953162D02*
X11180396Y-15943638D01*
X11180396Y-15943638D02*
X11170873Y-15924591D01*
X11170873Y-15924591D02*
X11151825Y-15915067D01*
X11151825Y-15915067D02*
X11123253Y-15915067D01*
X11123253Y-15915067D02*
X11104206Y-15905543D01*
X11104206Y-15905543D02*
X11094682Y-15886496D01*
X11094682Y-15886496D02*
X11094682Y-15876972D01*
X11094682Y-15876972D02*
X11104206Y-15857924D01*
X11104206Y-15857924D02*
X11123253Y-15848400D01*
X11123253Y-15848400D02*
X11151825Y-15848400D01*
X11151825Y-15848400D02*
X11170873Y-15857924D01*
X11247063Y-16057924D02*
X11256587Y-16048400D01*
X11256587Y-16048400D02*
X11275634Y-16019829D01*
X11275634Y-16019829D02*
X11285158Y-16000781D01*
X11285158Y-16000781D02*
X11294682Y-15972210D01*
X11294682Y-15972210D02*
X11304206Y-15924591D01*
X11304206Y-15924591D02*
X11304206Y-15886496D01*
X11304206Y-15886496D02*
X11294682Y-15838877D01*
X11294682Y-15838877D02*
X11285158Y-15810305D01*
X11285158Y-15810305D02*
X11275634Y-15791258D01*
X11275634Y-15791258D02*
X11256587Y-15762686D01*
X11256587Y-15762686D02*
X11247063Y-15753162D01*
D14*
X6407000Y-16089250D02*
X6407000Y-16219250D01*
X6342000Y-16154250D02*
X6472000Y-16154250D01*
X6472000Y-16154250D02*
G75*
G03*
X6472000Y-16154250I-65000J0D01*
G01*
D11*
X6837539Y-16245734D02*
X6723253Y-16245734D01*
X6780396Y-16245734D02*
X6780396Y-16045734D01*
X6780396Y-16045734D02*
X6761348Y-16074305D01*
X6761348Y-16074305D02*
X6742301Y-16093353D01*
X6742301Y-16093353D02*
X6723253Y-16102877D01*
X6923253Y-16226686D02*
X6932777Y-16236210D01*
X6932777Y-16236210D02*
X6923253Y-16245734D01*
X6923253Y-16245734D02*
X6913729Y-16236210D01*
X6913729Y-16236210D02*
X6923253Y-16226686D01*
X6923253Y-16226686D02*
X6923253Y-16245734D01*
X6999443Y-16045734D02*
X7123253Y-16045734D01*
X7123253Y-16045734D02*
X7056586Y-16121924D01*
X7056586Y-16121924D02*
X7085158Y-16121924D01*
X7085158Y-16121924D02*
X7104205Y-16131448D01*
X7104205Y-16131448D02*
X7113729Y-16140972D01*
X7113729Y-16140972D02*
X7123253Y-16160019D01*
X7123253Y-16160019D02*
X7123253Y-16207638D01*
X7123253Y-16207638D02*
X7113729Y-16226686D01*
X7113729Y-16226686D02*
X7104205Y-16236210D01*
X7104205Y-16236210D02*
X7085158Y-16245734D01*
X7085158Y-16245734D02*
X7028015Y-16245734D01*
X7028015Y-16245734D02*
X7008967Y-16236210D01*
X7008967Y-16236210D02*
X6999443Y-16226686D01*
X7247062Y-16045734D02*
X7266110Y-16045734D01*
X7266110Y-16045734D02*
X7285158Y-16055258D01*
X7285158Y-16055258D02*
X7294682Y-16064781D01*
X7294682Y-16064781D02*
X7304205Y-16083829D01*
X7304205Y-16083829D02*
X7313729Y-16121924D01*
X7313729Y-16121924D02*
X7313729Y-16169543D01*
X7313729Y-16169543D02*
X7304205Y-16207638D01*
X7304205Y-16207638D02*
X7294682Y-16226686D01*
X7294682Y-16226686D02*
X7285158Y-16236210D01*
X7285158Y-16236210D02*
X7266110Y-16245734D01*
X7266110Y-16245734D02*
X7247062Y-16245734D01*
X7247062Y-16245734D02*
X7228015Y-16236210D01*
X7228015Y-16236210D02*
X7218491Y-16226686D01*
X7218491Y-16226686D02*
X7208967Y-16207638D01*
X7208967Y-16207638D02*
X7199443Y-16169543D01*
X7199443Y-16169543D02*
X7199443Y-16121924D01*
X7199443Y-16121924D02*
X7208967Y-16083829D01*
X7208967Y-16083829D02*
X7218491Y-16064781D01*
X7218491Y-16064781D02*
X7228015Y-16055258D01*
X7228015Y-16055258D02*
X7247062Y-16045734D01*
X7437539Y-16045734D02*
X7456586Y-16045734D01*
X7456586Y-16045734D02*
X7475634Y-16055258D01*
X7475634Y-16055258D02*
X7485158Y-16064781D01*
X7485158Y-16064781D02*
X7494682Y-16083829D01*
X7494682Y-16083829D02*
X7504205Y-16121924D01*
X7504205Y-16121924D02*
X7504205Y-16169543D01*
X7504205Y-16169543D02*
X7494682Y-16207638D01*
X7494682Y-16207638D02*
X7485158Y-16226686D01*
X7485158Y-16226686D02*
X7475634Y-16236210D01*
X7475634Y-16236210D02*
X7456586Y-16245734D01*
X7456586Y-16245734D02*
X7437539Y-16245734D01*
X7437539Y-16245734D02*
X7418491Y-16236210D01*
X7418491Y-16236210D02*
X7408967Y-16226686D01*
X7408967Y-16226686D02*
X7399443Y-16207638D01*
X7399443Y-16207638D02*
X7389920Y-16169543D01*
X7389920Y-16169543D02*
X7389920Y-16121924D01*
X7389920Y-16121924D02*
X7399443Y-16083829D01*
X7399443Y-16083829D02*
X7408967Y-16064781D01*
X7408967Y-16064781D02*
X7418491Y-16055258D01*
X7418491Y-16055258D02*
X7437539Y-16045734D01*
X7589920Y-16245734D02*
X7589920Y-16112400D01*
X7589920Y-16131448D02*
X7599443Y-16121924D01*
X7599443Y-16121924D02*
X7618491Y-16112400D01*
X7618491Y-16112400D02*
X7647063Y-16112400D01*
X7647063Y-16112400D02*
X7666110Y-16121924D01*
X7666110Y-16121924D02*
X7675634Y-16140972D01*
X7675634Y-16140972D02*
X7675634Y-16245734D01*
X7675634Y-16140972D02*
X7685158Y-16121924D01*
X7685158Y-16121924D02*
X7704205Y-16112400D01*
X7704205Y-16112400D02*
X7732777Y-16112400D01*
X7732777Y-16112400D02*
X7751824Y-16121924D01*
X7751824Y-16121924D02*
X7761348Y-16140972D01*
X7761348Y-16140972D02*
X7761348Y-16245734D01*
X7856586Y-16245734D02*
X7856586Y-16112400D01*
X7856586Y-16131448D02*
X7866110Y-16121924D01*
X7866110Y-16121924D02*
X7885158Y-16112400D01*
X7885158Y-16112400D02*
X7913729Y-16112400D01*
X7913729Y-16112400D02*
X7932777Y-16121924D01*
X7932777Y-16121924D02*
X7942301Y-16140972D01*
X7942301Y-16140972D02*
X7942301Y-16245734D01*
X7942301Y-16140972D02*
X7951824Y-16121924D01*
X7951824Y-16121924D02*
X7970872Y-16112400D01*
X7970872Y-16112400D02*
X7999443Y-16112400D01*
X7999443Y-16112400D02*
X8018491Y-16121924D01*
X8018491Y-16121924D02*
X8028015Y-16140972D01*
X8028015Y-16140972D02*
X8028015Y-16245734D01*
X8418491Y-16036210D02*
X8247063Y-16293353D01*
X8675634Y-16045734D02*
X8694682Y-16045734D01*
X8694682Y-16045734D02*
X8713729Y-16055258D01*
X8713729Y-16055258D02*
X8723253Y-16064781D01*
X8723253Y-16064781D02*
X8732777Y-16083829D01*
X8732777Y-16083829D02*
X8742301Y-16121924D01*
X8742301Y-16121924D02*
X8742301Y-16169543D01*
X8742301Y-16169543D02*
X8732777Y-16207638D01*
X8732777Y-16207638D02*
X8723253Y-16226686D01*
X8723253Y-16226686D02*
X8713729Y-16236210D01*
X8713729Y-16236210D02*
X8694682Y-16245734D01*
X8694682Y-16245734D02*
X8675634Y-16245734D01*
X8675634Y-16245734D02*
X8656587Y-16236210D01*
X8656587Y-16236210D02*
X8647063Y-16226686D01*
X8647063Y-16226686D02*
X8637539Y-16207638D01*
X8637539Y-16207638D02*
X8628015Y-16169543D01*
X8628015Y-16169543D02*
X8628015Y-16121924D01*
X8628015Y-16121924D02*
X8637539Y-16083829D01*
X8637539Y-16083829D02*
X8647063Y-16064781D01*
X8647063Y-16064781D02*
X8656587Y-16055258D01*
X8656587Y-16055258D02*
X8675634Y-16045734D01*
X8828015Y-16226686D02*
X8837539Y-16236210D01*
X8837539Y-16236210D02*
X8828015Y-16245734D01*
X8828015Y-16245734D02*
X8818491Y-16236210D01*
X8818491Y-16236210D02*
X8828015Y-16226686D01*
X8828015Y-16226686D02*
X8828015Y-16245734D01*
X8961348Y-16045734D02*
X8980396Y-16045734D01*
X8980396Y-16045734D02*
X8999444Y-16055258D01*
X8999444Y-16055258D02*
X9008968Y-16064781D01*
X9008968Y-16064781D02*
X9018491Y-16083829D01*
X9018491Y-16083829D02*
X9028015Y-16121924D01*
X9028015Y-16121924D02*
X9028015Y-16169543D01*
X9028015Y-16169543D02*
X9018491Y-16207638D01*
X9018491Y-16207638D02*
X9008968Y-16226686D01*
X9008968Y-16226686D02*
X8999444Y-16236210D01*
X8999444Y-16236210D02*
X8980396Y-16245734D01*
X8980396Y-16245734D02*
X8961348Y-16245734D01*
X8961348Y-16245734D02*
X8942301Y-16236210D01*
X8942301Y-16236210D02*
X8932777Y-16226686D01*
X8932777Y-16226686D02*
X8923253Y-16207638D01*
X8923253Y-16207638D02*
X8913729Y-16169543D01*
X8913729Y-16169543D02*
X8913729Y-16121924D01*
X8913729Y-16121924D02*
X8923253Y-16083829D01*
X8923253Y-16083829D02*
X8932777Y-16064781D01*
X8932777Y-16064781D02*
X8942301Y-16055258D01*
X8942301Y-16055258D02*
X8961348Y-16045734D01*
X9208968Y-16045734D02*
X9113729Y-16045734D01*
X9113729Y-16045734D02*
X9104206Y-16140972D01*
X9104206Y-16140972D02*
X9113729Y-16131448D01*
X9113729Y-16131448D02*
X9132777Y-16121924D01*
X9132777Y-16121924D02*
X9180396Y-16121924D01*
X9180396Y-16121924D02*
X9199444Y-16131448D01*
X9199444Y-16131448D02*
X9208968Y-16140972D01*
X9208968Y-16140972D02*
X9218491Y-16160019D01*
X9218491Y-16160019D02*
X9218491Y-16207638D01*
X9218491Y-16207638D02*
X9208968Y-16226686D01*
X9208968Y-16226686D02*
X9199444Y-16236210D01*
X9199444Y-16236210D02*
X9180396Y-16245734D01*
X9180396Y-16245734D02*
X9132777Y-16245734D01*
X9132777Y-16245734D02*
X9113729Y-16236210D01*
X9113729Y-16236210D02*
X9104206Y-16226686D01*
X9408968Y-16245734D02*
X9294682Y-16245734D01*
X9351825Y-16245734D02*
X9351825Y-16045734D01*
X9351825Y-16045734D02*
X9332777Y-16074305D01*
X9332777Y-16074305D02*
X9313729Y-16093353D01*
X9313729Y-16093353D02*
X9294682Y-16102877D01*
X9485158Y-16064781D02*
X9494682Y-16055258D01*
X9494682Y-16055258D02*
X9513729Y-16045734D01*
X9513729Y-16045734D02*
X9561349Y-16045734D01*
X9561349Y-16045734D02*
X9580396Y-16055258D01*
X9580396Y-16055258D02*
X9589920Y-16064781D01*
X9589920Y-16064781D02*
X9599444Y-16083829D01*
X9599444Y-16083829D02*
X9599444Y-16102877D01*
X9599444Y-16102877D02*
X9589920Y-16131448D01*
X9589920Y-16131448D02*
X9475634Y-16245734D01*
X9475634Y-16245734D02*
X9599444Y-16245734D01*
X9675634Y-16045734D02*
X9675634Y-16083829D01*
X9751825Y-16045734D02*
X9751825Y-16083829D01*
X10047063Y-16321924D02*
X10037539Y-16312400D01*
X10037539Y-16312400D02*
X10018491Y-16283829D01*
X10018491Y-16283829D02*
X10008968Y-16264781D01*
X10008968Y-16264781D02*
X9999444Y-16236210D01*
X9999444Y-16236210D02*
X9989920Y-16188591D01*
X9989920Y-16188591D02*
X9989920Y-16150496D01*
X9989920Y-16150496D02*
X9999444Y-16102877D01*
X9999444Y-16102877D02*
X10008968Y-16074305D01*
X10008968Y-16074305D02*
X10018491Y-16055258D01*
X10018491Y-16055258D02*
X10037539Y-16026686D01*
X10037539Y-16026686D02*
X10047063Y-16017162D01*
X10228015Y-16245734D02*
X10113730Y-16245734D01*
X10170872Y-16245734D02*
X10170872Y-16045734D01*
X10170872Y-16045734D02*
X10151825Y-16074305D01*
X10151825Y-16074305D02*
X10132777Y-16093353D01*
X10132777Y-16093353D02*
X10113730Y-16102877D01*
X10418491Y-16245734D02*
X10304206Y-16245734D01*
X10361349Y-16245734D02*
X10361349Y-16045734D01*
X10361349Y-16045734D02*
X10342301Y-16074305D01*
X10342301Y-16074305D02*
X10323253Y-16093353D01*
X10323253Y-16093353D02*
X10304206Y-16102877D01*
X10656587Y-16245734D02*
X10656587Y-16045734D01*
X10742301Y-16245734D02*
X10742301Y-16140972D01*
X10742301Y-16140972D02*
X10732777Y-16121924D01*
X10732777Y-16121924D02*
X10713730Y-16112400D01*
X10713730Y-16112400D02*
X10685158Y-16112400D01*
X10685158Y-16112400D02*
X10666111Y-16121924D01*
X10666111Y-16121924D02*
X10656587Y-16131448D01*
X10866111Y-16245734D02*
X10847063Y-16236210D01*
X10847063Y-16236210D02*
X10837539Y-16226686D01*
X10837539Y-16226686D02*
X10828015Y-16207638D01*
X10828015Y-16207638D02*
X10828015Y-16150496D01*
X10828015Y-16150496D02*
X10837539Y-16131448D01*
X10837539Y-16131448D02*
X10847063Y-16121924D01*
X10847063Y-16121924D02*
X10866111Y-16112400D01*
X10866111Y-16112400D02*
X10894682Y-16112400D01*
X10894682Y-16112400D02*
X10913730Y-16121924D01*
X10913730Y-16121924D02*
X10923253Y-16131448D01*
X10923253Y-16131448D02*
X10932777Y-16150496D01*
X10932777Y-16150496D02*
X10932777Y-16207638D01*
X10932777Y-16207638D02*
X10923253Y-16226686D01*
X10923253Y-16226686D02*
X10913730Y-16236210D01*
X10913730Y-16236210D02*
X10894682Y-16245734D01*
X10894682Y-16245734D02*
X10866111Y-16245734D01*
X11047063Y-16245734D02*
X11028015Y-16236210D01*
X11028015Y-16236210D02*
X11018492Y-16217162D01*
X11018492Y-16217162D02*
X11018492Y-16045734D01*
X11199444Y-16236210D02*
X11180396Y-16245734D01*
X11180396Y-16245734D02*
X11142301Y-16245734D01*
X11142301Y-16245734D02*
X11123253Y-16236210D01*
X11123253Y-16236210D02*
X11113730Y-16217162D01*
X11113730Y-16217162D02*
X11113730Y-16140972D01*
X11113730Y-16140972D02*
X11123253Y-16121924D01*
X11123253Y-16121924D02*
X11142301Y-16112400D01*
X11142301Y-16112400D02*
X11180396Y-16112400D01*
X11180396Y-16112400D02*
X11199444Y-16121924D01*
X11199444Y-16121924D02*
X11208968Y-16140972D01*
X11208968Y-16140972D02*
X11208968Y-16160019D01*
X11208968Y-16160019D02*
X11113730Y-16179067D01*
X11285158Y-16236210D02*
X11304206Y-16245734D01*
X11304206Y-16245734D02*
X11342301Y-16245734D01*
X11342301Y-16245734D02*
X11361349Y-16236210D01*
X11361349Y-16236210D02*
X11370872Y-16217162D01*
X11370872Y-16217162D02*
X11370872Y-16207638D01*
X11370872Y-16207638D02*
X11361349Y-16188591D01*
X11361349Y-16188591D02*
X11342301Y-16179067D01*
X11342301Y-16179067D02*
X11313730Y-16179067D01*
X11313730Y-16179067D02*
X11294682Y-16169543D01*
X11294682Y-16169543D02*
X11285158Y-16150496D01*
X11285158Y-16150496D02*
X11285158Y-16140972D01*
X11285158Y-16140972D02*
X11294682Y-16121924D01*
X11294682Y-16121924D02*
X11313730Y-16112400D01*
X11313730Y-16112400D02*
X11342301Y-16112400D01*
X11342301Y-16112400D02*
X11361349Y-16121924D01*
X11437539Y-16321924D02*
X11447063Y-16312400D01*
X11447063Y-16312400D02*
X11466111Y-16283829D01*
X11466111Y-16283829D02*
X11475634Y-16264781D01*
X11475634Y-16264781D02*
X11485158Y-16236210D01*
X11485158Y-16236210D02*
X11494682Y-16188591D01*
X11494682Y-16188591D02*
X11494682Y-16150496D01*
X11494682Y-16150496D02*
X11485158Y-16102877D01*
X11485158Y-16102877D02*
X11475634Y-16074305D01*
X11475634Y-16074305D02*
X11466111Y-16055258D01*
X11466111Y-16055258D02*
X11447063Y-16026686D01*
X11447063Y-16026686D02*
X11437539Y-16017162D01*
X6442711Y-16488961D02*
X6442711Y-16347539D01*
X6301289Y-16347539D01*
X6301289Y-16488961D01*
X6442711Y-16488961D01*
X6472000Y-16418250D02*
G75*
G03*
X6472000Y-16418250I-100000J0D01*
G01*
X6723253Y-16328781D02*
X6732777Y-16319258D01*
X6732777Y-16319258D02*
X6751824Y-16309734D01*
X6751824Y-16309734D02*
X6799443Y-16309734D01*
X6799443Y-16309734D02*
X6818491Y-16319258D01*
X6818491Y-16319258D02*
X6828015Y-16328781D01*
X6828015Y-16328781D02*
X6837539Y-16347829D01*
X6837539Y-16347829D02*
X6837539Y-16366877D01*
X6837539Y-16366877D02*
X6828015Y-16395448D01*
X6828015Y-16395448D02*
X6713729Y-16509734D01*
X6713729Y-16509734D02*
X6837539Y-16509734D01*
X6923253Y-16490686D02*
X6932777Y-16500210D01*
X6932777Y-16500210D02*
X6923253Y-16509734D01*
X6923253Y-16509734D02*
X6913729Y-16500210D01*
X6913729Y-16500210D02*
X6923253Y-16490686D01*
X6923253Y-16490686D02*
X6923253Y-16509734D01*
X7113729Y-16309734D02*
X7018491Y-16309734D01*
X7018491Y-16309734D02*
X7008967Y-16404972D01*
X7008967Y-16404972D02*
X7018491Y-16395448D01*
X7018491Y-16395448D02*
X7037539Y-16385924D01*
X7037539Y-16385924D02*
X7085158Y-16385924D01*
X7085158Y-16385924D02*
X7104205Y-16395448D01*
X7104205Y-16395448D02*
X7113729Y-16404972D01*
X7113729Y-16404972D02*
X7123253Y-16424019D01*
X7123253Y-16424019D02*
X7123253Y-16471638D01*
X7123253Y-16471638D02*
X7113729Y-16490686D01*
X7113729Y-16490686D02*
X7104205Y-16500210D01*
X7104205Y-16500210D02*
X7085158Y-16509734D01*
X7085158Y-16509734D02*
X7037539Y-16509734D01*
X7037539Y-16509734D02*
X7018491Y-16500210D01*
X7018491Y-16500210D02*
X7008967Y-16490686D01*
X7218491Y-16509734D02*
X7256586Y-16509734D01*
X7256586Y-16509734D02*
X7275634Y-16500210D01*
X7275634Y-16500210D02*
X7285158Y-16490686D01*
X7285158Y-16490686D02*
X7304205Y-16462115D01*
X7304205Y-16462115D02*
X7313729Y-16424019D01*
X7313729Y-16424019D02*
X7313729Y-16347829D01*
X7313729Y-16347829D02*
X7304205Y-16328781D01*
X7304205Y-16328781D02*
X7294682Y-16319258D01*
X7294682Y-16319258D02*
X7275634Y-16309734D01*
X7275634Y-16309734D02*
X7237539Y-16309734D01*
X7237539Y-16309734D02*
X7218491Y-16319258D01*
X7218491Y-16319258D02*
X7208967Y-16328781D01*
X7208967Y-16328781D02*
X7199443Y-16347829D01*
X7199443Y-16347829D02*
X7199443Y-16395448D01*
X7199443Y-16395448D02*
X7208967Y-16414496D01*
X7208967Y-16414496D02*
X7218491Y-16424019D01*
X7218491Y-16424019D02*
X7237539Y-16433543D01*
X7237539Y-16433543D02*
X7275634Y-16433543D01*
X7275634Y-16433543D02*
X7294682Y-16424019D01*
X7294682Y-16424019D02*
X7304205Y-16414496D01*
X7304205Y-16414496D02*
X7313729Y-16395448D01*
X7437539Y-16309734D02*
X7456586Y-16309734D01*
X7456586Y-16309734D02*
X7475634Y-16319258D01*
X7475634Y-16319258D02*
X7485158Y-16328781D01*
X7485158Y-16328781D02*
X7494682Y-16347829D01*
X7494682Y-16347829D02*
X7504205Y-16385924D01*
X7504205Y-16385924D02*
X7504205Y-16433543D01*
X7504205Y-16433543D02*
X7494682Y-16471638D01*
X7494682Y-16471638D02*
X7485158Y-16490686D01*
X7485158Y-16490686D02*
X7475634Y-16500210D01*
X7475634Y-16500210D02*
X7456586Y-16509734D01*
X7456586Y-16509734D02*
X7437539Y-16509734D01*
X7437539Y-16509734D02*
X7418491Y-16500210D01*
X7418491Y-16500210D02*
X7408967Y-16490686D01*
X7408967Y-16490686D02*
X7399443Y-16471638D01*
X7399443Y-16471638D02*
X7389920Y-16433543D01*
X7389920Y-16433543D02*
X7389920Y-16385924D01*
X7389920Y-16385924D02*
X7399443Y-16347829D01*
X7399443Y-16347829D02*
X7408967Y-16328781D01*
X7408967Y-16328781D02*
X7418491Y-16319258D01*
X7418491Y-16319258D02*
X7437539Y-16309734D01*
X7589920Y-16509734D02*
X7589920Y-16376400D01*
X7589920Y-16395448D02*
X7599443Y-16385924D01*
X7599443Y-16385924D02*
X7618491Y-16376400D01*
X7618491Y-16376400D02*
X7647063Y-16376400D01*
X7647063Y-16376400D02*
X7666110Y-16385924D01*
X7666110Y-16385924D02*
X7675634Y-16404972D01*
X7675634Y-16404972D02*
X7675634Y-16509734D01*
X7675634Y-16404972D02*
X7685158Y-16385924D01*
X7685158Y-16385924D02*
X7704205Y-16376400D01*
X7704205Y-16376400D02*
X7732777Y-16376400D01*
X7732777Y-16376400D02*
X7751824Y-16385924D01*
X7751824Y-16385924D02*
X7761348Y-16404972D01*
X7761348Y-16404972D02*
X7761348Y-16509734D01*
X7856586Y-16509734D02*
X7856586Y-16376400D01*
X7856586Y-16395448D02*
X7866110Y-16385924D01*
X7866110Y-16385924D02*
X7885158Y-16376400D01*
X7885158Y-16376400D02*
X7913729Y-16376400D01*
X7913729Y-16376400D02*
X7932777Y-16385924D01*
X7932777Y-16385924D02*
X7942301Y-16404972D01*
X7942301Y-16404972D02*
X7942301Y-16509734D01*
X7942301Y-16404972D02*
X7951824Y-16385924D01*
X7951824Y-16385924D02*
X7970872Y-16376400D01*
X7970872Y-16376400D02*
X7999443Y-16376400D01*
X7999443Y-16376400D02*
X8018491Y-16385924D01*
X8018491Y-16385924D02*
X8028015Y-16404972D01*
X8028015Y-16404972D02*
X8028015Y-16509734D01*
X8418491Y-16300210D02*
X8247063Y-16557353D01*
X8675634Y-16309734D02*
X8694682Y-16309734D01*
X8694682Y-16309734D02*
X8713729Y-16319258D01*
X8713729Y-16319258D02*
X8723253Y-16328781D01*
X8723253Y-16328781D02*
X8732777Y-16347829D01*
X8732777Y-16347829D02*
X8742301Y-16385924D01*
X8742301Y-16385924D02*
X8742301Y-16433543D01*
X8742301Y-16433543D02*
X8732777Y-16471638D01*
X8732777Y-16471638D02*
X8723253Y-16490686D01*
X8723253Y-16490686D02*
X8713729Y-16500210D01*
X8713729Y-16500210D02*
X8694682Y-16509734D01*
X8694682Y-16509734D02*
X8675634Y-16509734D01*
X8675634Y-16509734D02*
X8656587Y-16500210D01*
X8656587Y-16500210D02*
X8647063Y-16490686D01*
X8647063Y-16490686D02*
X8637539Y-16471638D01*
X8637539Y-16471638D02*
X8628015Y-16433543D01*
X8628015Y-16433543D02*
X8628015Y-16385924D01*
X8628015Y-16385924D02*
X8637539Y-16347829D01*
X8637539Y-16347829D02*
X8647063Y-16328781D01*
X8647063Y-16328781D02*
X8656587Y-16319258D01*
X8656587Y-16319258D02*
X8675634Y-16309734D01*
X8828015Y-16490686D02*
X8837539Y-16500210D01*
X8837539Y-16500210D02*
X8828015Y-16509734D01*
X8828015Y-16509734D02*
X8818491Y-16500210D01*
X8818491Y-16500210D02*
X8828015Y-16490686D01*
X8828015Y-16490686D02*
X8828015Y-16509734D01*
X9028015Y-16509734D02*
X8913729Y-16509734D01*
X8970872Y-16509734D02*
X8970872Y-16309734D01*
X8970872Y-16309734D02*
X8951825Y-16338305D01*
X8951825Y-16338305D02*
X8932777Y-16357353D01*
X8932777Y-16357353D02*
X8913729Y-16366877D01*
X9151825Y-16309734D02*
X9170872Y-16309734D01*
X9170872Y-16309734D02*
X9189920Y-16319258D01*
X9189920Y-16319258D02*
X9199444Y-16328781D01*
X9199444Y-16328781D02*
X9208968Y-16347829D01*
X9208968Y-16347829D02*
X9218491Y-16385924D01*
X9218491Y-16385924D02*
X9218491Y-16433543D01*
X9218491Y-16433543D02*
X9208968Y-16471638D01*
X9208968Y-16471638D02*
X9199444Y-16490686D01*
X9199444Y-16490686D02*
X9189920Y-16500210D01*
X9189920Y-16500210D02*
X9170872Y-16509734D01*
X9170872Y-16509734D02*
X9151825Y-16509734D01*
X9151825Y-16509734D02*
X9132777Y-16500210D01*
X9132777Y-16500210D02*
X9123253Y-16490686D01*
X9123253Y-16490686D02*
X9113729Y-16471638D01*
X9113729Y-16471638D02*
X9104206Y-16433543D01*
X9104206Y-16433543D02*
X9104206Y-16385924D01*
X9104206Y-16385924D02*
X9113729Y-16347829D01*
X9113729Y-16347829D02*
X9123253Y-16328781D01*
X9123253Y-16328781D02*
X9132777Y-16319258D01*
X9132777Y-16319258D02*
X9151825Y-16309734D01*
X9294682Y-16328781D02*
X9304206Y-16319258D01*
X9304206Y-16319258D02*
X9323253Y-16309734D01*
X9323253Y-16309734D02*
X9370872Y-16309734D01*
X9370872Y-16309734D02*
X9389920Y-16319258D01*
X9389920Y-16319258D02*
X9399444Y-16328781D01*
X9399444Y-16328781D02*
X9408968Y-16347829D01*
X9408968Y-16347829D02*
X9408968Y-16366877D01*
X9408968Y-16366877D02*
X9399444Y-16395448D01*
X9399444Y-16395448D02*
X9285158Y-16509734D01*
X9285158Y-16509734D02*
X9408968Y-16509734D01*
X9532777Y-16309734D02*
X9551825Y-16309734D01*
X9551825Y-16309734D02*
X9570872Y-16319258D01*
X9570872Y-16319258D02*
X9580396Y-16328781D01*
X9580396Y-16328781D02*
X9589920Y-16347829D01*
X9589920Y-16347829D02*
X9599444Y-16385924D01*
X9599444Y-16385924D02*
X9599444Y-16433543D01*
X9599444Y-16433543D02*
X9589920Y-16471638D01*
X9589920Y-16471638D02*
X9580396Y-16490686D01*
X9580396Y-16490686D02*
X9570872Y-16500210D01*
X9570872Y-16500210D02*
X9551825Y-16509734D01*
X9551825Y-16509734D02*
X9532777Y-16509734D01*
X9532777Y-16509734D02*
X9513729Y-16500210D01*
X9513729Y-16500210D02*
X9504206Y-16490686D01*
X9504206Y-16490686D02*
X9494682Y-16471638D01*
X9494682Y-16471638D02*
X9485158Y-16433543D01*
X9485158Y-16433543D02*
X9485158Y-16385924D01*
X9485158Y-16385924D02*
X9494682Y-16347829D01*
X9494682Y-16347829D02*
X9504206Y-16328781D01*
X9504206Y-16328781D02*
X9513729Y-16319258D01*
X9513729Y-16319258D02*
X9532777Y-16309734D01*
X9675634Y-16309734D02*
X9675634Y-16347829D01*
X9751825Y-16309734D02*
X9751825Y-16347829D01*
X10047063Y-16585924D02*
X10037539Y-16576400D01*
X10037539Y-16576400D02*
X10018491Y-16547829D01*
X10018491Y-16547829D02*
X10008968Y-16528781D01*
X10008968Y-16528781D02*
X9999444Y-16500210D01*
X9999444Y-16500210D02*
X9989920Y-16452591D01*
X9989920Y-16452591D02*
X9989920Y-16414496D01*
X9989920Y-16414496D02*
X9999444Y-16366877D01*
X9999444Y-16366877D02*
X10008968Y-16338305D01*
X10008968Y-16338305D02*
X10018491Y-16319258D01*
X10018491Y-16319258D02*
X10037539Y-16290686D01*
X10037539Y-16290686D02*
X10047063Y-16281162D01*
X10208968Y-16376400D02*
X10208968Y-16509734D01*
X10161349Y-16300210D02*
X10113730Y-16443067D01*
X10113730Y-16443067D02*
X10237539Y-16443067D01*
X10466111Y-16509734D02*
X10466111Y-16309734D01*
X10551825Y-16509734D02*
X10551825Y-16404972D01*
X10551825Y-16404972D02*
X10542301Y-16385924D01*
X10542301Y-16385924D02*
X10523253Y-16376400D01*
X10523253Y-16376400D02*
X10494682Y-16376400D01*
X10494682Y-16376400D02*
X10475634Y-16385924D01*
X10475634Y-16385924D02*
X10466111Y-16395448D01*
X10675634Y-16509734D02*
X10656587Y-16500210D01*
X10656587Y-16500210D02*
X10647063Y-16490686D01*
X10647063Y-16490686D02*
X10637539Y-16471638D01*
X10637539Y-16471638D02*
X10637539Y-16414496D01*
X10637539Y-16414496D02*
X10647063Y-16395448D01*
X10647063Y-16395448D02*
X10656587Y-16385924D01*
X10656587Y-16385924D02*
X10675634Y-16376400D01*
X10675634Y-16376400D02*
X10704206Y-16376400D01*
X10704206Y-16376400D02*
X10723253Y-16385924D01*
X10723253Y-16385924D02*
X10732777Y-16395448D01*
X10732777Y-16395448D02*
X10742301Y-16414496D01*
X10742301Y-16414496D02*
X10742301Y-16471638D01*
X10742301Y-16471638D02*
X10732777Y-16490686D01*
X10732777Y-16490686D02*
X10723253Y-16500210D01*
X10723253Y-16500210D02*
X10704206Y-16509734D01*
X10704206Y-16509734D02*
X10675634Y-16509734D01*
X10856587Y-16509734D02*
X10837539Y-16500210D01*
X10837539Y-16500210D02*
X10828015Y-16481162D01*
X10828015Y-16481162D02*
X10828015Y-16309734D01*
X11008968Y-16500210D02*
X10989920Y-16509734D01*
X10989920Y-16509734D02*
X10951825Y-16509734D01*
X10951825Y-16509734D02*
X10932777Y-16500210D01*
X10932777Y-16500210D02*
X10923253Y-16481162D01*
X10923253Y-16481162D02*
X10923253Y-16404972D01*
X10923253Y-16404972D02*
X10932777Y-16385924D01*
X10932777Y-16385924D02*
X10951825Y-16376400D01*
X10951825Y-16376400D02*
X10989920Y-16376400D01*
X10989920Y-16376400D02*
X11008968Y-16385924D01*
X11008968Y-16385924D02*
X11018492Y-16404972D01*
X11018492Y-16404972D02*
X11018492Y-16424019D01*
X11018492Y-16424019D02*
X10923253Y-16443067D01*
X11094682Y-16500210D02*
X11113730Y-16509734D01*
X11113730Y-16509734D02*
X11151825Y-16509734D01*
X11151825Y-16509734D02*
X11170873Y-16500210D01*
X11170873Y-16500210D02*
X11180396Y-16481162D01*
X11180396Y-16481162D02*
X11180396Y-16471638D01*
X11180396Y-16471638D02*
X11170873Y-16452591D01*
X11170873Y-16452591D02*
X11151825Y-16443067D01*
X11151825Y-16443067D02*
X11123253Y-16443067D01*
X11123253Y-16443067D02*
X11104206Y-16433543D01*
X11104206Y-16433543D02*
X11094682Y-16414496D01*
X11094682Y-16414496D02*
X11094682Y-16404972D01*
X11094682Y-16404972D02*
X11104206Y-16385924D01*
X11104206Y-16385924D02*
X11123253Y-16376400D01*
X11123253Y-16376400D02*
X11151825Y-16376400D01*
X11151825Y-16376400D02*
X11170873Y-16385924D01*
X11247063Y-16585924D02*
X11256587Y-16576400D01*
X11256587Y-16576400D02*
X11275634Y-16547829D01*
X11275634Y-16547829D02*
X11285158Y-16528781D01*
X11285158Y-16528781D02*
X11294682Y-16500210D01*
X11294682Y-16500210D02*
X11304206Y-16452591D01*
X11304206Y-16452591D02*
X11304206Y-16414496D01*
X11304206Y-16414496D02*
X11294682Y-16366877D01*
X11294682Y-16366877D02*
X11285158Y-16338305D01*
X11285158Y-16338305D02*
X11275634Y-16319258D01*
X11275634Y-16319258D02*
X11256587Y-16290686D01*
X11256587Y-16290686D02*
X11247063Y-16281162D01*
M02*
