%TF.GenerationSoftware,KiCad,Pcbnew,7.0.9*%
%TF.CreationDate,2024-01-17T08:58:22+01:00*%
%TF.ProjectId,DC Electronic Load,44432045-6c65-4637-9472-6f6e6963204c,rev?*%
%TF.SameCoordinates,Original*%
%TF.FileFunction,Soldermask,Bot*%
%TF.FilePolarity,Negative*%
%FSLAX46Y46*%
G04 Gerber Fmt 4.6, Leading zero omitted, Abs format (unit mm)*
G04 Created by KiCad (PCBNEW 7.0.9) date 2024-01-17 08:58:22*
%MOMM*%
%LPD*%
G01*
G04 APERTURE LIST*
G04 Aperture macros list*
%AMRoundRect*
0 Rectangle with rounded corners*
0 $1 Rounding radius*
0 $2 $3 $4 $5 $6 $7 $8 $9 X,Y pos of 4 corners*
0 Add a 4 corners polygon primitive as box body*
4,1,4,$2,$3,$4,$5,$6,$7,$8,$9,$2,$3,0*
0 Add four circle primitives for the rounded corners*
1,1,$1+$1,$2,$3*
1,1,$1+$1,$4,$5*
1,1,$1+$1,$6,$7*
1,1,$1+$1,$8,$9*
0 Add four rect primitives between the rounded corners*
20,1,$1+$1,$2,$3,$4,$5,0*
20,1,$1+$1,$4,$5,$6,$7,0*
20,1,$1+$1,$6,$7,$8,$9,0*
20,1,$1+$1,$8,$9,$2,$3,0*%
G04 Aperture macros list end*
%ADD10C,1.000000*%
%ADD11C,3.885000*%
%ADD12C,2.000000*%
%ADD13C,1.600000*%
%ADD14R,1.700000X1.700000*%
%ADD15O,1.700000X1.700000*%
%ADD16R,1.600000X1.600000*%
%ADD17O,1.600000X1.600000*%
%ADD18R,1.905000X2.000000*%
%ADD19O,1.905000X2.000000*%
%ADD20RoundRect,0.575000X0.575000X0.575000X-0.575000X0.575000X-0.575000X-0.575000X0.575000X-0.575000X0*%
%ADD21C,2.300000*%
%ADD22C,1.500000*%
%ADD23C,1.400000*%
%ADD24O,1.400000X1.400000*%
%ADD25C,1.875000*%
%ADD26R,2.600000X2.600000*%
%ADD27C,2.600000*%
%ADD28C,2.340000*%
%ADD29R,2.000000X1.905000*%
%ADD30O,2.000000X1.905000*%
%ADD31R,1.050000X1.500000*%
%ADD32O,1.050000X1.500000*%
%ADD33R,1.800000X1.800000*%
%ADD34C,1.800000*%
G04 APERTURE END LIST*
D10*
%TO.C,Y2*%
X87884000Y-95250000D03*
X86360000Y-95250000D03*
%TD*%
D11*
%TO.C,H2*%
X176530000Y-54610000D03*
X201930000Y-54610000D03*
%TD*%
%TO.C,H1*%
X109220000Y-54610000D03*
X134620000Y-54610000D03*
%TD*%
D12*
%TO.C,SW1*%
X72315000Y-93762000D03*
X78815000Y-93762000D03*
X72315000Y-98262000D03*
X78815000Y-98262000D03*
%TD*%
D13*
%TO.C,C24*%
X67370000Y-116840000D03*
X72370000Y-116840000D03*
%TD*%
%TO.C,C6*%
X181670000Y-81280000D03*
X186670000Y-81280000D03*
%TD*%
D14*
%TO.C,J2*%
X102250000Y-127000000D03*
D15*
X99710000Y-127000000D03*
X97170000Y-127000000D03*
%TD*%
D16*
%TO.C,U11*%
X78115000Y-108575000D03*
D17*
X80655000Y-108575000D03*
X83195000Y-108575000D03*
X85735000Y-108575000D03*
X88275000Y-108575000D03*
X90815000Y-108575000D03*
X93355000Y-108575000D03*
X95895000Y-108575000D03*
X98435000Y-108575000D03*
X100975000Y-108575000D03*
X103515000Y-108575000D03*
X106055000Y-108575000D03*
X108595000Y-108575000D03*
X111135000Y-108575000D03*
X111135000Y-100955000D03*
X108595000Y-100955000D03*
X106055000Y-100955000D03*
X103515000Y-100955000D03*
X100975000Y-100955000D03*
X98435000Y-100955000D03*
X95895000Y-100955000D03*
X93355000Y-100955000D03*
X90815000Y-100955000D03*
X88275000Y-100955000D03*
X85735000Y-100955000D03*
X83195000Y-100955000D03*
X80655000Y-100955000D03*
X78115000Y-100955000D03*
%TD*%
D18*
%TO.C,U12*%
X88900000Y-126055000D03*
D19*
X86360000Y-126055000D03*
X83820000Y-126055000D03*
%TD*%
D20*
%TO.C,F1*%
X87720000Y-36830000D03*
X83120000Y-36830000D03*
D21*
X71820000Y-36830000D03*
X67220000Y-36830000D03*
%TD*%
D22*
%TO.C,Y1*%
X103415000Y-113030000D03*
X98535000Y-113030000D03*
%TD*%
D14*
%TO.C,U9*%
X179705000Y-127000000D03*
D15*
X177165000Y-127000000D03*
X174625000Y-127000000D03*
X172085000Y-127000000D03*
X169545000Y-127000000D03*
X167005000Y-127000000D03*
X164465000Y-127000000D03*
X161925000Y-127000000D03*
X159385000Y-127000000D03*
X156845000Y-127000000D03*
X154305000Y-127000000D03*
X151765000Y-127000000D03*
X149225000Y-127000000D03*
X146685000Y-127000000D03*
X144145000Y-127000000D03*
X141605000Y-127000000D03*
%TD*%
D23*
%TO.C,R29*%
X200660000Y-114935000D03*
D24*
X200660000Y-122555000D03*
%TD*%
D25*
%TO.C,R19*%
X149860000Y-35672500D03*
X149860000Y-73772500D03*
%TD*%
D23*
%TO.C,R1*%
X153670000Y-86360000D03*
D24*
X153670000Y-78740000D03*
%TD*%
D13*
%TO.C,C4*%
X179130000Y-96520000D03*
X184130000Y-96520000D03*
%TD*%
%TO.C,C15*%
X100925000Y-117475000D03*
X95925000Y-117475000D03*
%TD*%
D23*
%TO.C,R34*%
X129540000Y-122555000D03*
D24*
X129540000Y-114935000D03*
%TD*%
D23*
%TO.C,R27*%
X205740000Y-114935000D03*
D24*
X205740000Y-122555000D03*
%TD*%
D13*
%TO.C,C1*%
X103505000Y-86400000D03*
X103505000Y-91400000D03*
%TD*%
D23*
%TO.C,R7*%
X137170000Y-82540000D03*
D24*
X144790000Y-82540000D03*
%TD*%
D23*
%TO.C,R35*%
X124460000Y-122555000D03*
D24*
X124460000Y-114935000D03*
%TD*%
D23*
%TO.C,R23*%
X111760000Y-95250000D03*
D24*
X119380000Y-95250000D03*
%TD*%
D13*
%TO.C,C10*%
X221605000Y-106085000D03*
X221605000Y-111085000D03*
%TD*%
%TO.C,C2*%
X167005000Y-91400000D03*
X167005000Y-86400000D03*
%TD*%
D16*
%TO.C,U6*%
X186690000Y-104775000D03*
D17*
X184150000Y-104775000D03*
X181610000Y-104775000D03*
X179070000Y-104775000D03*
X176530000Y-104775000D03*
X173990000Y-104775000D03*
X171450000Y-104775000D03*
X168910000Y-104775000D03*
X166370000Y-104775000D03*
X166370000Y-112395000D03*
X168910000Y-112395000D03*
X171450000Y-112395000D03*
X173990000Y-112395000D03*
X176530000Y-112395000D03*
X179070000Y-112395000D03*
X181610000Y-112395000D03*
X184150000Y-112395000D03*
X186690000Y-112395000D03*
%TD*%
D23*
%TO.C,R2*%
X149860000Y-86360000D03*
D24*
X149860000Y-78740000D03*
%TD*%
D14*
%TO.C,J3*%
X215900000Y-126990000D03*
D15*
X213360000Y-126990000D03*
X210820000Y-126990000D03*
X208280000Y-126990000D03*
X205740000Y-126990000D03*
X203200000Y-126990000D03*
X200660000Y-126990000D03*
X198120000Y-126990000D03*
%TD*%
D23*
%TO.C,R3*%
X161290000Y-86360000D03*
D24*
X161290000Y-78740000D03*
%TD*%
D23*
%TO.C,R6*%
X144790000Y-97780000D03*
D24*
X137170000Y-97780000D03*
%TD*%
D13*
%TO.C,C23*%
X78740000Y-128210000D03*
X78740000Y-123210000D03*
%TD*%
D23*
%TO.C,R16*%
X193040000Y-72390000D03*
D24*
X193040000Y-64770000D03*
%TD*%
D13*
%TO.C,C12*%
X119385000Y-107275000D03*
X119385000Y-102275000D03*
%TD*%
D23*
%TO.C,R9*%
X144780000Y-77470000D03*
D24*
X137160000Y-77470000D03*
%TD*%
D23*
%TO.C,R33*%
X127000000Y-119380000D03*
D24*
X127000000Y-111760000D03*
%TD*%
D13*
%TO.C,C17*%
X82550000Y-89495000D03*
X82550000Y-84495000D03*
%TD*%
D18*
%TO.C,Q2*%
X124460000Y-49855000D03*
D19*
X121920000Y-49855000D03*
X119380000Y-49855000D03*
%TD*%
D26*
%TO.C,J1*%
X71120000Y-44530000D03*
D27*
X71120000Y-49530000D03*
%TD*%
D23*
%TO.C,R30*%
X198120000Y-114935000D03*
D24*
X198120000Y-122555000D03*
%TD*%
D23*
%TO.C,R31*%
X74930000Y-104140000D03*
D24*
X74930000Y-111760000D03*
%TD*%
D28*
%TO.C,RV1*%
X191135000Y-123825000D03*
X188635000Y-126325000D03*
X186135000Y-123825000D03*
%TD*%
D13*
%TO.C,C9*%
X158710000Y-111760000D03*
X153710000Y-111760000D03*
%TD*%
%TO.C,C26*%
X69890000Y-101600000D03*
X74890000Y-101600000D03*
%TD*%
D23*
%TO.C,R10*%
X125095000Y-80010000D03*
D24*
X132715000Y-80010000D03*
%TD*%
D23*
%TO.C,R17*%
X118110000Y-72390000D03*
D24*
X118110000Y-64770000D03*
%TD*%
D13*
%TO.C,C3*%
X176470000Y-96520000D03*
X171470000Y-96520000D03*
%TD*%
D29*
%TO.C,U13*%
X69850000Y-111760000D03*
D30*
X69850000Y-109220000D03*
X69850000Y-106680000D03*
%TD*%
D23*
%TO.C,R8*%
X137170000Y-80000000D03*
D24*
X144790000Y-80000000D03*
%TD*%
D16*
%TO.C,U8*%
X122555000Y-108585000D03*
D17*
X125095000Y-108585000D03*
X127635000Y-108585000D03*
X130175000Y-108585000D03*
X132715000Y-108585000D03*
X135255000Y-108585000D03*
X137795000Y-108585000D03*
X137795000Y-100965000D03*
X135255000Y-100965000D03*
X132715000Y-100965000D03*
X130175000Y-100965000D03*
X127635000Y-100965000D03*
X125095000Y-100965000D03*
X122555000Y-100965000D03*
%TD*%
D14*
%TO.C,TH2*%
X120015000Y-85725000D03*
D15*
X122555000Y-85725000D03*
%TD*%
D13*
%TO.C,C21*%
X118745000Y-116800000D03*
X118745000Y-111800000D03*
%TD*%
D23*
%TO.C,R5*%
X144790000Y-95240000D03*
D24*
X137170000Y-95240000D03*
%TD*%
D23*
%TO.C,R15*%
X185420000Y-72390000D03*
D24*
X185420000Y-64770000D03*
%TD*%
D23*
%TO.C,R14*%
X181610000Y-77470000D03*
D24*
X189230000Y-77470000D03*
%TD*%
D25*
%TO.C,R21*%
X217170000Y-35672500D03*
X217170000Y-73772500D03*
%TD*%
D13*
%TO.C,C18*%
X93345000Y-116165000D03*
X93345000Y-111165000D03*
%TD*%
D16*
%TO.C,U3*%
X170175000Y-92700000D03*
D17*
X172715000Y-92700000D03*
X175255000Y-92700000D03*
X177795000Y-92700000D03*
X180335000Y-92700000D03*
X182875000Y-92700000D03*
X185415000Y-92700000D03*
X185415000Y-85080000D03*
X182875000Y-85080000D03*
X180335000Y-85080000D03*
X177795000Y-85080000D03*
X175255000Y-85080000D03*
X172715000Y-85080000D03*
X170175000Y-85080000D03*
%TD*%
D23*
%TO.C,R11*%
X168905000Y-100320000D03*
D24*
X176525000Y-100320000D03*
%TD*%
D18*
%TO.C,Q4*%
X191770000Y-49855000D03*
D19*
X189230000Y-49855000D03*
X186690000Y-49855000D03*
%TD*%
D16*
%TO.C,U1*%
X137160000Y-92710000D03*
D17*
X139700000Y-92710000D03*
X142240000Y-92710000D03*
X144780000Y-92710000D03*
X144780000Y-85090000D03*
X142240000Y-85090000D03*
X139700000Y-85090000D03*
X137160000Y-85090000D03*
%TD*%
D25*
%TO.C,R20*%
X93980000Y-35560000D03*
X93980000Y-73660000D03*
%TD*%
D14*
%TO.C,SW2*%
X129550000Y-126990000D03*
D15*
X127010000Y-126990000D03*
X124470000Y-126990000D03*
X121930000Y-126990000D03*
X119390000Y-126990000D03*
%TD*%
D25*
%TO.C,R22*%
X161290000Y-35672500D03*
X161290000Y-73772500D03*
%TD*%
D16*
%TO.C,U7*%
X148600000Y-108575000D03*
D17*
X151140000Y-108575000D03*
X153680000Y-108575000D03*
X156220000Y-108575000D03*
X156220000Y-100955000D03*
X153680000Y-100955000D03*
X151140000Y-100955000D03*
X148600000Y-100955000D03*
%TD*%
D16*
%TO.C,U2*%
X106690000Y-92700000D03*
D17*
X109230000Y-92700000D03*
X111770000Y-92700000D03*
X114310000Y-92700000D03*
X114310000Y-85080000D03*
X111770000Y-85080000D03*
X109230000Y-85080000D03*
X106690000Y-85080000D03*
%TD*%
D13*
%TO.C,C14*%
X189865000Y-111085000D03*
X189865000Y-106085000D03*
%TD*%
%TO.C,C25*%
X83880000Y-121920000D03*
X88880000Y-121920000D03*
%TD*%
D31*
%TO.C,U5*%
X147955000Y-115570000D03*
D32*
X149225000Y-115570000D03*
X150495000Y-115570000D03*
%TD*%
D13*
%TO.C,C7*%
X109160000Y-95885000D03*
X104160000Y-95885000D03*
%TD*%
D33*
%TO.C,D1*%
X106045000Y-121285000D03*
D34*
X108585000Y-121285000D03*
%TD*%
D23*
%TO.C,R25*%
X111125000Y-111125000D03*
D24*
X111125000Y-118745000D03*
%TD*%
D13*
%TO.C,C20*%
X91440000Y-93385000D03*
X91440000Y-98385000D03*
%TD*%
D23*
%TO.C,R24*%
X114300000Y-82550000D03*
D24*
X121920000Y-82550000D03*
%TD*%
D14*
%TO.C,J4*%
X113665000Y-127000000D03*
D15*
X111125000Y-127000000D03*
X108585000Y-127000000D03*
%TD*%
D23*
%TO.C,R28*%
X203200000Y-114935000D03*
D24*
X203200000Y-122555000D03*
%TD*%
D13*
%TO.C,C8*%
X111700000Y-81915000D03*
X106700000Y-81915000D03*
%TD*%
%TO.C,C27*%
X133985000Y-91400000D03*
X133985000Y-86400000D03*
%TD*%
D23*
%TO.C,R18*%
X125730000Y-72390000D03*
D24*
X125730000Y-64770000D03*
%TD*%
D16*
%TO.C,U10*%
X85735000Y-90795000D03*
D17*
X88275000Y-90795000D03*
X90815000Y-90795000D03*
X93355000Y-90795000D03*
X93355000Y-83175000D03*
X90815000Y-83175000D03*
X88275000Y-83175000D03*
X85735000Y-83175000D03*
%TD*%
D13*
%TO.C,C5*%
X176470000Y-81280000D03*
X171470000Y-81280000D03*
%TD*%
D23*
%TO.C,R13*%
X176530000Y-77470000D03*
D24*
X168910000Y-77470000D03*
%TD*%
D13*
%TO.C,C16*%
X103545000Y-117475000D03*
X108545000Y-117475000D03*
%TD*%
D16*
%TO.C,U4*%
X218430000Y-104785000D03*
D17*
X215890000Y-104785000D03*
X213350000Y-104785000D03*
X210810000Y-104785000D03*
X208270000Y-104785000D03*
X205730000Y-104785000D03*
X203190000Y-104785000D03*
X200650000Y-104785000D03*
X198110000Y-104785000D03*
X198110000Y-112405000D03*
X200650000Y-112405000D03*
X203190000Y-112405000D03*
X205730000Y-112405000D03*
X208270000Y-112405000D03*
X210810000Y-112405000D03*
X213350000Y-112405000D03*
X215890000Y-112405000D03*
X218430000Y-112405000D03*
%TD*%
D13*
%TO.C,C22*%
X135850000Y-111760000D03*
X130850000Y-111760000D03*
%TD*%
D23*
%TO.C,R12*%
X186685000Y-100330000D03*
D24*
X179065000Y-100330000D03*
%TD*%
D13*
%TO.C,C19*%
X82550000Y-93385000D03*
X82550000Y-98385000D03*
%TD*%
D23*
%TO.C,R32*%
X121920000Y-119380000D03*
D24*
X121920000Y-111760000D03*
%TD*%
D13*
%TO.C,C11*%
X145415000Y-107275000D03*
X145415000Y-102275000D03*
%TD*%
D26*
%TO.C,J5*%
X71120000Y-122000000D03*
D27*
X71120000Y-127000000D03*
%TD*%
D18*
%TO.C,Q3*%
X186690000Y-59690000D03*
D19*
X189230000Y-59690000D03*
X191770000Y-59690000D03*
%TD*%
D23*
%TO.C,R4*%
X157480000Y-86360000D03*
D24*
X157480000Y-78740000D03*
%TD*%
D14*
%TO.C,TH1*%
X120010000Y-90170000D03*
D15*
X122550000Y-90170000D03*
%TD*%
D18*
%TO.C,Q1*%
X119380000Y-59690000D03*
D19*
X121920000Y-59690000D03*
X124460000Y-59690000D03*
%TD*%
D23*
%TO.C,R26*%
X143510000Y-111760000D03*
D24*
X151130000Y-111760000D03*
%TD*%
M02*
